<?xml version="1.0" standalone="no"?>
<!DOCTYPE svg PUBLIC "-//W3C//DTD SVG 1.1//EN" "http://www.w3.org/Graphics/SVG/1.1/DTD/svg11.dtd" >
<svg xmlns="http://www.w3.org/2000/svg" xmlns:xlink="http://www.w3.org/1999/xlink" version="1.1">
<metadata>
Created by FontForge 20170731 at Tue May 25 09:45:58 2021
 By Aleksey,,,
(c) 2000, 2004 Adobe Systems Incorporated. All Rights Reserved. U.S. Patent D454,582.
</metadata>
<defs>
<font id="MyriadPro-SemiboldCond" horiz-adv-x="614" >
  <font-face 
    font-family="Myriad Pro Light Cond"
    font-weight="600"
    font-stretch="condensed"
    units-per-em="2048"
    panose-1="2 11 6 6 3 4 3 2 2 4"
    ascent="1536"
    descent="-512"
    x-height="997"
    cap-height="1380"
    bbox="-297 -512 1987 1942"
    underline-thickness="102"
    underline-position="-307"
    unicode-range="U+0020-FB04"
  />
<missing-glyph horiz-adv-x="1024" 
d="M0 0v1434h1024v-1434h-1024zM512 809l348 522h-696zM573 717l349 -522v1044zM164 102h696l-348 523zM102 1239v-1044l349 522z" />
    <glyph glyph-name="f_f_j" unicode="ffj" horiz-adv-x="1431" 
d="M1264 1389l-35 -170q-87 34 -178 34q-106 0 -149.5 -57t-43.5 -158v-41h475v-929q0 -157 -28.5 -245.5t-90.5 -144.5q-48 -40 -120.5 -63t-137.5 -25l-20 174q94 16 131 64q27 35 37 97t10 192v721h-256v-838h-219v838h-279v-838h-219v838h-129v159h129v25q0 207 129 313
q84 72 215 72q82 0 146 -29l-60 -161q-45 18 -77 18q-60 0 -93 -45q-41 -48 -41 -162v-31h279v58q0 49 11 98t40 101t73 91t117.5 64t166.5 25q136 0 217 -45z" />
    <glyph glyph-name="f_j" unicode="fj" horiz-adv-x="933" 
d="M360 0h-219v838h-129v159h129v58q0 49 11 98t40 101t73 91t117.5 64t166.5 25q136 0 217 -45l-37 -170q-83 34 -176 34q-106 0 -149.5 -57t-43.5 -158v-41h476v-929q0 -157 -28.5 -245.5t-90.5 -144.5q-48 -40 -120.5 -63t-137.5 -25l-21 174q95 17 131 64q27 35 37 97
t10 192v721h-256v-838z" />
    <glyph glyph-name="f_f" unicode="ff" horiz-adv-x="1013" 
d="M842 0h-219v838h-263v-838h-219v838h-129v159h129v35q0 188 95 289q83 86 235 86q66 0 111 -18l-39 -168q-36 12 -68 12q-62 0 -88.5 -51t-26.5 -148v-37h263v50q0 195 98 296q41 45 99 68t120 23q78 0 145 -23l-28 -172q-35 14 -84 14q-70 0 -100.5 -56.5t-30.5 -145.5
v-54h178v-159h-178v-838z" />
    <glyph glyph-name="f_i" unicode="fi" horiz-adv-x="935" 
d="M360 0h-219v838h-129v159h129v58q0 49 11 98t40 101t73 91t117.5 64t166.5 25q136 0 217 -45l-37 -170q-83 34 -176 34q-106 0 -149.5 -57t-43.5 -158v-41h476v-997h-220v838h-256v-838z" />
    <glyph glyph-name="f_l" unicode="fl" horiz-adv-x="935" 
d="M360 0h-219v838h-129v159h129v45q0 75 29.5 157t89.5 138q107 97 293 97q77 0 155.5 -15.5t127.5 -38.5v-1380h-220v1243q-42 17 -96 17q-83 0 -121.5 -58t-38.5 -149v-56h158v-159h-158v-838z" />
    <glyph glyph-name="f_f_i" unicode="ffi" horiz-adv-x="1433" 
d="M1264 1389l-35 -170q-87 34 -178 34q-106 0 -149.5 -57t-43.5 -158v-41h475v-997h-219v838h-256v-838h-219v838h-279v-838h-219v838h-129v159h129v25q0 207 129 313q84 72 215 72q82 0 146 -29l-60 -161q-45 18 -77 18q-60 0 -93 -45q-41 -48 -41 -162v-31h279v58
q0 49 11 98t40 101t73 91t117.5 64t166.5 25q136 0 217 -45z" />
    <glyph glyph-name="f_f_l" unicode="ffl" horiz-adv-x="1433" 
d="M631 1378l-60 -161q-45 18 -77 18q-60 0 -93 -45q-41 -48 -41 -162v-31h279v45q0 75 29.5 157t89.5 138q107 97 293 97q77 0 154.5 -15.5t127.5 -38.5v-1380h-217v1243q-42 17 -98 17q-83 0 -121.5 -58t-38.5 -149v-56h158v-159h-158v-838h-219v838h-279v-838h-219v838
h-129v159h129v25q0 207 129 313q84 72 215 72q82 0 146 -29z" />
    <glyph glyph-name=".notdef" horiz-adv-x="1024" 
d="M0 0v1434h1024v-1434h-1024zM512 809l348 522h-696zM573 717l349 -522v1044zM164 102h696l-348 523zM102 1239v-1044l349 522z" />
    <glyph glyph-name=".null" horiz-adv-x="0" 
 />
    <glyph glyph-name="nonmarkingreturn" horiz-adv-x="682" 
 />
    <glyph glyph-name="space" unicode=" " horiz-adv-x="323" 
 />
    <glyph glyph-name="exclam" unicode="!" horiz-adv-x="454" 
d="M319 420h-184l-26 960h237zM227 -16h-2q-54 0 -90.5 39.5t-36.5 99.5q0 63 37 103t92 40q57 0 93 -39.5t36 -103.5q0 -61 -35 -100t-94 -39z" />
    <glyph glyph-name="quotedbl" unicode="&#x22;" horiz-adv-x="657" 
d="M84 1401h182l-35 -508h-112zM393 1401h185l-37 -508h-113z" />
    <glyph glyph-name="numbersign" unicode="#" horiz-adv-x="835" 
d="M326 537h151l35 270h-154zM258 0h-131l51 403h-141v134h158l34 270h-147v131h166l49 393h129l-49 -393h151l52 393h129l-50 -393h138v-131h-156l-33 -270h148v-131h-164l-51 -406h-133l51 406h-150z" />
    <glyph glyph-name="dollar" unicode="$" horiz-adv-x="835" 
d="M479 -172h-147v207q-124 3 -223 59l38 172q103 -61 211 -61q81 0 124.5 46.5t43.5 121.5q0 72 -39.5 126.5t-126.5 106.5q-122 75 -184.5 154t-62.5 194q0 118 65.5 205.5t173.5 120.5v205h148v-187q118 -3 198 -53l-43 -168q-86 51 -176 51q-75 0 -117.5 -44t-42.5 -107
q0 -67 36.5 -109t142.5 -106q123 -73 178 -162.5t55 -204.5q0 -137 -69 -227t-183 -119v-221z" />
    <glyph glyph-name="percent" unicode="%" horiz-adv-x="1335" 
d="M311 1348h2q83 0 141.5 -58t84.5 -147t26 -199q0 -199 -74.5 -303t-181.5 -104q-81 0 -141 54.5t-89.5 144.5t-29.5 202q0 178 72 294t190 116zM307 1225h-2q-54 0 -79 -78.5t-25 -204.5q0 -285 108 -285q105 0 105 283q0 285 -107 285zM371 -23h-123l715 1377h120z
M1030 799h2q84 0 143 -58t85 -147t26 -199q0 -198 -75.5 -302.5t-182.5 -104.5q-81 0 -141 54.5t-89.5 144.5t-29.5 202q0 178 72 294t190 116zM1028 676h-2q-104 0 -104 -283q-1 -82 9 -144t34.5 -101t62.5 -39q105 0 105 282q0 285 -105 285z" />
    <glyph glyph-name="ampersand" unicode="&#x26;" horiz-adv-x="1048" 
d="M1028 0h-240q-29 39 -77 109q-55 -60 -133.5 -92.5t-163.5 -32.5q-114 0 -198.5 54t-125.5 140t-41 191q0 238 213 385v6q-100 142 -100 303q0 139 86.5 236.5t230.5 97.5q119 0 197 -80.5t78 -216.5q0 -106 -51.5 -194t-186.5 -181v-8q162 -245 232 -336q60 119 69 356
h189q-13 -141 -54.5 -272.5t-107.5 -218.5q16 -23 41 -56.5t68.5 -90.5t74.5 -99zM451 150h2q102 0 170 90q-124 160 -273 385q-42 -40 -70 -99.5t-28 -130.5q0 -103 53.5 -174t145.5 -71zM467 1245h-2q-51 0 -80 -48.5t-29 -123.5q0 -112 74 -227q139 109 139 244
q0 63 -24 109t-78 46z" />
    <glyph glyph-name="quotesingle" unicode="'" horiz-adv-x="348" 
d="M84 1401h182l-35 -508h-112z" />
    <glyph glyph-name="parenleft" unicode="(" horiz-adv-x="524" 
d="M322 1417h159q-215 -338 -215 -833q0 -485 215 -830h-159q-98 134 -165 345t-67 485q4 278 69.5 489t162.5 344z" />
    <glyph glyph-name="parenright" unicode=")" horiz-adv-x="524" 
d="M203 -246h-162q217 339 217 836q0 488 -217 827h162q99 -133 165 -341.5t66 -487.5q-4 -279 -69 -489t-162 -345z" />
    <glyph glyph-name="asterisk" unicode="*" horiz-adv-x="776" 
d="M502 1397l141 -80l-190 -242l2 -6l282 45v-158l-282 43l-2 -4l192 -233l-147 -84l-113 285l-4 -5l-121 -282l-131 82l190 246l-4 2l-276 -50v158l274 -43l4 4l-186 238l139 80l115 -277h6z" />
    <glyph glyph-name="plus" unicode="+" horiz-adv-x="1220" 
d="M537 1090h147v-472h455v-143h-455v-475h-147v475h-455v143h455v472z" />
    <glyph glyph-name="comma" unicode="," horiz-adv-x="442" 
d="M170 -242l-143 -14q41 112 77.5 256.5t51.5 257.5l231 21q-45 -144 -104 -289t-113 -232z" />
    <glyph glyph-name="hyphen" unicode="-" horiz-adv-x="548" 
d="M61 633h426v-162h-426v162z" />
    <glyph glyph-name="period" unicode="." horiz-adv-x="442" 
d="M231 -16h-2q-54 0 -91.5 42t-37.5 109q0 65 39 108.5t94 43.5q58 0 96 -41.5t38 -110.5t-37 -110t-99 -41z" />
    <glyph glyph-name="slash" unicode="/" horiz-adv-x="573" 
d="M131 -82h-149l462 1479h150z" />
    <glyph glyph-name="zero" unicode="0" horiz-adv-x="835" 
d="M428 1348q96 0 167 -53.5t111 -149.5t59 -214t19 -261q0 -343 -103 -514.5t-267 -171.5q-122 0 -205.5 91t-120.5 240.5t-37 346.5q0 317 97 501.5t280 184.5zM422 1161q-75 0 -113.5 -128.5t-38.5 -366.5q-3 -496 154 -496q141 0 141 496q0 495 -143 495z" />
    <glyph glyph-name="one" unicode="1" horiz-adv-x="835" 
d="M375 0v1120h-4l-224 -121l-38 170l294 162h187v-1331h-215z" />
    <glyph glyph-name="two" unicode="2" horiz-adv-x="835" 
d="M745 0h-688v145l123 162q67 88 100 133t85 125t77.5 134.5t45.5 124t20 132.5q0 96 -46 151.5t-132 55.5q-92 0 -197 -69l-43 168q47 34 121.5 60t157.5 26q94 0 164.5 -30.5t111.5 -84.5t60.5 -119.5t19.5 -142.5q0 -72 -19 -147t-46.5 -137t-73.5 -135t-84.5 -125
t-95.5 -124l-84 -106v-4h423v-193z" />
    <glyph glyph-name="three" unicode="3" horiz-adv-x="835" 
d="M53 43l37 174q86 -53 195 -53q101 0 158 60.5t57 164.5q0 116 -72 178t-186 62h-37v162h28q39 1 77.5 12.5t74 33.5t58 62t22.5 92q0 83 -44.5 129.5t-119.5 46.5q-85 0 -168 -57l-35 164q41 31 111.5 52.5t146.5 21.5q154 0 240 -90.5t86 -225.5q0 -100 -51.5 -180
t-143.5 -123v-4q101 -32 166.5 -119.5t65.5 -224.5q0 -79 -28 -150.5t-80 -126.5t-132 -87.5t-178 -32.5q-71 0 -138 16.5t-110 42.5z" />
    <glyph glyph-name="four" unicode="4" horiz-adv-x="835" 
d="M674 0h-195v340h-450v149l434 842h211v-815h139v-176h-139v-340zM221 516h258v320q0 68 13 237h-7q-44 -105 -102 -227l-162 -326v-4z" />
    <glyph glyph-name="five" unicode="5" horiz-adv-x="835" 
d="M719 1331v-190h-357l-40 -291q14 2 45 2q56 0 127 -25.5t122 -74.5q115 -109 115 -306q0 -199 -120 -330.5t-316 -131.5q-67 0 -134 15t-106 40l39 174q88 -49 189 -49q103 0 168 69t65 193q0 70 -23 122.5t-64 83t-93 45.5t-115 15q-59 0 -100 -6l80 645h518z" />
    <glyph glyph-name="six" unicode="6" horiz-adv-x="835" 
d="M694 1348v-181q-42 0 -104 -12q-251 -60 -318 -412h9q81 115 213 115t213 -111t81 -298q0 -93 -22.5 -175.5t-65 -148t-112 -103.5t-156.5 -38q-179 0 -279 149.5t-100 396.5q0 376 197 611q61 74 148.5 124t176.5 68q54 10 119 15zM430 145h2q66 0 102.5 77.5
t36.5 219.5q0 118 -38.5 187t-110.5 69q-41 0 -78 -28t-59 -84q-13 -30 -13 -101q1 -161 44.5 -250.5t113.5 -89.5z" />
    <glyph glyph-name="seven" unicode="7" horiz-adv-x="835" 
d="M78 1331h688v-139l-424 -1192h-213l414 1135v4h-465v192z" />
    <glyph glyph-name="eight" unicode="8" horiz-adv-x="835" 
d="M258 705l-2 4q-81 54 -124.5 133.5t-43.5 163.5q0 155 101 248.5t247 93.5q139 0 227.5 -93t88.5 -229q0 -83 -42 -163t-135 -140v-6q96 -56 152.5 -147t56.5 -205q0 -170 -105 -275.5t-267 -105.5q-164 0 -263.5 101.5t-99.5 252.5q0 225 209 367zM420 135
q68 0 110.5 58.5t42.5 158.5q0 174 -170 275q-65 -42 -103 -111t-38 -151q0 -100 42 -165t116 -65zM424 1196q-60 0 -94.5 -52t-34.5 -130q0 -141 145 -226q51 32 81 91t30 125q0 86 -32.5 139t-94.5 53z" />
    <glyph glyph-name="nine" unicode="9" horiz-adv-x="835" 
d="M145 -16v184q62 0 113 10q98 24 166 92q107 107 141 318h-6q-79 -96 -201 -96q-130 0 -216.5 109t-86.5 288q0 119 42.5 222t128.5 170t198 67q117 0 199 -71.5t120.5 -191.5t38.5 -278q0 -397 -200 -631q-120 -147 -318 -184q-43 -8 -119 -8zM412 1186h-2
q-59 0 -100 -72.5t-40 -208.5q2 -119 41.5 -188.5t108.5 -69.5q40 0 76 25.5t55 64.5q12 38 12 117q0 162 -41 247t-110 85z" />
    <glyph glyph-name="colon" unicode=":" horiz-adv-x="442" 
d="M231 690h-2q-53 0 -89 41.5t-36 104.5t37.5 105t91.5 42q58 0 93.5 -40t35.5 -107q0 -64 -35.5 -105t-95.5 -41zM231 -16h-2q-53 0 -89 40.5t-36 104.5q0 61 37.5 103t91.5 42q57 0 93 -39.5t36 -105.5q0 -65 -35 -105t-96 -40z" />
    <glyph glyph-name="semicolon" unicode=";" horiz-adv-x="442" 
d="M166 -242l-137 -14q39 111 75.5 255.5t53.5 258.5l223 21q-43 -141 -102 -287t-113 -234zM248 690h-2q-54 0 -90.5 41.5t-36.5 104.5t37.5 105t93.5 42t92.5 -40t36.5 -107q0 -64 -35.5 -105t-95.5 -41z" />
    <glyph glyph-name="less" unicode="&#x3c;" horiz-adv-x="1220" 
d="M125 487v115l971 488v-177l-756 -368v-4l756 -367v-174z" />
    <glyph glyph-name="equal" unicode="=" horiz-adv-x="1220" 
d="M1139 670h-1057v143h1057v-143zM1139 285h-1057v143h1057v-143z" />
    <glyph glyph-name="greater" unicode="&#x3e;" horiz-adv-x="1220" 
d="M1096 621v-152l-971 -469v172l803 371v4l-803 371v172z" />
    <glyph glyph-name="question" unicode="?" horiz-adv-x="661" 
d="M383 408h-186l-4 32q-25 172 98 367q39 65 55.5 96t31.5 77t15 91q0 69 -40 107.5t-107 38.5q-78 0 -133 -37l-39 168q32 22 94.5 39.5t128.5 17.5q70 0 126 -18t91.5 -47t59 -69t33 -81.5t9.5 -85.5q0 -24 -2.5 -46.5t-9.5 -46.5t-11.5 -42t-17.5 -43.5t-19 -38.5
t-23 -41t-22 -36.5t-25 -39t-23 -35.5q-47 -77 -66.5 -142t-13.5 -147v-38zM287 -16h-2q-56 0 -92.5 40t-36.5 101q0 63 38.5 103t92.5 42q58 0 94.5 -40t36.5 -105q0 -63 -35.5 -102t-95.5 -39z" />
    <glyph glyph-name="at" unicode="@" horiz-adv-x="1243" 
d="M713 477l53 281q-17 10 -55 10q-60 0 -115.5 -54.5t-89 -145.5t-33.5 -191q0 -121 76 -121q52 0 100 68t64 153zM856 -45l29 -80q-136 -80 -316 -80q-101 0 -190 38.5t-159 111.5t-111 190.5t-41 263.5q0 160 49 308.5t133.5 261t208 180.5t264.5 68q147 0 253 -71
t156 -185.5t50 -258.5q0 -272 -87 -420.5t-233 -148.5q-68 0 -103 43.5t-34 126.5h-4q-42 -85 -102.5 -127.5t-122.5 -42.5q-78 0 -125 62.5t-47 173.5q0 93 29.5 182.5t82.5 162.5t136 118t182 45q104 0 170 -37l-76 -394q-39 -213 51 -213q72 0 126 120t54 317
q0 212 -93 335t-281 123q-103 0 -200 -53.5t-171 -147.5t-119 -232.5t-45 -297.5q0 -250 116 -381t312 -131q137 0 258 70z" />
    <glyph glyph-name="A" unicode="A" horiz-adv-x="917" 
d="M590 360h-275l-73 -360h-213l307 1380h256l285 -1380h-213zM340 530h227l-57 318q-9 51 -27.5 166t-23.5 147h-6q-23 -155 -52 -313z" />
    <glyph glyph-name="B" unicode="B" horiz-adv-x="927" 
d="M121 4v1356q107 26 272 26q222 0 328 -96q98 -85 98 -246q0 -99 -53 -180t-152 -123v-6q119 -33 184.5 -123.5t65.5 -216.5q0 -164 -100 -272q-121 -133 -414 -133q-136 0 -229 14zM338 1212v-407h65q84 0 142.5 61t58.5 154q0 92 -46 146.5t-142 54.5q-51 0 -78 -9z
M338 641v-475q27 -6 70 -6q104 0 167.5 61t63.5 176t-69 178.5t-169 65.5h-63z" />
    <glyph glyph-name="C" unicode="C" horiz-adv-x="788" 
d="M729 207l27 -184q-72 -35 -203 -35q-235 0 -365.5 181.5t-130.5 502.5q0 153 31.5 277.5t83 205.5t121 136t142 78.5t149.5 23.5q117 0 180 -35l-41 -184q-61 26 -131 26q-59 0 -111 -28t-96 -86.5t-70 -161t-26 -238.5q0 -108 16 -194.5t43.5 -143.5t66.5 -95
t83.5 -54.5t95.5 -16.5q76 0 135 25z" />
    <glyph glyph-name="D" unicode="D" horiz-adv-x="962" 
d="M121 4v1356q102 26 246 26q233 0 356 -114q182 -161 182 -557q0 -411 -180 -584q-138 -141 -403 -141q-87 0 -201 14zM338 1204v-1030q18 -4 53 -4q47 0 88 16t78.5 56t64 101t42.5 156.5t16 217.5q0 238 -70 365.5t-209 127.5q-36 0 -63 -6z" />
    <glyph glyph-name="E" unicode="E" horiz-adv-x="770" 
d="M668 811v-182h-328v-439h373v-190h-592v1380h567v-190h-348v-379h328z" />
    <glyph glyph-name="F" unicode="F" horiz-adv-x="759" 
d="M121 0v1380h567v-190h-348v-412h326v-182h-326v-596h-219z" />
    <glyph glyph-name="G" unicode="G" horiz-adv-x="933" 
d="M848 750v-713q-46 -20 -123 -34.5t-145 -14.5q-222 0 -351 135q-83 86 -128 229.5t-44 325.5q1 150 33.5 272.5t86 203.5t126 136t150 79t161.5 24q136 0 213 -41l-43 -189q-61 33 -157 33q-55 0 -104 -16.5t-93 -55t-76 -97t-50.5 -148.5t-18.5 -203q0 -135 24 -235.5
t66 -157t90.5 -83t105.5 -26.5q54 0 74 10v387h-147v179h350z" />
    <glyph glyph-name="H" unicode="H" horiz-adv-x="1007" 
d="M121 1380h219v-571h328v571h219v-1380h-219v608h-328v-608h-219v1380z" />
    <glyph glyph-name="I" unicode="I" horiz-adv-x="462" 
d="M121 1380h219v-1380h-219v1380z" />
    <glyph glyph-name="J" unicode="J" horiz-adv-x="577" 
d="M254 410v970h219v-962q0 -104 -19 -182t-50.5 -125.5t-79 -76.5t-97 -39.5t-112.5 -10.5q-78 0 -121 16l18 184q31 -8 82 -8q38 0 64.5 9t49.5 33.5t34.5 72t11.5 119.5z" />
    <glyph glyph-name="K" unicode="K" horiz-adv-x="888" 
d="M121 0v1380h217v-637h6q13 29 37.5 88t38.5 87l217 462h240l-322 -596l330 -784h-240l-237 614l-70 -122v-492h-217z" />
    <glyph glyph-name="L" unicode="L" horiz-adv-x="745" 
d="M121 0v1380h219v-1196h369v-184h-588z" />
    <glyph glyph-name="M" unicode="M" horiz-adv-x="1269" 
d="M987 0l-26 532q-17 334 -15 496h-6q-39 -222 -96 -450l-144 -562h-149l-135 547q-60 226 -99 465h-6q-2 -180 -18 -502l-25 -526h-190l92 1380h231l134 -559q74 -308 104 -479h4q31 194 96 479l129 559h236l82 -1380h-199z" />
    <glyph glyph-name="N" unicode="N" horiz-adv-x="1009" 
d="M315 0h-194v1380h203l231 -589q134 -355 160 -437h4q-23 405 -23 637v389h193v-1380h-203l-233 588q-106 275 -150 438h-4q16 -320 16 -641v-385z" />
    <glyph glyph-name="O" unicode="O" horiz-adv-x="952" 
d="M489 1397q85 0 153.5 -36t115 -99t78 -151t45.5 -188t14 -214q0 -190 -32 -332t-90 -226.5t-134 -125.5t-170 -41q-134 0 -228 91t-139 248.5t-45 368.5q0 208 50 366t148.5 248.5t233.5 90.5zM479 1206q-50 0 -88 -39.5t-60.5 -110.5t-34 -163t-11.5 -203
q0 -116 11.5 -208.5t34.5 -162t61 -107.5t89 -38t88.5 42t58.5 117t30.5 165.5t9.5 199.5q0 101 -9 186t-29.5 160.5t-59 118.5t-91.5 43z" />
    <glyph glyph-name="P" unicode="P" horiz-adv-x="882" 
d="M121 0v1360q117 26 258 26q235 0 344 -104q111 -105 111 -295q0 -188 -103 -309q-59 -69 -149 -105t-183 -36h-61v-537h-217zM338 1198v-481q16 -4 53 -4q106 0 164.5 68.5t58.5 189.5q0 106 -48 171.5t-152 65.5q-46 0 -76 -10z" />
    <glyph glyph-name="Q" unicode="Q" horiz-adv-x="952" 
d="M944 -39l-78 -168q-163 65 -338 164q-46 27 -57 27q-192 0 -303 183.5t-111 524.5q0 207 50 365.5t149 249t236 90.5q85 0 153.5 -36t114.5 -99t77 -151t44.5 -188t13.5 -214q0 -263 -57 -423.5t-162 -215.5v-9q40 -17 85 -34t101.5 -37t81.5 -29zM479 174h2
q50 0 87.5 41.5t58.5 116t31 165.5t10 201q0 104 -9.5 190.5t-30.5 160t-59 115.5t-90 42q-50 0 -89 -42.5t-61.5 -115.5t-33.5 -163t-10 -191q-1 -108 9.5 -198.5t32.5 -164.5t60.5 -115.5t91.5 -41.5z" />
    <glyph glyph-name="R" unicode="R" horiz-adv-x="907" 
d="M121 0v1360q110 26 264 26q234 0 342 -100q104 -101 104 -280q0 -120 -56.5 -211t-160.5 -138v-4q71 -26 112 -96t62 -195q55 -299 86 -362h-227q-30 66 -72 336q-20 132 -62 184.5t-124 52.5h-51v-573h-217zM338 1206v-465h57q97 0 155 68.5t58 175.5q0 226 -196 229
q-50 0 -74 -8z" />
    <glyph glyph-name="S" unicode="S" horiz-adv-x="776" 
d="M53 45l37 188q39 -23 99.5 -39t113.5 -16q99 0 154 53t55 140q0 78 -43 132.5t-137 119.5q-120 76 -190 176t-70 209q0 167 107.5 276t295.5 109q61 0 118.5 -15t88.5 -35l-41 -188q-70 47 -170 47q-88 0 -136 -49.5t-48 -118.5q0 -76 41.5 -125t154.5 -121
q244 -161 244 -395q0 -184 -118 -294.5t-306 -110.5q-75 0 -145.5 17t-104.5 40z" />
    <glyph glyph-name="T" unicode="T" horiz-adv-x="770" 
d="M274 0v1180h-247v200h716v-200h-249v-1180h-220z" />
    <glyph glyph-name="U" unicode="U" horiz-adv-x="985" 
d="M115 1380h219v-909q0 -295 158 -295q76 0 116.5 67.5t40.5 227.5v909h219v-872q0 -263 -98 -393.5t-281 -130.5q-189 0 -281.5 128t-92.5 386v882z" />
    <glyph glyph-name="V" unicode="V" horiz-adv-x="897" 
d="M565 0h-237l-312 1380h240l115 -618q67 -380 82 -502h6q16 149 76 506l112 614h238z" />
    <glyph glyph-name="W" unicode="W" horiz-adv-x="1368" 
d="M496 0h-213l-250 1380h227l90 -602q25 -175 58 -491h6q5 50 11.5 99t16 103.5t16 90.5t19 103t17.5 97l110 600h180l107 -592q55 -304 74 -501h4q6 57 61 497l90 596h213l-254 -1380h-223l-104 551q-41 227 -64 453h-4q-39 -274 -76 -457z" />
    <glyph glyph-name="X" unicode="X" horiz-adv-x="819" 
d="M811 0h-227l-103 289q-37 99 -80 243h-6q-42 -151 -71 -247l-95 -285h-219l269 705l-259 675h228l100 -284q33 -97 70 -222h4q51 170 65 226l91 280h219l-262 -680z" />
    <glyph glyph-name="Y" unicode="Y" horiz-adv-x="815" 
d="M514 0h-219v553l-303 827h233l107 -336q42 -132 86 -303h4q24 127 80 310l98 329h227l-313 -819v-561z" />
    <glyph glyph-name="Z" unicode="Z" horiz-adv-x="765" 
d="M31 0v129l452 1057v4h-413v190h659v-157l-438 -1026v-7h436v-190h-696z" />
    <glyph glyph-name="bracketleft" unicode="[" horiz-adv-x="524" 
d="M469 -229h-344v1634h344v-143h-176v-1348h176v-143z" />
    <glyph glyph-name="backslash" unicode="\" horiz-adv-x="503" 
d="M522 -82h-149l-391 1479h149z" />
    <glyph glyph-name="bracketright" unicode="]" horiz-adv-x="524" 
d="M55 1405h344v-1634h-344v143h174v1348h-174v143z" />
    <glyph glyph-name="asciicircum" unicode="^" horiz-adv-x="1220" 
d="M1112 373h-172l-326 766h-10l-325 -766h-170l428 958h147z" />
    <glyph glyph-name="underscore" unicode="_" horiz-adv-x="1024" 
d="M0 -154h1024v-102h-1024v102z" />
    <glyph glyph-name="grave" unicode="`" 
d="M68 1405h202l148 -283h-139z" />
    <glyph glyph-name="a" unicode="a" horiz-adv-x="811" 
d="M709 625v-398q0 -148 12 -227h-197l-12 102h-4q-77 -118 -211 -118q-108 0 -180 83t-72 212q0 93 37 164.5t100 114.5t140.5 64.5t164.5 22.5v27q0 176 -149 176q-100 0 -186 -55l-41 149q44 28 118 50t156 22q93 0 158.5 -30t100.5 -85.5t50 -122t15 -151.5zM494 313
v187q-31 -1 -58.5 -4.5t-62.5 -16.5t-60 -33.5t-42 -57.5t-17 -87q0 -78 32.5 -116t75.5 -38q42 0 77 29.5t48 85.5q7 24 7 51z" />
    <glyph glyph-name="b" unicode="b" horiz-adv-x="870" 
d="M100 270v1147h217v-528h5q73 125 208 125q130 0 204.5 -135.5t74.5 -360.5q0 -255 -89.5 -394.5t-225.5 -139.5q-67 0 -114 34t-83 105h-6l-12 -123h-187q0 7 4 114t4 156zM317 633v-279q0 -27 9 -63q35 -127 116 -127q148 0 148 340q0 146 -36.5 234.5t-111.5 88.5
q-41 0 -74 -38.5t-42 -90.5q-9 -40 -9 -65z" />
    <glyph glyph-name="c" unicode="c" horiz-adv-x="641" 
d="M602 190l23 -170q-62 -32 -168 -32q-182 0 -289 131t-107 373q0 148 52 266t151 186t228 68q87 0 143 -29l-33 -174q-63 22 -106 22q-68 0 -117.5 -46.5t-73.5 -121t-24 -167.5q0 -153 57.5 -240.5t157.5 -87.5q63 0 106 22z" />
    <glyph glyph-name="d" unicode="d" horiz-adv-x="870" 
d="M553 1417h217v-1147q0 -118 8 -270h-188l-12 119h-7q-28 -58 -83 -96.5t-123 -38.5q-143 0 -223.5 140.5t-80.5 371.5q0 127 26 228t70.5 163t100 94.5t117.5 32.5q123 0 174 -109h4v512zM553 352v264q0 42 -4 62q-6 63 -38.5 106t-80.5 43q-53 0 -87.5 -47.5t-48 -119
t-13.5 -166.5q0 -152 38.5 -241t106.5 -89q86 0 119 123q8 24 8 65z" />
    <glyph glyph-name="e" unicode="e" horiz-adv-x="806" 
d="M743 440h-469q3 -284 224 -284q95 0 178 37l31 -158q-99 -47 -250 -47q-190 0 -293 130.5t-103 364.5q0 243 105 387t268 144q152 0 234 -125.5t82 -331.5q0 -23 -7 -117zM276 596h271q1 118 -34.5 186t-94.5 68q-44 0 -77 -40t-48 -95.5t-17 -118.5z" />
    <glyph glyph-name="f" unicode="f" horiz-adv-x="532" 
d="M360 0h-219v838h-129v159h129v50q0 194 97 296q85 91 221 91q78 0 145 -23l-29 -172q-35 14 -83 14q-70 0 -101 -56.5t-31 -145.5v-54h177v-159h-177v-838z" />
    <glyph glyph-name="g" unicode="g" horiz-adv-x="870" 
d="M772 684v-565q0 -171 -26 -266t-84 -154q-106 -109 -297 -109q-134 0 -238 48l45 169q84 -43 188 -43q99 0 147 66t48 205v78h-4q-26 -52 -75.5 -80.5t-108.5 -28.5q-98 0 -168 68.5t-103 176.5t-33 243q0 126 27 227.5t73 164.5t104 96.5t122 33.5q121 0 184 -123h5
l12 106h192q-10 -137 -10 -313zM555 365v278q0 39 -10 72q-29 112 -111 112q-75 0 -114 -90t-39 -239q0 -155 41.5 -237.5t107.5 -82.5q82 0 113 105q12 32 12 82z" />
    <glyph glyph-name="h" unicode="h" horiz-adv-x="888" 
d="M100 0v1417h219v-526h5q37 56 86 86q60 37 133 37q119 0 182 -97.5t63 -285.5v-631h-219v623q0 206 -114 206q-94 0 -127 -122q-9 -41 -9 -76v-631h-219z" />
    <glyph glyph-name="i" unicode="i" horiz-adv-x="419" 
d="M319 0h-219v997h219v-997zM209 1384q52 0 84.5 -34.5t32.5 -92.5q1 -55 -33 -89.5t-88 -34.5q-48 0 -81 35t-32 89q-1 57 32.5 92t84.5 35z" />
    <glyph glyph-name="j" unicode="j" horiz-adv-x="425" 
d="M-49 -410l-21 174q94 16 131 64q28 35 38 97.5t10 191.5v880h219v-929q0 -157 -28.5 -245.5t-90.5 -144.5q-48 -40 -120.5 -63t-137.5 -25zM219 1384q51 0 84 -35t33 -92q0 -55 -34 -89.5t-87 -34.5q-50 0 -83 34.5t-32 89.5q-1 57 33.5 92t85.5 35z" />
    <glyph glyph-name="k" unicode="k" horiz-adv-x="790" 
d="M317 1417v-868h5q9 26 51 127l159 321h238l-252 -417l268 -580h-243l-174 436l-52 -88v-348h-217v1417h217z" />
    <glyph glyph-name="l" unicode="l" horiz-adv-x="430" 
d="M100 0v1417h219v-1417h-219z" />
    <glyph glyph-name="m" unicode="m" horiz-adv-x="1337" 
d="M100 0v717q0 104 -8 280h191l12 -118h4q38 61 97.5 98t133.5 37q77 0 132 -37t81 -107h5q45 72 100 107q61 37 139 37q120 0 185 -93.5t65 -275.5v-645h-217v604q0 50 -4.5 87t-16 71t-35.5 51.5t-59 17.5q-42 0 -74 -30.5t-47 -85.5q-6 -30 -6 -80v-635h-219v637
q0 31 -2 55t-8.5 51.5t-18 45.5t-32.5 30t-49 12q-41 0 -74.5 -31.5t-46.5 -90.5q-11 -37 -11 -78v-631h-217z" />
    <glyph glyph-name="n" unicode="n" horiz-adv-x="888" 
d="M100 0v717q0 104 -8 280h191l10 -116h4q36 62 97.5 97.5t137.5 35.5q125 0 190.5 -93.5t65.5 -267.5v-653h-219v633q0 196 -116 196q-42 0 -75.5 -31.5t-47.5 -90.5q-11 -37 -11 -91v-616h-219z" />
    <glyph glyph-name="o" unicode="o" horiz-adv-x="839" 
d="M426 1014q160 0 255 -135t95 -377q0 -116 -23 -208t-59 -149t-84.5 -94.5t-95.5 -52t-96 -14.5q-163 0 -260 133t-97 379q0 130 30.5 232t82.5 163t116 92t136 31zM422 844q-42 0 -71.5 -32t-44 -87t-20 -109t-5.5 -116q0 -348 145 -348q39 0 66.5 32t41 86.5t19.5 110.5
t6 119q0 61 -6 116t-20 109.5t-42.5 86.5t-68.5 32z" />
    <glyph glyph-name="p" unicode="p" horiz-adv-x="870" 
d="M100 -393v1077q0 59 -1.5 116t-3.5 113.5t-3 83.5h191l12 -120h4q70 137 209 137q145 0 222 -141t77 -373q0 -130 -26 -231.5t-71 -162t-100 -91.5t-118 -31q-111 0 -170 104h-5v-481h-217zM317 627v-262q0 -42 11 -84q18 -65 48.5 -91t63.5 -26q53 0 88 48t48.5 120
t13.5 166q0 153 -37.5 241t-110.5 88q-40 0 -73.5 -38t-42.5 -89q-9 -34 -9 -73z" />
    <glyph glyph-name="q" unicode="q" horiz-adv-x="870" 
d="M553 -393v487h-6q-29 -50 -78.5 -80t-112.5 -30q-132 0 -212.5 137.5t-80.5 359.5q0 249 92.5 391t233.5 142q125 0 184 -125l5 -4l12 112h188q-1 -26 -3 -83t-3.5 -114.5t-1.5 -115.5v-1077h-217zM553 360v269q0 36 -6 63q-9 59 -42 97t-73 38q-75 0 -113 -89t-38 -242
q0 -151 38 -241.5t111 -90.5q36 0 67 28.5t48 94.5q8 31 8 73z" />
    <glyph glyph-name="r" unicode="r" horiz-adv-x="559" 
d="M100 0v717q0 54 -3.5 156t-4.5 124h191l12 -151h6q29 76 85 122t118 46q21 0 45 -4v-219q-12 4 -45 4q-59 0 -109 -46.5t-67 -125.5q-9 -37 -9 -97v-526h-219z" />
    <glyph glyph-name="s" unicode="s" horiz-adv-x="630" 
d="M41 45l43 162q31 -21 78.5 -37t93.5 -16q59 0 92 30t33 84q0 46 -26.5 82t-94.5 80q-203 122 -203 285q0 129 86 214t219 85q104 0 193 -49l-45 -162q-67 43 -137 43q-54 0 -83.5 -30.5t-29.5 -74.5q0 -40 24.5 -69.5t96.5 -75.5q203 -122 203 -301q0 -147 -91.5 -227
t-238.5 -80q-60 0 -120 15.5t-93 41.5z" />
    <glyph glyph-name="t" unicode="t" horiz-adv-x="585" 
d="M143 1169l219 76v-248h193v-159h-193v-516q0 -154 103 -154q33 0 67 6l5 -170q-53 -16 -144 -16q-115 0 -176 61q-38 38 -56 100.5t-18 169.5v519h-118v159h118v172z" />
    <glyph glyph-name="u" unicode="u" horiz-adv-x="876" 
d="M772 997v-708q0 -121 8 -289h-188l-14 104h-5q-33 -50 -91 -85t-132 -35q-134 0 -194 98.5t-60 298.5v616h217v-589q0 -242 117 -242q45 0 73.5 30.5t37.5 67.5q12 35 12 86v647h219z" />
    <glyph glyph-name="v" unicode="v" horiz-adv-x="765" 
d="M16 997h232l98 -497q23 -130 43 -262h4q7 51 41 262l96 497h218l-265 -997h-198z" />
    <glyph glyph-name="w" unicode="w" horiz-adv-x="1216" 
d="M16 997h234l72 -456q35 -232 43 -310h8q17 116 57 306l100 460h168l97 -448q42 -206 57 -318h6q8 96 43 314l76 452h217l-254 -997h-184l-92 408q-34 141 -54 307h-4q-18 -149 -57 -309l-100 -406h-187z" />
    <glyph glyph-name="x" unicode="x" horiz-adv-x="757" 
d="M20 997h238l74 -194q25 -65 57 -170h4q9 28 28 85t28 85l73 194h221l-231 -491l231 -506h-237l-80 205q-23 59 -55 160h-4q-9 -30 -29.5 -87t-26.5 -73l-73 -205h-222l230 498z" />
    <glyph glyph-name="y" unicode="y" horiz-adv-x="757" 
d="M16 997h234l115 -542q8 -40 19.5 -109.5t12.5 -75.5h4q9 57 33 181l98 546h216l-187 -712q-100 -407 -233 -568q-52 -64 -108 -102t-97 -53l-70 188q69 31 135 103q52 55 86 139q13 33 13 47q0 19 -6 37z" />
    <glyph glyph-name="z" unicode="z" horiz-adv-x="684" 
d="M35 0v135l276 522q75 129 88 156v4h-329v180h569v-147l-272 -508q-68 -121 -88 -158v-4h364v-180h-608z" />
    <glyph glyph-name="braceleft" unicode="{" horiz-adv-x="524" 
d="M37 520v137q139 0 139 129q0 58 -12 164q-12 114 -12 174q0 139 76.5 210t209.5 71h31v-139h-29q-116 -11 -116 -146q0 -32 10 -145q10 -117 10 -135q0 -106 -37.5 -165t-111.5 -83v-4q75 -23 112 -81t37 -167q0 -22 -10 -139q-10 -118 -10 -142q0 -69 26 -106t92 -43h27
v-139h-35q-127 0 -204.5 66.5t-77.5 213.5q0 60 12 174q12 110 12 168q0 51 -31.5 89t-107.5 38z" />
    <glyph glyph-name="bar" unicode="|" horiz-adv-x="430" 
d="M131 1536h168v-2048h-168v2048z" />
    <glyph glyph-name="braceright" unicode="}" horiz-adv-x="524" 
d="M485 657v-137q-75 0 -106 -38t-31 -89q0 -58 12 -168q13 -124 13 -174q0 -76 -22.5 -131.5t-62.5 -87t-89 -46.5t-109 -15h-37v139h29q65 6 91 43.5t26 105.5q0 36 -9 142q-10 117 -10 139q-1 108 37 166.5t113 81.5v4q-153 49 -150 248q0 18 10 135q9 101 9 145
q0 135 -115 146h-31v139h33q133 0 210 -71t77 -210q0 -50 -13 -174q-12 -106 -12 -164q0 -129 137 -129z" />
    <glyph glyph-name="asciitilde" unicode="~" horiz-adv-x="1220" 
d="M276 430h-145q-1 81 19 142.5t56.5 98t81.5 54.5t97 18q59 1 119.5 -22t148.5 -72q87 -49 127 -66.5t74 -17.5q95 0 92 166h144q7 -154 -54 -235.5t-178 -81.5q-63 0 -119 18.5t-147 69.5q-82 50 -130.5 71t-86.5 21q-99 0 -99 -164z" />
    <glyph glyph-name="uni00A0" unicode="&#xa0;" horiz-adv-x="323" 
 />
    <glyph glyph-name="exclamdown" unicode="&#xa1;" horiz-adv-x="454" 
d="M346 -389h-237l26 960h184zM227 1014h2q56 0 91.5 -40t35.5 -104q0 -62 -35 -100.5t-94 -38.5q-56 0 -92.5 39t-36.5 100q0 64 37 104t92 40z" />
    <glyph glyph-name="cent" unicode="&#xa2;" horiz-adv-x="835" 
d="M567 -14h-145v202q-128 26 -203 125q-100 121 -100 353q0 182 83 310.5t222 162.5v200h145v-188q86 -6 142 -35l-33 -170q-66 35 -148 35q-63 0 -108.5 -47.5t-65.5 -118.5t-20 -156q0 -142 56.5 -225.5t150.5 -83.5q85 0 155 33l21 -164q-59 -32 -152 -35v-198z" />
    <glyph glyph-name="sterling" unicode="&#xa3;" horiz-adv-x="835" 
d="M758 0h-688v137q78 33 132 129t54 195q0 82 -8 137h-164v150h139q-24 114 -24 215q0 170 97.5 277.5t254.5 107.5q102 0 166 -39l-39 -174q-54 28 -119 28q-74 0 -112.5 -53t-38.5 -135q0 -79 24 -227h213v-150h-192q13 -123 -15 -215q-30 -116 -112 -195v-4h432v-184z
" />
    <glyph glyph-name="currency" unicode="&#xa4;" horiz-adv-x="835" 
d="M418 1092h2q118 0 198 -80l130 153l98 -102l-156 -154q47 -97 47 -235q0 -142 -49 -240l156 -160l-99 -98l-133 154q-38 -38 -92 -59t-106 -21q-55 0 -108 20.5t-89 57.5l-127 -152l-98 98l149 152q-51 99 -51 238q0 144 55 245l-155 154l100 102l129 -155q39 38 93 60
t106 22zM416 934h-2q-67 0 -101 -71.5t-34 -194.5q0 -115 36.5 -188.5t98.5 -73.5q68 -1 101.5 70.5t33.5 193.5q0 113 -33.5 188.5t-99.5 75.5z" />
    <glyph glyph-name="yen" unicode="&#xa5;" horiz-adv-x="835" 
d="M514 0h-203v358h-260v117h260v135h-260v119h213l-244 602h218l120 -379q56 -178 64 -215h4q33 131 61 217l125 377h205l-254 -602h215v-119h-264v-135h264v-117h-264v-358z" />
    <glyph glyph-name="brokenbar" unicode="&#xa6;" horiz-adv-x="430" 
d="M131 356h168v-716h-168v716zM131 1380h168v-716h-168v716z" />
    <glyph glyph-name="section" unicode="&#xa7;" horiz-adv-x="854" 
d="M227 719v-2q0 -90 158 -160q119 -53 180 -100q29 18 46.5 56t17.5 79q0 49 -33.5 91.5t-95.5 70.5q-7 3 -48.5 22t-57 26t-43 22t-46.5 28q-36 -22 -57 -57t-21 -76zM702 1346l-38 -142q-76 47 -187 47q-65 0 -110 -30t-45 -88q0 -62 39.5 -96t134.5 -72
q69 -28 115.5 -54.5t90 -65t65 -91.5t21.5 -121q0 -145 -118 -254q25 -23 46 -69t21 -103q0 -145 -99 -227t-251 -82q-78 0 -152 18t-118 49l43 146q108 -68 229 -68q73 0 119.5 34t46.5 99q0 57 -45 97.5t-158 91.5q-68 31 -115.5 60t-88.5 67.5t-61.5 87t-20.5 108.5
q0 137 141 244q-68 68 -68 168q0 136 99.5 216.5t248.5 80.5q133 0 215 -51z" />
    <glyph glyph-name="dieresis" unicode="&#xa8;" 
d="M135 1153h-2q-44 0 -75 32t-31 81t31.5 80.5t76.5 31.5q46 0 76.5 -31t30.5 -81q0 -49 -30.5 -81t-76.5 -32zM479 1153h-2q-45 0 -75.5 32t-30.5 81t31.5 80.5t76.5 31.5t76 -31t31 -81q0 -49 -30.5 -81t-76.5 -32z" />
    <glyph glyph-name="copyright" unicode="&#xa9;" horiz-adv-x="1386" 
d="M696 1327h2q128 0 243.5 -50t198.5 -134.5t132 -201.5t49 -245q0 -173 -82.5 -319t-226.5 -231t-316 -85q-173 0 -318 85t-228.5 231t-83.5 319q0 128 49.5 245t133.5 201.5t200.5 134.5t246.5 50zM694 1227h-2q-140 0 -257 -71.5t-184 -194.5t-67 -269q0 -145 67 -266.5
t184.5 -192t258.5 -71.5q213 -1 360.5 154t147.5 378q0 145 -67 267.5t-184 194t-257 71.5zM971 1014l-27 -99q-104 43 -194 43q-128 0 -200.5 -73.5t-72.5 -196.5q0 -119 72 -193.5t196 -74.5q114 0 199 45l27 -94q-102 -58 -248 -58q-172 0 -272.5 105.5t-100.5 265.5
q0 173 114.5 277t287.5 104q67 0 131 -17t88 -34z" />
    <glyph glyph-name="ordfeminine" unicode="&#xaa;" horiz-adv-x="591" 
d="M526 539h-125l-10 69h-4q-55 -80 -151 -80q-75 0 -125 53t-50 142q0 61 25.5 108t70.5 75t100.5 42t119.5 15v18q0 45 -28.5 73.5t-86.5 28.5q-72 0 -131 -39l-27 107q79 53 185 53q63 0 109 -21t71.5 -58.5t37 -83t11.5 -101.5v-248q0 -90 8 -153zM379 735v125
q-28 0 -55.5 -5t-57.5 -17t-48.5 -38t-18.5 -63q0 -42 25 -67t59 -25q56 0 82 51q14 23 14 39z" />
    <glyph glyph-name="guillemotleft" unicode="&#xab;" horiz-adv-x="757" 
d="M418 885l-217 -369l217 -369h-164l-213 369l213 369h164zM731 885l-217 -369l217 -369h-166l-213 369l215 369h164z" />
    <glyph glyph-name="logicalnot" unicode="&#xac;" horiz-adv-x="1220" 
d="M82 842h1057v-613h-146v469h-911v144z" />
    <glyph glyph-name="uni00AD" unicode="&#xad;" horiz-adv-x="595" 
d="M61 633h426v-162h-426v162z" />
    <glyph glyph-name="registered" unicode="&#xae;" horiz-adv-x="763" 
d="M336 1034v-119h-76v312q57 10 119 10q69 0 110 -25q31 -21 31 -67q0 -24 -18 -43.5t-47 -28.5v-4q42 -14 57 -78q12 -54 23 -76h-84q-11 13 -25 72q-5 25 -18 36t-39 11h-33zM340 1174v-80h29q65 0 65 41t-59 41q-9 0 -21 -1t-14 -1zM383 1401h2q134 0 228 -94.5
t94 -229.5q0 -136 -94.5 -230.5t-229.5 -94.5q-137 0 -231.5 94.5t-94.5 230.5q0 135 95 229.5t231 94.5zM381 1327h-2q-99 0 -166.5 -73t-67.5 -177q0 -106 68 -179t170 -73q100 -1 167.5 72t67.5 180q0 104 -67.5 177t-169.5 73z" />
    <glyph glyph-name="macron" unicode="&#xaf;" 
d="M98 1321h420v-131h-420v131z" />
    <glyph glyph-name="degree" unicode="&#xb0;" horiz-adv-x="581" 
d="M305 1401h2q108 0 177 -73.5t69 -178.5q0 -114 -77.5 -186t-174.5 -72q-106 0 -176 71t-70 177q0 109 75 185.5t175 76.5zM303 1305h-2q-56 0 -96.5 -48.5t-40.5 -115.5q0 -65 41.5 -110.5t99.5 -45.5q59 0 99 45.5t40 112.5t-38 114.5t-103 47.5z" />
    <glyph glyph-name="plusminus" unicode="&#xb1;" horiz-adv-x="1220" 
d="M537 1161h147v-373h455v-143h-455v-383h-147v383h-455v143h455v373zM82 143h1057v-143h-1057v143z" />
    <glyph glyph-name="two.superior" unicode="&#xb2;" horiz-adv-x="534" 
d="M10 854v86l90 111q8 10 34 42t34.5 43t30.5 39t30.5 41.5t24.5 38t23 40t15.5 36t11.5 38.5t3 36q0 62 -30 91.5t-82 29.5q-69 0 -132 -51l-38 118q34 29 90.5 49.5t122.5 20.5q124 0 182.5 -65t58.5 -160q0 -53 -17.5 -105.5t-55 -106.5t-64.5 -86t-76 -87l-47 -56v-6
h270v-137h-479z" />
    <glyph glyph-name="three.superior" unicode="&#xb3;" horiz-adv-x="509" 
d="M68 1499l-29 113q81 51 188 51q109 0 166.5 -55.5t57.5 -134.5q0 -63 -34.5 -110.5t-97.5 -74.5v-4q63 -13 109.5 -67t46.5 -127q0 -107 -81 -176.5t-216 -69.5q-106 0 -170 41l27 121q64 -37 139 -37q57 0 95 33.5t38 89.5q0 65 -45.5 100t-120.5 35h-20v108h14
q57 0 106.5 28.5t49.5 82.5q0 44 -26.5 68t-71.5 24q-66 0 -125 -39z" />
    <glyph glyph-name="acute" unicode="&#xb4;" 
d="M367 1405h202l-211 -283h-139z" />
    <glyph glyph-name="mu" unicode="&#xb5;" horiz-adv-x="878" 
d="M600 100h-6q-19 -40 -64 -72t-98 -32q-82 0 -123 59v-110q0 -223 21 -338h-201q-29 89 -29 350v1040h219v-643q0 -192 111 -192q48 0 76.5 30t40.5 68q12 34 12 90v647h217v-741q0 -60 14.5 -85t53.5 -24l-21 -155q-21 -8 -69 -8q-115 0 -154 116z" />
    <glyph glyph-name="paragraph" unicode="&#xb6;" horiz-adv-x="854" 
d="M487 -102h-127v653h-14q-26 0 -59.5 11.5t-73.5 40t-74 68.5t-58.5 105t-29.5 142q-5 91 21.5 172t82.5 147t152.5 104.5t222.5 38.5q118 0 203 -14v-1468h-125v1353h-121v-1353z" />
    <glyph glyph-name="periodcentered" unicode="&#xb7;" horiz-adv-x="442" 
d="M221 393h-2q-56 0 -93.5 41.5t-37.5 108.5q0 63 39.5 106t93.5 43q58 0 95.5 -40.5t37.5 -108.5q0 -69 -36.5 -109.5t-96.5 -40.5z" />
    <glyph glyph-name="cedilla" unicode="&#xb8;" 
d="M281 10h122l-55 -106q56 -8 96.5 -49t40.5 -99q0 -86 -61 -128t-148 -42q-84 0 -147 37l37 103q57 -31 104 -31q70 0 70 55q0 35 -36.5 56.5t-102.5 27.5z" />
    <glyph glyph-name="one.superior" unicode="&#xb9;" horiz-adv-x="464" 
d="M360 854h-159v653h-4l-148 -73l-29 120l199 99h141v-799z" />
    <glyph glyph-name="ordmasculine" unicode="&#xba;" horiz-adv-x="628" 
d="M315 1204h2q117 0 179.5 -88t62.5 -248q0 -94 -22.5 -163t-59.5 -106t-78 -54t-86 -17q-115 0 -182.5 88t-67.5 248q0 163 72.5 251.5t179.5 88.5zM311 1085h-2q-27 0 -47 -22t-30 -57.5t-14.5 -70.5t-4.5 -69q0 -93 23.5 -156t74.5 -63q99 0 99 219q0 40 -4 75
t-14.5 69.5t-31 54.5t-49.5 20z" />
    <glyph glyph-name="guillemotright" unicode="&#xbb;" horiz-adv-x="757" 
d="M244 516l-217 369h161l215 -369l-210 -369h-166zM557 516l-219 369h164l215 -369l-213 -369h-166z" />
    <glyph glyph-name="onequarter" unicode="&#xbc;" horiz-adv-x="1316" 
d="M389 539h-162v653h-4l-147 -74l-29 121l199 98h143v-798zM352 -16h-123l709 1364h121zM1161 0h-147v199h-303v100l290 504h160v-484h90v-120h-90v-199zM1014 319v173q0 36 6 141h-4q-9 -17 -27.5 -57.5t-32.5 -65.5l-102 -186v-5h160z" />
    <glyph glyph-name="onehalf" unicode="&#xbd;" horiz-adv-x="1316" 
d="M362 539h-161v653h-4l-146 -74l-31 121l199 98h143v-798zM301 -16h-123l707 1364h121zM762 0v86l90 111q10 12 37.5 47t38 48.5t33.5 43.5t32.5 46t25 42t21.5 44.5t11.5 40.5t5.5 42q0 61 -30.5 91t-80.5 30q-70 0 -133 -51l-37 118q32 29 89 49.5t124 20.5
q123 0 182.5 -65t59.5 -160q0 -53 -18 -105.5t-55 -106t-65 -87t-77 -86.5l-47 -56v-6h272v-137h-479z" />
    <glyph glyph-name="threequarters" unicode="&#xbe;" horiz-adv-x="1316" 
d="M115 1184l-27 112q79 52 186 52q110 0 168 -56t58 -135q0 -128 -131 -184v-4q63 -13 108 -67t45 -128q0 -107 -80 -176.5t-215 -69.5q-105 0 -172 41l29 121q64 -37 139 -37q57 0 94 33.5t37 89.5q0 64 -45 99.5t-119 35.5h-20v109h14q57 0 106.5 28t49.5 82
q0 44 -27.5 68.5t-72.5 24.5q-62 0 -125 -39zM387 -16h-123l707 1364h121zM1169 0h-147v199h-301v100l291 504h157v-484h91v-120h-91v-199zM1022 319v173q0 71 8 141h-4q-8 -16 -27.5 -56.5t-33.5 -66.5l-103 -186v-5h160z" />
    <glyph glyph-name="questiondown" unicode="&#xbf;" horiz-adv-x="661" 
d="M377 1014h2q56 0 92.5 -40.5t36.5 -105.5q0 -62 -35 -101.5t-94 -39.5q-58 0 -95.5 39.5t-37.5 101.5q0 65 37.5 105.5t93.5 40.5zM279 588h186l4 -33q25 -172 -98 -367q-40 -66 -56 -96t-31.5 -77t-15.5 -91q0 -69 40.5 -107t107.5 -38q73 0 133 37l39 -168
q-33 -23 -95 -40.5t-128 -17.5q-87 0 -151.5 26.5t-100 71.5t-52 96t-16.5 107q0 26 4.5 54t9 48.5t17.5 50.5t19 44t25 46.5t24.5 41t28.5 44.5t26 40q47 77 66.5 142t13.5 147v39z" />
    <glyph glyph-name="Agrave" unicode="&#xc0;" horiz-adv-x="917" 
d="M590 360h-275l-73 -360h-213l307 1380h256l285 -1380h-213zM340 530h227l-57 318q-9 51 -27.5 166t-23.5 147h-6q-23 -155 -52 -313zM174 1681h234l180 -227h-162z" />
    <glyph glyph-name="Aacute" unicode="&#xc1;" horiz-adv-x="917" 
d="M590 360h-275l-73 -360h-213l307 1380h256l285 -1380h-213zM340 530h227l-57 318q-9 51 -27.5 166t-23.5 147h-6q-23 -155 -52 -313zM530 1681h234l-252 -227h-162z" />
    <glyph glyph-name="Acircumflex" unicode="&#xc2;" horiz-adv-x="917" 
d="M590 360h-275l-73 -360h-213l307 1380h256l285 -1380h-213zM340 530h227l-57 318q-9 51 -27.5 166t-23.5 147h-6q-23 -155 -52 -313zM375 1667h176l176 -213h-172l-90 109h-4l-92 -109h-166z" />
    <glyph glyph-name="Atilde" unicode="&#xc3;" horiz-adv-x="917" 
d="M590 360h-275l-73 -360h-213l307 1380h256l285 -1380h-213zM340 530h227l-57 318q-9 51 -27.5 166t-23.5 147h-6q-23 -155 -52 -313zM344 1470h-104q-3 101 32 159.5t97 58.5q39 0 102 -35q5 -3 16.5 -10.5t17 -10.5t14 -7.5t16 -6.5t14.5 -2q23 0 35 17t16 59h102
q6 -211 -135 -211q-50 0 -104 32q-3 2 -13.5 8.5t-13.5 8.5t-11 6t-12.5 5.5t-11 3t-12.5 1.5q-39 0 -45 -76z" />
    <glyph glyph-name="Adieresis" unicode="&#xc4;" horiz-adv-x="917" 
d="M590 360h-275l-73 -360h-213l307 1380h256l285 -1380h-213zM340 530h227l-57 318q-9 51 -27.5 166t-23.5 147h-6q-23 -155 -52 -313zM291 1464h-2q-42 0 -72.5 33t-30.5 82t31 82t74 33q46 0 76 -32.5t30 -82.5t-30 -82.5t-76 -32.5zM649 1464h-2q-45 0 -75.5 33
t-30.5 82t31.5 82t76.5 33q44 0 74.5 -33t30.5 -82t-30.5 -82t-74.5 -33z" />
    <glyph glyph-name="Aring" unicode="&#xc5;" horiz-adv-x="917" 
d="M590 360h-275l-73 -360h-213l307 1380h256l285 -1380h-213zM340 530h227l-57 318q-9 51 -27.5 166t-23.5 147h-6q-23 -155 -52 -313zM463 1798h2q98 0 150.5 -53t52.5 -131q0 -77 -54.5 -130.5t-150.5 -53.5q-98 0 -151.5 52.5t-53.5 127.5q0 77 54.5 132.5t150.5 55.5z
M461 1712h-2q-39 0 -60.5 -31t-21.5 -71q0 -36 22 -64t62 -28q42 0 64 27.5t22 68.5q0 40 -22 69t-64 29z" />
    <glyph glyph-name="AE" unicode="&#xc6;" horiz-adv-x="1183" 
d="M213 0h-215l418 1380h694v-190h-371l23 -395h340v-183h-324l25 -422h350l-2 -190h-541l-24 412h-264zM365 584h202l-16 377q-2 37 -7 128t-7 140h-9q-12 -53 -77 -311z" />
    <glyph glyph-name="Ccedilla" unicode="&#xc7;" horiz-adv-x="817" 
d="M729 207l27 -184q-69 -32 -176 -35l-43 -82q56 -10 95.5 -50.5t39.5 -97.5q0 -87 -61 -129.5t-148 -42.5q-78 0 -146 37l35 103q53 -29 107 -29q69 0 69 55q0 34 -38 55t-103 27l76 162q-196 35 -301 208t-105 468q0 153 31.5 277.5t83 205.5t121 136t142 78.5
t149.5 23.5q117 0 180 -35l-41 -184q-61 26 -131 26q-59 0 -111 -28t-96 -86.5t-70 -161t-26 -238.5q0 -108 16 -194.5t43.5 -143.5t66.5 -95t83.5 -54.5t95.5 -16.5q76 0 135 25z" />
    <glyph glyph-name="Egrave" unicode="&#xc8;" horiz-adv-x="770" 
d="M668 811v-182h-328v-439h373v-190h-592v1380h567v-190h-348v-379h328zM123 1681h233l181 -227h-162z" />
    <glyph glyph-name="Eacute" unicode="&#xc9;" horiz-adv-x="770" 
d="M668 811v-182h-328v-439h373v-190h-592v1380h567v-190h-348v-379h328zM487 1681h234l-252 -227h-162z" />
    <glyph glyph-name="Ecircumflex" unicode="&#xca;" horiz-adv-x="770" 
d="M668 811v-182h-328v-439h373v-190h-592v1380h567v-190h-348v-379h328zM319 1667h177l176 -213h-172l-90 109h-4l-93 -109h-166z" />
    <glyph glyph-name="Edieresis" unicode="&#xcb;" horiz-adv-x="770" 
d="M668 811v-182h-328v-439h373v-190h-592v1380h567v-190h-348v-379h328zM229 1473h-2q-42 0 -72 32.5t-30 81.5t30.5 82t73.5 33q46 0 76.5 -33t30.5 -82t-30.5 -81.5t-76.5 -32.5zM588 1473h-2q-45 0 -76 32.5t-31 81.5t32 82t77 33q44 0 74 -33t30 -82t-30 -81.5
t-74 -32.5z" />
    <glyph glyph-name="Igrave" unicode="&#xcc;" horiz-adv-x="462" 
d="M121 1380h219v-1380h-219v1380zM-72 1681h234l180 -227h-162z" />
    <glyph glyph-name="Iacute" unicode="&#xcd;" horiz-adv-x="462" 
d="M121 1380h219v-1380h-219v1380zM291 1681h233l-252 -227h-161z" />
    <glyph glyph-name="Icircumflex" unicode="&#xce;" horiz-adv-x="462" 
d="M121 1380h219v-1380h-219v1380zM141 1667h176l177 -213h-172l-91 109h-4l-92 -109h-166z" />
    <glyph glyph-name="Idieresis" unicode="&#xcf;" horiz-adv-x="462" 
d="M121 1380h219v-1380h-219v1380zM51 1473h-2q-42 0 -72 32.5t-30 81.5t30.5 82t73.5 33q46 0 76.5 -33t30.5 -82t-30.5 -81.5t-76.5 -32.5zM410 1473h-2q-45 0 -76 32.5t-31 81.5t32 82t77 33q44 0 74 -33t30 -82t-30 -81.5t-74 -32.5z" />
    <glyph glyph-name="Eth" unicode="&#xd0;" horiz-adv-x="972" 
d="M0 639v156h131v565q102 26 246 26q233 0 356 -114q182 -161 182 -559q0 -413 -180 -586q-133 -139 -401 -139q-117 0 -203 14v637h-131zM526 795v-156h-178v-467q18 -4 55 -4q60 0 109 27.5t90.5 88t64.5 171t23 262.5q0 239 -69 366t-209 127q-34 0 -64 -6v-409h178z
" />
    <glyph glyph-name="Ntilde" unicode="&#xd1;" horiz-adv-x="1009" 
d="M315 0h-194v1380h203l231 -589q134 -355 160 -437h4q-23 405 -23 637v389h193v-1380h-203l-233 588q-106 275 -150 438h-4q16 -320 16 -641v-385zM385 1470h-104q-3 101 32 159.5t97 58.5q39 0 102 -35q5 -3 16.5 -10.5t17 -10.5t14 -7.5t16 -6.5t14.5 -2q24 0 35.5 17
t15.5 59h102q6 -211 -135 -211q-50 0 -104 32q-3 2 -13.5 8.5t-13.5 8.5t-11 6t-12.5 5.5t-11 3t-12.5 1.5q-39 0 -45 -76z" />
    <glyph glyph-name="Ograve" unicode="&#xd2;" horiz-adv-x="952" 
d="M489 1397q85 0 153.5 -36t115 -99t78 -151t45.5 -188t14 -214q0 -190 -32 -332t-90 -226.5t-134 -125.5t-170 -41q-134 0 -228 91t-139 248.5t-45 368.5q0 208 50 366t148.5 248.5t233.5 90.5zM479 1206q-50 0 -88 -39.5t-60.5 -110.5t-34 -163t-11.5 -203
q0 -116 11.5 -208.5t34.5 -162t61 -107.5t89 -38t88.5 42t58.5 117t30.5 165.5t9.5 199.5q0 101 -9 186t-29.5 160.5t-59 118.5t-91.5 43zM180 1681h234l180 -227h-162z" />
    <glyph glyph-name="Oacute" unicode="&#xd3;" horiz-adv-x="952" 
d="M489 1397q85 0 153.5 -36t115 -99t78 -151t45.5 -188t14 -214q0 -190 -32 -332t-90 -226.5t-134 -125.5t-170 -41q-134 0 -228 91t-139 248.5t-45 368.5q0 208 50 366t148.5 248.5t233.5 90.5zM479 1206q-50 0 -88 -39.5t-60.5 -110.5t-34 -163t-11.5 -203
q0 -116 11.5 -208.5t34.5 -162t61 -107.5t89 -38t88.5 42t58.5 117t30.5 165.5t9.5 199.5q0 101 -9 186t-29.5 160.5t-59 118.5t-91.5 43zM549 1681h233l-252 -227h-161z" />
    <glyph glyph-name="Ocircumflex" unicode="&#xd4;" horiz-adv-x="952" 
d="M489 1397q85 0 153.5 -36t115 -99t78 -151t45.5 -188t14 -214q0 -190 -32 -332t-90 -226.5t-134 -125.5t-170 -41q-134 0 -228 91t-139 248.5t-45 368.5q0 208 50 366t148.5 248.5t233.5 90.5zM479 1206q-50 0 -88 -39.5t-60.5 -110.5t-34 -163t-11.5 -203
q0 -116 11.5 -208.5t34.5 -162t61 -107.5t89 -38t88.5 42t58.5 117t30.5 165.5t9.5 199.5q0 101 -9 186t-29.5 160.5t-59 118.5t-91.5 43zM387 1667h176l176 -213h-172l-90 109h-4l-92 -109h-166z" />
    <glyph glyph-name="Otilde" unicode="&#xd5;" horiz-adv-x="952" 
d="M489 1397q85 0 153.5 -36t115 -99t78 -151t45.5 -188t14 -214q0 -190 -32 -332t-90 -226.5t-134 -125.5t-170 -41q-134 0 -228 91t-139 248.5t-45 368.5q0 208 50 366t148.5 248.5t233.5 90.5zM479 1206q-50 0 -88 -39.5t-60.5 -110.5t-34 -163t-11.5 -203
q0 -116 11.5 -208.5t34.5 -162t61 -107.5t89 -38t88.5 42t58.5 117t30.5 165.5t9.5 199.5q0 101 -9 186t-29.5 160.5t-59 118.5t-91.5 43zM348 1464h-104q-3 101 32 159t97 58q40 0 102 -34q5 -3 16.5 -10.5t17 -10.5t14 -7.5t16 -6.5t14.5 -2q23 0 35 17t16 59h103
q6 -211 -136 -211q-50 0 -104 32q-3 2 -13.5 8.5t-13.5 8.5t-11 6t-12.5 5.5t-11 3t-12.5 1.5q-39 0 -45 -76z" />
    <glyph glyph-name="Odieresis" unicode="&#xd6;" horiz-adv-x="952" 
d="M489 1397q85 0 153.5 -36t115 -99t78 -151t45.5 -188t14 -214q0 -190 -32 -332t-90 -226.5t-134 -125.5t-170 -41q-134 0 -228 91t-139 248.5t-45 368.5q0 208 50 366t148.5 248.5t233.5 90.5zM479 1206q-50 0 -88 -39.5t-60.5 -110.5t-34 -163t-11.5 -203
q0 -116 11.5 -208.5t34.5 -162t61 -107.5t89 -38t88.5 42t58.5 117t30.5 165.5t9.5 199.5q0 101 -9 186t-29.5 160.5t-59 118.5t-91.5 43zM295 1473h-2q-42 0 -72.5 32.5t-30.5 81.5t31 82t74 33q46 0 76 -32.5t30 -82.5q0 -49 -30 -81.5t-76 -32.5zM653 1473h-2
q-45 0 -75.5 32.5t-30.5 81.5t31.5 82t76.5 33q44 0 74.5 -33t30.5 -82t-30 -81.5t-75 -32.5z" />
    <glyph glyph-name="multiply" unicode="&#xd7;" horiz-adv-x="1220" 
d="M82 973l96 104l432 -438l430 438l99 -104l-428 -434l426 -433l-101 -106l-426 436l-428 -436l-100 106l426 433z" />
    <glyph glyph-name="Oslash" unicode="&#xd8;" horiz-adv-x="952" 
d="M199 -92l-113 63l86 195q-115 183 -115 526q0 206 49.5 364.5t146 249.5t226.5 91q115 0 203 -68l61 144l121 -52l-84 -190q115 -182 115 -522q0 -189 -31.5 -331t-88.5 -226.5t-131.5 -126t-166.5 -41.5q-126 0 -209 75zM299 422l297 713q-48 71 -117 71
q-68 0 -115 -67.5t-69.5 -181t-22.5 -263.5q0 -164 23 -272h4zM653 967l-303 -709q43 -84 129 -84q52 0 91 39t62.5 110.5t35.5 165.5t12 209q0 164 -23 267z" />
    <glyph glyph-name="Ugrave" unicode="&#xd9;" horiz-adv-x="985" 
d="M115 1380h219v-909q0 -295 158 -295q76 0 116.5 67.5t40.5 227.5v909h219v-872q0 -263 -98 -393.5t-281 -130.5q-189 0 -281.5 128t-92.5 386v882zM195 1681h233l180 -227h-162z" />
    <glyph glyph-name="Uacute" unicode="&#xda;" horiz-adv-x="985" 
d="M115 1380h219v-909q0 -295 158 -295q76 0 116.5 67.5t40.5 227.5v909h219v-872q0 -263 -98 -393.5t-281 -130.5q-189 0 -281.5 128t-92.5 386v882zM551 1681h233l-252 -227h-161z" />
    <glyph glyph-name="Ucircumflex" unicode="&#xdb;" horiz-adv-x="985" 
d="M115 1380h219v-909q0 -295 158 -295q76 0 116.5 67.5t40.5 227.5v909h219v-872q0 -263 -98 -393.5t-281 -130.5q-189 0 -281.5 128t-92.5 386v882zM408 1667h176l176 -213h-172l-90 109h-4l-93 -109h-165z" />
    <glyph glyph-name="Udieresis" unicode="&#xdc;" horiz-adv-x="985" 
d="M115 1380h219v-909q0 -295 158 -295q76 0 116.5 67.5t40.5 227.5v909h219v-872q0 -263 -98 -393.5t-281 -130.5q-189 0 -281.5 128t-92.5 386v882zM311 1473h-2q-42 0 -72 32.5t-30 81.5t30.5 82t73.5 33q46 0 76.5 -33t30.5 -82t-30.5 -81.5t-76.5 -32.5zM670 1473h-2
q-45 0 -76 32.5t-31 81.5t32 82t77 33q44 0 74 -33t30 -82t-30 -81.5t-74 -32.5z" />
    <glyph glyph-name="Yacute" unicode="&#xdd;" horiz-adv-x="815" 
d="M514 0h-219v553l-303 827h233l107 -336q42 -132 86 -303h4q24 127 80 310l98 329h227l-313 -819v-561zM492 1681h233l-252 -227h-162z" />
    <glyph glyph-name="Thorn" unicode="&#xde;" horiz-adv-x="876" 
d="M121 0v1380h215v-254q44 7 92 7q184 0 289 -97q110 -102 110 -293q0 -113 -36.5 -200.5t-97 -137.5t-132 -75t-149.5 -25q-49 0 -76 6v-311h-215zM336 948v-454q24 -9 63 -9q100 0 157.5 66t57.5 176q0 227 -202 227q-46 0 -76 -6z" />
    <glyph glyph-name="germandbls" unicode="&#xdf;" horiz-adv-x="950" 
d="M319 0h-219v901q0 160 33 261t100 165q110 107 279 107q154 0 246 -92t92 -244q0 -45 -13.5 -90.5t-35.5 -71.5q-54 -25 -85.5 -65.5t-31.5 -86.5q0 -42 19.5 -77t64.5 -86q71 -78 102 -150t31 -164q0 -148 -97 -235.5t-241 -87.5q-100 0 -168 28l29 168q49 -24 129 -24
q66 0 103.5 38t37.5 95q0 52 -23 94t-73 102q-62 73 -91.5 130.5t-29.5 134.5q0 76 42 141t108 98q16 38 16 98q0 85 -43.5 127.5t-103.5 42.5q-177 0 -177 -348v-909z" />
    <glyph glyph-name="agrave" unicode="&#xe0;" horiz-adv-x="811" 
d="M139 1405h203l147 -283h-139zM709 625v-398q0 -148 12 -227h-197l-12 102h-4q-77 -118 -211 -118q-108 0 -180 83t-72 212q0 93 37 164.5t100 114.5t140.5 64.5t164.5 22.5v27q0 176 -149 176q-100 0 -186 -55l-41 149q44 28 118 50t156 22q93 0 158.5 -30t100.5 -85.5
t50 -122t15 -151.5zM494 313v187q-31 -1 -58.5 -4.5t-62.5 -16.5t-60 -33.5t-42 -57.5t-17 -87q0 -78 32.5 -116t75.5 -38q42 0 77 29.5t48 85.5q7 24 7 51z" />
    <glyph glyph-name="aacute" unicode="&#xe1;" horiz-adv-x="811" 
d="M459 1405h203l-211 -283h-140zM709 625v-398q0 -148 12 -227h-197l-12 102h-4q-77 -118 -211 -118q-108 0 -180 83t-72 212q0 93 37 164.5t100 114.5t140.5 64.5t164.5 22.5v27q0 176 -149 176q-100 0 -186 -55l-41 149q44 28 118 50t156 22q93 0 158.5 -30t100.5 -85.5
t50 -122t15 -151.5zM494 313v187q-31 -1 -58.5 -4.5t-62.5 -16.5t-60 -33.5t-42 -57.5t-17 -87q0 -78 32.5 -116t75.5 -38q42 0 77 29.5t48 85.5q7 24 7 51z" />
    <glyph glyph-name="acircumflex" unicode="&#xe2;" horiz-adv-x="811" 
d="M328 1405h149l170 -283h-153l-88 170h-5l-88 -170h-155zM709 625v-398q0 -148 12 -227h-197l-12 102h-4q-77 -118 -211 -118q-108 0 -180 83t-72 212q0 93 37 164.5t100 114.5t140.5 64.5t164.5 22.5v27q0 176 -149 176q-100 0 -186 -55l-41 149q44 28 118 50t156 22
q93 0 158.5 -30t100.5 -85.5t50 -122t15 -151.5zM494 313v187q-31 -1 -58.5 -4.5t-62.5 -16.5t-60 -33.5t-42 -57.5t-17 -87q0 -78 32.5 -116t75.5 -38q42 0 77 29.5t48 85.5q7 24 7 51z" />
    <glyph glyph-name="atilde" unicode="&#xe3;" horiz-adv-x="811" 
d="M274 1145h-106q0 96 35.5 157.5t101.5 61.5q13 0 25 -2t25 -7t20 -8t22 -10.5l19 -9.5t15.5 -9t16 -9.5t13.5 -7t17 -6t16 -1.5q22 0 34 15.5t13 58.5h102q0 -103 -35 -156t-102 -53q-37 0 -105 33q-9 5 -26 15.5t-28 15t-23 4.5q-47 0 -50 -82zM709 625v-398
q0 -148 12 -227h-197l-12 102h-4q-77 -118 -211 -118q-108 0 -180 83t-72 212q0 93 37 164.5t100 114.5t140.5 64.5t164.5 22.5v27q0 176 -149 176q-100 0 -186 -55l-41 149q44 28 118 50t156 22q93 0 158.5 -30t100.5 -85.5t50 -122t15 -151.5zM494 313v187
q-31 -1 -58.5 -4.5t-62.5 -16.5t-60 -33.5t-42 -57.5t-17 -87q0 -78 32.5 -116t75.5 -38q42 0 77 29.5t48 85.5q7 24 7 51z" />
    <glyph glyph-name="adieresis" unicode="&#xe4;" horiz-adv-x="811" 
d="M233 1153h-2q-44 0 -75 32t-31 81t31.5 80.5t76.5 31.5q46 0 76.5 -31t30.5 -81q0 -49 -30.5 -81t-76.5 -32zM578 1153h-3q-45 0 -75.5 32t-30.5 81t32 80.5t77 31.5t75.5 -31t30.5 -81q0 -49 -30 -81t-76 -32zM709 625v-398q0 -148 12 -227h-197l-12 102h-4
q-77 -118 -211 -118q-108 0 -180 83t-72 212q0 93 37 164.5t100 114.5t140.5 64.5t164.5 22.5v27q0 176 -149 176q-100 0 -186 -55l-41 149q44 28 118 50t156 22q93 0 158.5 -30t100.5 -85.5t50 -122t15 -151.5zM494 313v187q-31 -1 -58.5 -4.5t-62.5 -16.5t-60 -33.5
t-42 -57.5t-17 -87q0 -78 32.5 -116t75.5 -38q42 0 77 29.5t48 85.5q7 24 7 51z" />
    <glyph glyph-name="aring" unicode="&#xe5;" horiz-adv-x="811" 
d="M408 1098q-94 0 -148.5 51t-54.5 127q0 81 54 134.5t151 53.5q92 0 144 -51.5t52 -132.5q0 -79 -54 -130.5t-144 -51.5zM406 1180q46 0 68 29t22 71t-22.5 72t-70.5 30q-42 0 -64 -32t-22 -74q0 -35 23.5 -65.5t65.5 -30.5zM709 625v-398q0 -148 12 -227h-197l-12 102h-4
q-77 -118 -211 -118q-108 0 -180 83t-72 212q0 93 37 164.5t100 114.5t140.5 64.5t164.5 22.5v27q0 176 -149 176q-100 0 -186 -55l-41 149q44 28 118 50t156 22q93 0 158.5 -30t100.5 -85.5t50 -122t15 -151.5zM494 313v187q-31 -1 -58.5 -4.5t-62.5 -16.5t-60 -33.5
t-42 -57.5t-17 -87q0 -78 32.5 -116t75.5 -38q42 0 77 29.5t48 85.5q7 24 7 51z" />
    <glyph glyph-name="ae" unicode="&#xe6;" horiz-adv-x="1228" 
d="M1167 463h-469q0 -313 226 -313q99 0 176 43l33 -154q-102 -55 -250 -55q-99 0 -180 47t-117 133h-4q-89 -180 -275 -180q-115 0 -188.5 84.5t-73.5 218.5q0 70 24.5 128.5t65.5 98.5t98 67.5t120 40t132 13.5v41q0 76 -40.5 124t-118.5 48q-95 0 -174 -53l-43 147
q116 72 260 72q86 0 151 -43t92 -125h4q39 82 107 125t151 43q141 0 219 -127t78 -330q0 -32 -4 -94zM489 322v170q-31 0 -59.5 -3.5t-64 -16t-61 -32.5t-43 -57t-17.5 -86q0 -73 34 -110t80 -37q43 0 77 30.5t46 85.5q8 21 8 56zM700 608h269q3 112 -31.5 180t-91.5 68
q-68 0 -106 -76t-40 -172z" />
    <glyph glyph-name="ccedilla" unicode="&#xe7;" horiz-adv-x="641" 
d="M604 193l23 -173q-56 -29 -160 -32l-43 -84q56 -8 96.5 -49t40.5 -99q0 -86 -61 -128t-148 -42q-85 0 -145 37l35 103q57 -31 104 -31q70 0 70 57q0 69 -140 82l76 166q-137 35 -214 160.5t-77 331.5q0 148 52 266t151 186t228 68q87 0 143 -29l-33 -174q-63 22 -106 22
q-68 0 -117.5 -46.5t-73.5 -121t-24 -167.5q0 -153 57.5 -240.5t157.5 -87.5q60 0 108 25z" />
    <glyph glyph-name="egrave" unicode="&#xe8;" horiz-adv-x="806" 
d="M172 1405h203l147 -283h-139zM743 440h-469q3 -284 224 -284q95 0 178 37l31 -158q-99 -47 -250 -47q-190 0 -293 130.5t-103 364.5q0 243 105 387t268 144q152 0 234 -125.5t82 -331.5q0 -23 -7 -117zM276 596h271q1 118 -34.5 186t-94.5 68q-44 0 -77 -40t-48 -95.5
t-17 -118.5z" />
    <glyph glyph-name="eacute" unicode="&#xe9;" horiz-adv-x="806" 
d="M494 1405h202l-211 -283h-139zM743 440h-469q3 -284 224 -284q95 0 178 37l31 -158q-99 -47 -250 -47q-190 0 -293 130.5t-103 364.5q0 243 105 387t268 144q152 0 234 -125.5t82 -331.5q0 -23 -7 -117zM276 596h271q1 118 -34.5 186t-94.5 68q-44 0 -77 -40t-48 -95.5
t-17 -118.5z" />
    <glyph glyph-name="ecircumflex" unicode="&#xea;" horiz-adv-x="806" 
d="M356 1405h150l170 -283h-154l-88 170h-4l-88 -170h-156zM743 440h-469q3 -284 224 -284q95 0 178 37l31 -158q-99 -47 -250 -47q-190 0 -293 130.5t-103 364.5q0 243 105 387t268 144q152 0 234 -125.5t82 -331.5q0 -23 -7 -117zM276 596h271q1 118 -34.5 186t-94.5 68
q-44 0 -77 -40t-48 -95.5t-17 -118.5z" />
    <glyph glyph-name="edieresis" unicode="&#xeb;" horiz-adv-x="806" 
d="M266 1153h-2q-44 0 -75 32t-31 81t31.5 80.5t76.5 31.5q46 0 76.5 -31t30.5 -81q0 -49 -30.5 -81t-76.5 -32zM610 1153h-2q-45 0 -75.5 32t-30.5 81t31.5 80.5t76.5 31.5t76 -31t31 -81q0 -49 -30.5 -81t-76.5 -32zM743 440h-469q3 -284 224 -284q95 0 178 37l31 -158
q-99 -47 -250 -47q-190 0 -293 130.5t-103 364.5q0 243 105 387t268 144q152 0 234 -125.5t82 -331.5q0 -23 -7 -117zM276 596h271q1 118 -34.5 186t-94.5 68q-44 0 -77 -40t-48 -95.5t-17 -118.5z" />
    <glyph glyph-name="igrave" unicode="&#xec;" horiz-adv-x="419" 
d="M-53 1405h203l147 -283h-139zM319 0h-219v997h219v-997z" />
    <glyph glyph-name="iacute" unicode="&#xed;" horiz-adv-x="419" 
d="M270 1405h203l-211 -283h-139zM319 0h-219v997h219v-997z" />
    <glyph glyph-name="icircumflex" unicode="&#xee;" horiz-adv-x="419" 
d="M137 1405h150l170 -283h-154l-88 170h-4l-88 -170h-156zM319 0h-219v997h219v-997z" />
    <glyph glyph-name="idieresis" unicode="&#xef;" horiz-adv-x="419" 
d="M39 1153h-2q-44 0 -75.5 32t-31.5 81t32 80.5t77 31.5q46 0 76 -31t30 -81q0 -49 -30 -81t-76 -32zM383 1153h-2q-45 0 -76 32t-31 81t32 80.5t77 31.5t75.5 -31t30.5 -81q0 -49 -30 -81t-76 -32zM319 0h-219v997h219v-997z" />
    <glyph glyph-name="eth" unicode="&#xf0;" horiz-adv-x="837" 
d="M420 152h2q135 0 135 337q0 189 -25 265q-28 94 -110 94q-35 0 -61 -24.5t-41 -61t-24 -86t-12 -91t-3 -85.5q0 -68 6.5 -126t21.5 -110t43.5 -82t67.5 -30zM168 1034l-49 80l168 94q-37 39 -135 125l127 113q87 -68 174 -152l186 103l51 -84l-168 -90q94 -105 168 -256
q84 -175 84 -447q1 -121 -22 -216.5t-59 -154t-84.5 -97t-96.5 -53.5t-98 -15q-163 0 -258 133t-95 379q0 95 17.5 174.5t46.5 135.5t68.5 96.5t83 61.5t90.5 27q69 7 110 -20l4 6q-43 88 -116 164z" />
    <glyph glyph-name="ntilde" unicode="&#xf1;" horiz-adv-x="888" 
d="M319 1145h-106q0 96 35.5 157.5t101.5 61.5q13 0 25 -2t25 -7t20 -8t22 -10.5l19 -9.5t15.5 -9t16 -9.5t13.5 -7t17 -6t16 -1.5q22 0 34 15.5t13 58.5h102q0 -103 -35 -156t-102 -53q-37 0 -105 33q-9 5 -26 15.5t-28 15t-23 4.5q-47 0 -50 -82zM100 0v717q0 104 -8 280
h191l10 -116h4q36 62 97.5 97.5t137.5 35.5q125 0 190.5 -93.5t65.5 -267.5v-653h-219v633q0 196 -116 196q-42 0 -75.5 -31.5t-47.5 -90.5q-11 -37 -11 -91v-616h-219z" />
    <glyph glyph-name="ograve" unicode="&#xf2;" horiz-adv-x="839" 
d="M164 1405h203l147 -283h-139zM426 1014q160 0 255 -135t95 -377q0 -116 -23 -208t-59 -149t-84.5 -94.5t-95.5 -52t-96 -14.5q-163 0 -260 133t-97 379q0 130 30.5 232t82.5 163t116 92t136 31zM422 844q-42 0 -71.5 -32t-44 -87t-20 -109t-5.5 -116q0 -348 145 -348
q39 0 66.5 32t41 86.5t19.5 110.5t6 119q0 61 -6 116t-20 109.5t-42.5 86.5t-68.5 32z" />
    <glyph glyph-name="oacute" unicode="&#xf3;" horiz-adv-x="839" 
d="M485 1405h203l-211 -283h-139zM426 1014q160 0 255 -135t95 -377q0 -116 -23 -208t-59 -149t-84.5 -94.5t-95.5 -52t-96 -14.5q-163 0 -260 133t-97 379q0 130 30.5 232t82.5 163t116 92t136 31zM422 844q-42 0 -71.5 -32t-44 -87t-20 -109t-5.5 -116q0 -348 145 -348
q39 0 66.5 32t41 86.5t19.5 110.5t6 119q0 61 -6 116t-20 109.5t-42.5 86.5t-68.5 32z" />
    <glyph glyph-name="ocircumflex" unicode="&#xf4;" horiz-adv-x="839" 
d="M346 1405h150l170 -283h-154l-88 170h-4l-88 -170h-156zM426 1014q160 0 255 -135t95 -377q0 -116 -23 -208t-59 -149t-84.5 -94.5t-95.5 -52t-96 -14.5q-163 0 -260 133t-97 379q0 130 30.5 232t82.5 163t116 92t136 31zM422 844q-42 0 -71.5 -32t-44 -87t-20 -109
t-5.5 -116q0 -348 145 -348q39 0 66.5 32t41 86.5t19.5 110.5t6 119q0 61 -6 116t-20 109.5t-42.5 86.5t-68.5 32z" />
    <glyph glyph-name="otilde" unicode="&#xf5;" horiz-adv-x="839" 
d="M289 1145h-107q0 96 35.5 157.5t101.5 61.5q13 0 25 -2t25 -7t20 -8t22 -10.5l19 -9.5t15.5 -9t16 -9.5t13.5 -7t17 -6t16 -1.5q22 0 34 15.5t13 58.5h102q0 -103 -35 -156t-102 -53q-36 0 -104 33q-9 5 -26 15.5t-28.5 15t-23.5 4.5q-46 0 -49 -82zM426 1014
q160 0 255 -135t95 -377q0 -116 -23 -208t-59 -149t-84.5 -94.5t-95.5 -52t-96 -14.5q-163 0 -260 133t-97 379q0 130 30.5 232t82.5 163t116 92t136 31zM422 844q-42 0 -71.5 -32t-44 -87t-20 -109t-5.5 -116q0 -348 145 -348q39 0 66.5 32t41 86.5t19.5 110.5t6 119
q0 61 -6 116t-20 109.5t-42.5 86.5t-68.5 32z" />
    <glyph glyph-name="odieresis" unicode="&#xf6;" horiz-adv-x="839" 
d="M248 1153h-2q-44 0 -75.5 32t-31.5 81t32 80.5t77 31.5q46 0 76 -31t30 -81q0 -49 -30 -81t-76 -32zM592 1153h-2q-45 0 -76 32t-31 81t32 80.5t77 31.5t75.5 -31t30.5 -81q0 -49 -30 -81t-76 -32zM426 1014q160 0 255 -135t95 -377q0 -116 -23 -208t-59 -149
t-84.5 -94.5t-95.5 -52t-96 -14.5q-163 0 -260 133t-97 379q0 130 30.5 232t82.5 163t116 92t136 31zM422 844q-42 0 -71.5 -32t-44 -87t-20 -109t-5.5 -116q0 -348 145 -348q39 0 66.5 32t41 86.5t19.5 110.5t6 119q0 61 -6 116t-20 109.5t-42.5 86.5t-68.5 32z" />
    <glyph glyph-name="divide" unicode="&#xf7;" horiz-adv-x="1220" 
d="M610 791h-2q-46 0 -75 31.5t-29 78.5q0 50 29.5 81.5t78.5 31.5t78 -31.5t29 -81.5q0 -48 -29 -79t-80 -31zM1139 475h-1057v143h1057v-143zM610 80h-2q-47 0 -75.5 31t-28.5 79t30 80.5t78 32.5t77.5 -32.5t29.5 -80.5q0 -49 -29 -79.5t-80 -30.5z" />
    <glyph glyph-name="oslash" unicode="&#xf8;" horiz-adv-x="839" 
d="M422 1014h2q92 0 172 -56l59 113l105 -55l-76 -144q92 -134 92 -370q0 -116 -23 -208t-59 -149t-84 -94.5t-94.5 -52t-93.5 -14.5q-102 0 -176 53l-62 -115l-98 66l72 133q-97 137 -97 375q0 130 30.5 232t82 163t115 92t133.5 31zM291 326l221 460q-25 58 -92 58
q-38 0 -66.5 -24.5t-44.5 -60t-25.5 -85t-12.5 -90t-3 -84.5q0 -96 17 -170zM551 657l-217 -448q26 -57 88 -57q42 0 73 30t46.5 81t22.5 104.5t7 113.5q0 103 -14 176h-6z" />
    <glyph glyph-name="ugrave" unicode="&#xf9;" horiz-adv-x="876" 
d="M186 1405h203l148 -283h-140zM772 997v-708q0 -121 8 -289h-188l-14 104h-5q-33 -50 -91 -85t-132 -35q-134 0 -194 98.5t-60 298.5v616h217v-589q0 -242 117 -242q45 0 73.5 30.5t37.5 67.5q12 35 12 86v647h219z" />
    <glyph glyph-name="uacute" unicode="&#xfa;" horiz-adv-x="876" 
d="M508 1405h203l-211 -283h-140zM772 997v-708q0 -121 8 -289h-188l-14 104h-5q-33 -50 -91 -85t-132 -35q-134 0 -194 98.5t-60 298.5v616h217v-589q0 -242 117 -242q45 0 73.5 30.5t37.5 67.5q12 35 12 86v647h219z" />
    <glyph glyph-name="ucircumflex" unicode="&#xfb;" horiz-adv-x="876" 
d="M365 1405h149l170 -283h-154l-88 170h-4l-88 -170h-155zM772 997v-708q0 -121 8 -289h-188l-14 104h-5q-33 -50 -91 -85t-132 -35q-134 0 -194 98.5t-60 298.5v616h217v-589q0 -242 117 -242q45 0 73.5 30.5t37.5 67.5q12 35 12 86v647h219z" />
    <glyph glyph-name="udieresis" unicode="&#xfc;" horiz-adv-x="876" 
d="M272 1153h-2q-44 0 -75 32t-31 81t31.5 80.5t76.5 31.5q46 0 76.5 -31t30.5 -81q0 -49 -30.5 -81t-76.5 -32zM616 1153h-2q-45 0 -75.5 32t-30.5 81t31.5 80.5t76.5 31.5t76 -31t31 -81q0 -49 -30.5 -81t-76.5 -32zM772 997v-708q0 -121 8 -289h-188l-14 104h-5
q-33 -50 -91 -85t-132 -35q-134 0 -194 98.5t-60 298.5v616h217v-589q0 -242 117 -242q45 0 73.5 30.5t37.5 67.5q12 35 12 86v647h219z" />
    <glyph glyph-name="yacute" unicode="&#xfd;" horiz-adv-x="757" 
d="M446 1405h203l-211 -283h-139zM16 997h234l115 -542q8 -40 19.5 -109.5t12.5 -75.5h4q9 57 33 181l98 546h216l-187 -712q-100 -407 -233 -568q-52 -64 -108 -102t-97 -53l-70 188q69 31 135 103q52 55 86 139q13 33 13 47q0 19 -6 37z" />
    <glyph glyph-name="thorn" unicode="&#xfe;" horiz-adv-x="870" 
d="M100 1368h215v-494h4q67 140 203 140q135 0 210 -142t75 -372q0 -129 -26.5 -231t-70 -162.5t-96 -91.5t-108.5 -31q-69 0 -115 32t-69 80h-5v-489h-217v1761zM317 629v-264q0 -56 15 -86q16 -64 45.5 -89.5t62.5 -25.5q40 0 70 26.5t47 74t25 105.5t8 128
q0 151 -37.5 240t-108.5 89q-40 0 -73 -37t-41 -88q-13 -37 -13 -73z" />
    <glyph glyph-name="ydieresis" unicode="&#xff;" horiz-adv-x="757" 
d="M215 1153h-2q-44 0 -75.5 32t-31.5 81t32 80.5t77 31.5q46 0 76.5 -31t30.5 -81q0 -49 -30.5 -81t-76.5 -32zM559 1153h-2q-45 0 -75.5 32t-30.5 81t31.5 80.5t76.5 31.5t76 -31t31 -81q0 -49 -30.5 -81t-76.5 -32zM16 997h234l115 -542q8 -40 19.5 -109.5t12.5 -75.5h4
q9 57 33 181l98 546h216l-187 -712q-100 -407 -233 -568q-52 -64 -108 -102t-97 -53l-70 188q69 31 135 103q52 55 86 139q13 33 13 47q0 19 -6 37z" />
    <glyph glyph-name="Amacron" unicode="&#x100;" horiz-adv-x="917" 
d="M590 360h-275l-73 -360h-213l307 1380h256l285 -1380h-213zM340 530h227l-57 318q-9 51 -27.5 166t-23.5 147h-6q-23 -155 -52 -313zM229 1645h461v-138h-461v138z" />
    <glyph glyph-name="amacron" unicode="&#x101;" horiz-adv-x="811" 
d="M197 1321h419v-131h-419v131zM709 625v-398q0 -148 12 -227h-197l-12 102h-4q-77 -118 -211 -118q-108 0 -180 83t-72 212q0 93 37 164.5t100 114.5t140.5 64.5t164.5 22.5v27q0 176 -149 176q-100 0 -186 -55l-41 149q44 28 118 50t156 22q93 0 158.5 -30t100.5 -85.5
t50 -122t15 -151.5zM494 313v187q-31 -1 -58.5 -4.5t-62.5 -16.5t-60 -33.5t-42 -57.5t-17 -87q0 -78 32.5 -116t75.5 -38q42 0 77 29.5t48 85.5q7 24 7 51z" />
    <glyph glyph-name="Abreve" unicode="&#x102;" horiz-adv-x="917" 
d="M590 360h-275l-73 -360h-213l307 1380h256l285 -1380h-213zM340 530h227l-57 318q-9 51 -27.5 166t-23.5 147h-6q-23 -155 -52 -313zM225 1673h121q5 -40 34.5 -64t78.5 -24q102 0 114 88h121q0 -100 -60.5 -159.5t-172.5 -59.5q-114 0 -175 58t-61 161z" />
    <glyph glyph-name="abreve" unicode="&#x103;" horiz-adv-x="811" 
d="M174 1382h113q4 -55 36 -85.5t80 -30.5q57 0 89 32.5t32 83.5h113q3 -108 -62.5 -177.5t-173.5 -69.5q-105 0 -167.5 70.5t-59.5 176.5zM709 625v-398q0 -148 12 -227h-197l-12 102h-4q-77 -118 -211 -118q-108 0 -180 83t-72 212q0 93 37 164.5t100 114.5t140.5 64.5
t164.5 22.5v27q0 176 -149 176q-100 0 -186 -55l-41 149q44 28 118 50t156 22q93 0 158.5 -30t100.5 -85.5t50 -122t15 -151.5zM494 313v187q-31 -1 -58.5 -4.5t-62.5 -16.5t-60 -33.5t-42 -57.5t-17 -87q0 -78 32.5 -116t75.5 -38q42 0 77 29.5t48 85.5q7 24 7 51z" />
    <glyph glyph-name="Aogonek" unicode="&#x104;" horiz-adv-x="917" 
d="M592 1380l285 -1380h-74q-72 -98 -72 -178q0 -40 25 -65t59 -25q45 0 82 16l29 -115q-65 -47 -166 -47q-90 0 -138.5 49.5t-48.5 135.5q0 103 89 235l-72 354h-275l-73 -360h-213l307 1380h256zM340 530h227l-57 318q-9 51 -27.5 166t-23.5 147h-6q-25 -171 -52 -313z
" />
    <glyph glyph-name="aogonek" unicode="&#x105;" horiz-adv-x="811" 
d="M709 625v-398q0 -157 16 -227h-59q-66 -100 -66 -184q0 -40 24.5 -65t59.5 -25q50 0 82 14l29 -115q-70 -47 -166 -47q-90 0 -138.5 49t-48.5 135q0 16 1.5 32.5t6 33t8 30t10.5 30.5t11 26.5t13 26.5t11.5 22t11.5 20.5t9 16.5l-12 102h-4q-77 -118 -211 -118
q-108 0 -180 83t-72 212q0 93 37 164.5t100 114.5t140.5 64.5t164.5 22.5v27q0 176 -149 176q-100 0 -186 -55l-41 149q44 28 118 50t156 22q93 0 158.5 -30t100.5 -85.5t50 -122t15 -151.5zM494 313v187q-31 -1 -58.5 -4.5t-62.5 -16.5t-60 -33.5t-42 -57.5t-17 -87
q0 -78 32.5 -116t75.5 -38q42 0 77 29.5t48 85.5q7 24 7 51z" />
    <glyph glyph-name="Cacute" unicode="&#x106;" horiz-adv-x="788" 
d="M729 207l27 -184q-72 -35 -203 -35q-235 0 -365.5 181.5t-130.5 502.5q0 153 31.5 277.5t83 205.5t121 136t142 78.5t149.5 23.5q117 0 180 -35l-41 -184q-61 26 -131 26q-59 0 -111 -28t-96 -86.5t-70 -161t-26 -238.5q0 -108 16 -194.5t43.5 -143.5t66.5 -95
t83.5 -54.5t95.5 -16.5q76 0 135 25zM578 1681h233l-252 -227h-162z" />
    <glyph glyph-name="cacute" unicode="&#x107;" horiz-adv-x="641" 
d="M475 1405h203l-211 -283h-139zM602 190l23 -170q-62 -32 -168 -32q-182 0 -289 131t-107 373q0 148 52 266t151 186t228 68q87 0 143 -29l-33 -174q-63 22 -106 22q-68 0 -117.5 -46.5t-73.5 -121t-24 -167.5q0 -153 57.5 -240.5t157.5 -87.5q63 0 106 22z" />
    <glyph glyph-name="Ccircumflex" unicode="&#x108;" horiz-adv-x="788" 
d="M729 207l27 -184q-72 -35 -203 -35q-235 0 -365.5 181.5t-130.5 502.5q0 153 31.5 277.5t83 205.5t121 136t142 78.5t149.5 23.5q117 0 180 -35l-41 -184q-61 26 -131 26q-59 0 -111 -28t-96 -86.5t-70 -161t-26 -238.5q0 -108 16 -194.5t43.5 -143.5t66.5 -95
t83.5 -54.5t95.5 -16.5q76 0 135 25zM410 1667h176l176 -213h-172l-90 109h-4l-93 -109h-165z" />
    <glyph glyph-name="ccircumflex" unicode="&#x109;" horiz-adv-x="641" 
d="M334 1405h149l170 -283h-153l-88 170h-4l-89 -170h-155zM602 190l23 -170q-62 -32 -168 -32q-182 0 -289 131t-107 373q0 148 52 266t151 186t228 68q87 0 143 -29l-33 -174q-63 22 -106 22q-68 0 -117.5 -46.5t-73.5 -121t-24 -167.5q0 -153 57.5 -240.5t157.5 -87.5
q63 0 106 22z" />
    <glyph glyph-name="Cdotaccent" unicode="&#x10a;" horiz-adv-x="788" 
d="M729 207l27 -184q-72 -35 -203 -35q-235 0 -365.5 181.5t-130.5 502.5q0 153 31.5 277.5t83 205.5t121 136t142 78.5t149.5 23.5q117 0 180 -35l-41 -184q-61 26 -131 26q-59 0 -111 -28t-96 -86.5t-70 -161t-26 -238.5q0 -108 16 -194.5t43.5 -143.5t66.5 -95
t83.5 -54.5t95.5 -16.5q76 0 135 25zM510 1466h-2q-44 0 -77.5 34.5t-33.5 80.5t33.5 79.5t79.5 33.5t78.5 -33.5t32.5 -79.5t-33 -80.5t-78 -34.5z" />
    <glyph glyph-name="cdotaccent" unicode="&#x10b;" horiz-adv-x="641" 
d="M406 1153h-3q-45 0 -75.5 32t-30.5 81t32 80.5t77 31.5t75.5 -31t30.5 -81q0 -49 -30 -81t-76 -32zM602 190l23 -170q-62 -32 -168 -32q-182 0 -289 131t-107 373q0 148 52 266t151 186t228 68q87 0 143 -29l-33 -174q-63 22 -106 22q-68 0 -117.5 -46.5t-73.5 -121
t-24 -167.5q0 -153 57.5 -240.5t157.5 -87.5q63 0 106 22z" />
    <glyph glyph-name="Ccaron" unicode="&#x10c;" horiz-adv-x="788" 
d="M729 207l27 -184q-72 -35 -203 -35q-235 0 -365.5 181.5t-130.5 502.5q0 153 31.5 277.5t83 205.5t121 136t142 78.5t149.5 23.5q117 0 180 -35l-41 -184q-61 26 -131 26q-59 0 -111 -28t-96 -86.5t-70 -161t-26 -238.5q0 -108 16 -194.5t43.5 -143.5t66.5 -95
t83.5 -54.5t95.5 -16.5q76 0 135 25zM606 1454h-176l-174 213h170l90 -113h4l92 113h166z" />
    <glyph glyph-name="ccaron" unicode="&#x10d;" horiz-adv-x="641" 
d="M479 1122h-151l-168 283h153l88 -170h5l88 170h155zM602 190l23 -170q-62 -32 -168 -32q-182 0 -289 131t-107 373q0 148 52 266t151 186t228 68q87 0 143 -29l-33 -174q-63 22 -106 22q-68 0 -117.5 -46.5t-73.5 -121t-24 -167.5q0 -153 57.5 -240.5t157.5 -87.5
q63 0 106 22z" />
    <glyph glyph-name="Dcaron" unicode="&#x10e;" horiz-adv-x="962" 
d="M121 4v1356q102 26 246 26q233 0 356 -114q182 -161 182 -557q0 -411 -180 -584q-138 -141 -403 -141q-87 0 -201 14zM338 1204v-1030q18 -4 53 -4q47 0 88 16t78.5 56t64 101t42.5 156.5t16 217.5q0 238 -70 365.5t-209 127.5q-36 0 -63 -6zM512 1454h-176l-174 213h170
l90 -113h4l92 113h166z" />
    <glyph glyph-name="dcaron" unicode="&#x10f;" horiz-adv-x="890" 
d="M553 1417h217v-1147q0 -118 8 -270h-188l-12 119h-7q-28 -58 -83 -96.5t-123 -38.5q-143 0 -223.5 140.5t-80.5 371.5q0 127 26 228t70.5 163t100 94.5t117.5 32.5q123 0 174 -109h4v512zM553 352v264q0 42 -4 62q-6 63 -38.5 106t-80.5 43q-53 0 -87.5 -47.5t-48 -119
t-13.5 -166.5q0 -152 38.5 -241t106.5 -89q86 0 119 123q8 24 8 65zM944 1020l-88 61q62 85 62 181q0 81 -62 139l145 24q29 -21 48.5 -59.5t19.5 -89.5q0 -46 -13 -89t-37.5 -78t-38.5 -51t-36 -38z" />
    <glyph glyph-name="Dcroat" unicode="&#x110;" horiz-adv-x="972" 
d="M0 639v156h131v565q102 26 246 26q233 0 356 -114q182 -161 182 -559q0 -413 -180 -586q-133 -139 -401 -139q-117 0 -203 14v637h-131zM526 795v-156h-178v-467q18 -4 55 -4q60 0 109 27.5t90.5 88t64.5 171t23 262.5q0 239 -69 366t-209 127q-34 0 -64 -6v-409h178z
" />
    <glyph glyph-name="dcroat" unicode="&#x111;" horiz-adv-x="870" 
d="M891 1100h-121v-830q0 -118 8 -270h-188l-12 119h-7q-28 -58 -83 -96.5t-123 -38.5q-143 0 -223.5 140.5t-80.5 371.5q0 127 26 228t70.5 163t100 94.5t117.5 32.5q123 0 174 -109h4v195h-266v141h266v176h217v-176h121v-141zM553 352v264q0 42 -4 62q-6 63 -38.5 106
t-80.5 43q-53 0 -87.5 -47.5t-48 -119t-13.5 -166.5q0 -152 38.5 -241t106.5 -89q86 0 119 123q8 24 8 65z" />
    <glyph glyph-name="Emacron" unicode="&#x112;" horiz-adv-x="770" 
d="M668 811v-182h-328v-439h373v-190h-592v1380h567v-190h-348v-379h328zM174 1645h461v-138h-461v138z" />
    <glyph glyph-name="emacron" unicode="&#x113;" horiz-adv-x="806" 
d="M201 1321h420v-131h-420v131zM743 440h-469q3 -284 224 -284q95 0 178 37l31 -158q-99 -47 -250 -47q-190 0 -293 130.5t-103 364.5q0 243 105 387t268 144q152 0 234 -125.5t82 -331.5q0 -23 -7 -117zM276 596h271q1 118 -34.5 186t-94.5 68q-44 0 -77 -40t-48 -95.5
t-17 -118.5z" />
    <glyph glyph-name="Ebreve" unicode="&#x114;" horiz-adv-x="770" 
d="M668 811v-182h-328v-439h373v-190h-592v1380h567v-190h-348v-379h328zM174 1677h121q5 -40 34.5 -64t78.5 -24q102 0 114 88h121q0 -100 -60.5 -159.5t-172.5 -59.5q-114 0 -175 58t-61 161z" />
    <glyph glyph-name="ebreve" unicode="&#x115;" horiz-adv-x="806" 
d="M186 1382h113q4 -54 36.5 -85t80.5 -31q57 0 89 32.5t32 83.5h112q3 -108 -62 -177.5t-173 -69.5q-105 0 -168 70.5t-60 176.5zM743 440h-469q3 -284 224 -284q95 0 178 37l31 -158q-99 -47 -250 -47q-190 0 -293 130.5t-103 364.5q0 243 105 387t268 144
q152 0 234 -125.5t82 -331.5q0 -23 -7 -117zM276 596h271q1 118 -34.5 186t-94.5 68q-44 0 -77 -40t-48 -95.5t-17 -118.5z" />
    <glyph glyph-name="Edotaccent" unicode="&#x116;" horiz-adv-x="770" 
d="M668 811v-182h-328v-439h373v-190h-592v1380h567v-190h-348v-379h328zM408 1475h-2q-44 0 -77.5 34t-33.5 80t33.5 79.5t79.5 33.5q45 0 77.5 -33.5t32.5 -79.5t-32.5 -80t-77.5 -34z" />
    <glyph glyph-name="edotaccent" unicode="&#x117;" horiz-adv-x="806" 
d="M422 1153h-2q-45 0 -76 32t-31 81t32 80.5t77 31.5t75.5 -31t30.5 -81q0 -49 -30 -81t-76 -32zM743 440h-469q3 -284 224 -284q95 0 178 37l31 -158q-99 -47 -250 -47q-190 0 -293 130.5t-103 364.5q0 243 105 387t268 144q152 0 234 -125.5t82 -331.5q0 -23 -7 -117z
M276 596h271q1 118 -34.5 186t-94.5 68q-44 0 -77 -40t-48 -95.5t-17 -118.5z" />
    <glyph glyph-name="Eogonek" unicode="&#x118;" horiz-adv-x="770" 
d="M705 -256l26 -113q-70 -49 -176 -49q-82 0 -129 46t-47 122q0 69 43 135t106 115h-407v1380h567v-190h-348v-379h328v-182h-328v-439h373v-190q-9 0 -29 -4q-66 -46 -104.5 -96.5t-38.5 -96.5q0 -36 22 -54.5t55 -18.5q52 0 87 14z" />
    <glyph glyph-name="eogonek" unicode="&#x119;" horiz-adv-x="806" 
d="M625 -244l39 -110q-73 -60 -177 -60q-87 0 -133.5 44.5t-46.5 117.5q0 67 43 131t103 107v2h-9q-185 4 -284 134t-99 361q0 243 105 387t268 144q152 0 234 -125.5t82 -331.5q0 -29 -7 -117h-469q3 -284 224 -284q95 0 178 37l31 -158q-49 -19 -68 -25q-76 -43 -125 -102
t-49 -109q0 -34 19 -51.5t46 -17.5q48 0 95 26zM276 596h271q1 118 -34.5 186t-94.5 68q-44 0 -77 -40t-48 -95.5t-17 -118.5z" />
    <glyph glyph-name="Ecaron" unicode="&#x11a;" horiz-adv-x="770" 
d="M668 811v-182h-328v-439h373v-190h-592v1380h567v-190h-348v-379h328zM496 1454h-177l-174 213h170l91 -113h4l92 113h166z" />
    <glyph glyph-name="ecaron" unicode="&#x11b;" horiz-adv-x="806" 
d="M489 1122h-151l-168 283h154l88 -170h4l88 170h155zM743 440h-469q3 -284 224 -284q95 0 178 37l31 -158q-99 -47 -250 -47q-190 0 -293 130.5t-103 364.5q0 243 105 387t268 144q152 0 234 -125.5t82 -331.5q0 -23 -7 -117zM276 596h271q1 118 -34.5 186t-94.5 68
q-44 0 -77 -40t-48 -95.5t-17 -118.5z" />
    <glyph glyph-name="Gcircumflex" unicode="&#x11c;" horiz-adv-x="933" 
d="M848 750v-713q-46 -20 -123 -34.5t-145 -14.5q-222 0 -351 135q-83 86 -128 229.5t-44 325.5q1 150 33.5 272.5t86 203.5t126 136t150 79t161.5 24q136 0 213 -41l-43 -189q-61 33 -157 33q-55 0 -104 -16.5t-93 -55t-76 -97t-50.5 -148.5t-18.5 -203q0 -135 24 -235.5
t66 -157t90.5 -83t105.5 -26.5q54 0 74 10v387h-147v179h350zM449 1667h176l176 -213h-172l-90 109h-4l-93 -109h-166z" />
    <glyph glyph-name="gcircumflex" unicode="&#x11d;" horiz-adv-x="870" 
d="M365 1405h149l170 -283h-154l-88 170h-4l-88 -170h-155zM772 684v-565q0 -171 -26 -266t-84 -154q-106 -109 -297 -109q-134 0 -238 48l45 169q84 -43 188 -43q99 0 147 66t48 205v78h-4q-26 -52 -75.5 -80.5t-108.5 -28.5q-98 0 -168 68.5t-103 176.5t-33 243
q0 126 27 227.5t73 164.5t104 96.5t122 33.5q121 0 184 -123h5l12 106h192q-10 -137 -10 -313zM555 365v278q0 39 -10 72q-29 112 -111 112q-75 0 -114 -90t-39 -239q0 -155 41.5 -237.5t107.5 -82.5q82 0 113 105q12 32 12 82z" />
    <glyph glyph-name="Gbreve" unicode="&#x11e;" horiz-adv-x="933" 
d="M848 750v-713q-46 -20 -123 -34.5t-145 -14.5q-222 0 -351 135q-83 86 -128 229.5t-44 325.5q1 150 33.5 272.5t86 203.5t126 136t150 79t161.5 24q136 0 213 -41l-43 -189q-61 33 -157 33q-55 0 -104 -16.5t-93 -55t-76 -97t-50.5 -148.5t-18.5 -203q0 -135 24 -235.5
t66 -157t90.5 -83t105.5 -26.5q54 0 74 10v387h-147v179h350zM309 1673h121q5 -40 34.5 -64t78.5 -24q102 0 114 88h121q0 -100 -60.5 -159.5t-172.5 -59.5q-114 0 -175 58t-61 161z" />
    <glyph glyph-name="gbreve" unicode="&#x11f;" horiz-adv-x="870" 
d="M215 1382h113q4 -55 36 -85.5t80 -30.5q57 0 89 32.5t32 83.5h113q3 -108 -62.5 -177.5t-173.5 -69.5q-105 0 -167.5 70.5t-59.5 176.5zM772 684v-565q0 -171 -26 -266t-84 -154q-106 -109 -297 -109q-134 0 -238 48l45 169q84 -43 188 -43q99 0 147 66t48 205v78h-4
q-26 -52 -75.5 -80.5t-108.5 -28.5q-98 0 -168 68.5t-103 176.5t-33 243q0 126 27 227.5t73 164.5t104 96.5t122 33.5q121 0 184 -123h5l12 106h192q-10 -137 -10 -313zM555 365v278q0 39 -10 72q-29 112 -111 112q-75 0 -114 -90t-39 -239q0 -155 41.5 -237.5t107.5 -82.5
q82 0 113 105q12 32 12 82z" />
    <glyph glyph-name="Gdotaccent" unicode="&#x120;" horiz-adv-x="933" 
d="M848 750v-713q-46 -20 -123 -34.5t-145 -14.5q-222 0 -351 135q-83 86 -128 229.5t-44 325.5q1 150 33.5 272.5t86 203.5t126 136t150 79t161.5 24q136 0 213 -41l-43 -189q-61 33 -157 33q-55 0 -104 -16.5t-93 -55t-76 -97t-50.5 -148.5t-18.5 -203q0 -135 24 -235.5
t66 -157t90.5 -83t105.5 -26.5q54 0 74 10v387h-147v179h350zM543 1466h-2q-44 0 -77.5 34.5t-33.5 80.5t33.5 79.5t79.5 33.5q45 0 77.5 -33.5t32.5 -79.5t-32.5 -80.5t-77.5 -34.5z" />
    <glyph glyph-name="gdotaccent" unicode="&#x121;" horiz-adv-x="870" 
d="M444 1153h-2q-45 0 -75.5 32t-30.5 81t31.5 80.5t76.5 31.5t76 -31t31 -81q0 -49 -30.5 -81t-76.5 -32zM772 684v-565q0 -171 -26 -266t-84 -154q-106 -109 -297 -109q-134 0 -238 48l45 169q84 -43 188 -43q99 0 147 66t48 205v78h-4q-26 -52 -75.5 -80.5t-108.5 -28.5
q-98 0 -168 68.5t-103 176.5t-33 243q0 126 27 227.5t73 164.5t104 96.5t122 33.5q121 0 184 -123h5l12 106h192q-10 -137 -10 -313zM555 365v278q0 39 -10 72q-29 112 -111 112q-75 0 -114 -90t-39 -239q0 -155 41.5 -237.5t107.5 -82.5q82 0 113 105q12 32 12 82z" />
    <glyph glyph-name="Gcommaaccent" unicode="&#x122;" horiz-adv-x="933" 
d="M848 750v-713q-46 -20 -123 -34.5t-145 -14.5q-222 0 -351 135q-83 86 -128 229.5t-44 325.5q1 150 33.5 272.5t86 203.5t126 136t150 79t161.5 24q136 0 213 -41l-43 -189q-61 33 -157 33q-55 0 -104 -16.5t-93 -55t-76 -97t-50.5 -148.5t-18.5 -203q0 -135 24 -235.5
t66 -157t90.5 -83t105.5 -26.5q54 0 74 10v387h-147v179h350zM422 -451l-39 101q50 15 87.5 44t37.5 70q0 66 -68 125l164 27q74 -53 74 -147q0 -96 -72.5 -151.5t-183.5 -68.5z" />
    <glyph glyph-name="gcommaaccent" unicode="&#x123;" horiz-adv-x="870" 
d="M772 684v-565q0 -171 -26 -266t-84 -154q-106 -109 -297 -109q-134 0 -238 48l45 169q84 -43 188 -43q99 0 147 66t48 205v78h-4q-26 -52 -75.5 -80.5t-108.5 -28.5q-98 0 -168 68.5t-103 176.5t-33 243q0 126 27 227.5t73 164.5t104 96.5t122 33.5q121 0 184 -123h5
l12 106h192q-10 -137 -10 -313zM555 365v278q0 39 -10 72q-29 112 -111 112q-75 0 -114 -90t-39 -239q0 -155 41.5 -237.5t107.5 -82.5q82 0 113 105q12 32 12 82zM573 1460l39 -90q-137 -30 -137 -123q0 -73 74 -127l-158 -24q-30 23 -52 62t-22 83q0 99 72 152.5t184 66.5
z" />
    <glyph glyph-name="Hcircumflex" unicode="&#x124;" horiz-adv-x="1007" 
d="M121 1380h219v-571h328v571h219v-1380h-219v608h-328v-608h-219v1380zM416 1667h176l176 -213h-172l-90 109h-4l-92 -109h-166z" />
    <glyph glyph-name="hcircumflex" unicode="&#x125;" horiz-adv-x="888" 
d="M100 0v1417h219v-526h5q37 56 86 86q60 37 133 37q119 0 182 -97.5t63 -285.5v-631h-219v623q0 206 -114 206q-94 0 -127 -122q-9 -41 -9 -76v-631h-219zM125 1694h176l176 -213h-172l-90 108h-4l-92 -108h-166z" />
    <glyph glyph-name="Hbar" unicode="&#x126;" horiz-adv-x="1007" 
d="M979 975h-92v-975h-219v580h-328v-580h-219v975h-92v149h92v256h219v-256h328v256h219v-256h92v-149zM668 782v193h-328v-193h328z" />
    <glyph glyph-name="hbar" unicode="&#x127;" horiz-adv-x="888" 
d="M788 0h-219v623q0 206 -114 206q-94 0 -127 -122q-9 -41 -9 -76v-631h-219v1100h-123v141h123v176h219v-176h273v-141h-273v-209h5q37 56 86 86q60 37 133 37q119 0 182 -97.5t63 -285.5v-631z" />
    <glyph glyph-name="Itilde" unicode="&#x128;" horiz-adv-x="462" 
d="M121 1380h219v-1380h-219v1380zM104 1470h-104q-3 101 32 159.5t97 58.5q39 0 102 -35q5 -3 16.5 -10.5t17 -10.5t14 -7.5t16 -6.5t14.5 -2q23 0 35 17t16 59h103q6 -211 -135 -211q-51 0 -105 32q-3 2 -15.5 10t-16 10t-12.5 6t-15.5 5.5t-13.5 1.5q-40 0 -46 -76z" />
    <glyph glyph-name="itilde" unicode="&#x129;" horiz-adv-x="419" 
d="M80 1145h-107q0 95 36 157t102 62q13 0 25 -2t24.5 -6.5t20 -8t21.5 -11t19 -9.5q4 -2 15.5 -9t16 -9.5t13.5 -7t17 -6t16 -1.5q22 0 34 15.5t13 58.5h103q0 -103 -35.5 -156t-102.5 -53q-36 0 -104 33q-9 5 -26 15.5t-28.5 15t-23.5 4.5q-46 0 -49 -82zM319 0h-219v997
h219v-997z" />
    <glyph glyph-name="Imacron" unicode="&#x12a;" horiz-adv-x="462" 
d="M121 1380h219v-1380h-219v1380zM2 1645h461v-138h-461v138z" />
    <glyph glyph-name="imacron" unicode="&#x12b;" horiz-adv-x="419" 
d="M2 1321h420v-131h-420v131zM319 0h-219v997h219v-997z" />
    <glyph glyph-name="Ibreve" unicode="&#x12c;" horiz-adv-x="462" 
d="M121 1380h219v-1380h-219v1380zM-4 1681h121q5 -40 34 -64t78 -24q50 0 79.5 22.5t35.5 65.5h121q0 -100 -61 -159.5t-173 -59.5q-114 0 -174.5 58t-60.5 161z" />
    <glyph glyph-name="ibreve" unicode="&#x12d;" horiz-adv-x="419" 
d="M-20 1382h112q4 -54 36.5 -85t80.5 -31q57 0 89 32.5t32 83.5h112q3 -108 -62 -177.5t-173 -69.5q-105 0 -167.5 70.5t-59.5 176.5zM319 0h-219v997h219v-997z" />
    <glyph glyph-name="Iogonek" unicode="&#x12e;" horiz-adv-x="462" 
d="M340 1380v-1380h-78q-65 -99 -65 -182q0 -44 24 -68t58 -24q48 0 83 14l29 -115q-70 -47 -166 -47q-89 0 -138.5 48.5t-49.5 131.5q0 19 3 39t6.5 36t10.5 35.5t12.5 32t14.5 31t13 26t13 23.5t11 19v1380h219z" />
    <glyph glyph-name="iogonek" unicode="&#x12f;" horiz-adv-x="419" 
d="M207 1133h-2q-48 0 -81 35t-32 89q-1 57 32.5 92t84.5 35q52 0 84.5 -34.5t32.5 -92.5q1 -55 -32.5 -89.5t-86.5 -34.5zM319 997v-997h-77q-66 -100 -66 -184q0 -40 24.5 -65t59.5 -25q50 0 82 14l29 -115q-70 -47 -166 -47q-90 0 -138.5 49t-48.5 135q0 16 1.5 32.5
t6 33t8 30t10.5 30.5t11 26.5t13 26.5t11.5 22t11.5 20.5t9 16.5v997h219z" />
    <glyph glyph-name="Idotaccent" unicode="&#x130;" horiz-adv-x="462" 
d="M121 1380h219v-1380h-219v1380zM233 1475h-2q-44 0 -77 34t-33 80t33 79.5t79 33.5t78.5 -33.5t32.5 -79.5t-33 -80t-78 -34z" />
    <glyph glyph-name="dotlessi" unicode="&#x131;" horiz-adv-x="419" 
d="M319 0h-219v997h219v-997z" />
    <glyph glyph-name="IJ" unicode="&#x132;" horiz-adv-x="1040" 
d="M121 1380h219v-1380h-219v1380zM717 410v970h219v-962q0 -104 -19 -182t-50.5 -125.5t-79 -76.5t-97 -39.5t-112.5 -10.5q-78 0 -121 16l18 184q31 -8 82 -8q38 0 64.5 9t49.5 33.5t34.5 72t11.5 119.5z" />
    <glyph glyph-name="ij" unicode="&#x133;" horiz-adv-x="847" 
d="M319 0h-219v997h219v-997zM209 1384q52 0 84.5 -34.5t32.5 -92.5q1 -55 -33 -89.5t-88 -34.5q-48 0 -81 35t-32 89q-1 57 32.5 92t84.5 35zM371 -410l-21 174q94 16 131 64q27 35 37 97t10 192v880h220v-929q0 -157 -28.5 -245.5t-90.5 -144.5q-48 -40 -120.5 -63
t-137.5 -25zM639 1384q51 0 84 -35t33 -92q0 -55 -34 -89.5t-87 -34.5q-50 0 -83 34.5t-32 89.5q-1 57 33.5 92t85.5 35z" />
    <glyph glyph-name="Jcircumflex" unicode="&#x134;" horiz-adv-x="577" 
d="M254 410v970h219v-962q0 -104 -19 -182t-50.5 -125.5t-79 -76.5t-97 -39.5t-112.5 -10.5q-78 0 -121 16l18 184q31 -8 82 -8q38 0 64.5 9t49.5 33.5t34.5 72t11.5 119.5zM268 1667h176l177 -213h-172l-91 109h-4l-92 -109h-166z" />
    <glyph glyph-name="jcircumflex" unicode="&#x135;" horiz-adv-x="425" 
d="M-49 -410l-21 174q94 16 131 64q28 35 38 97.5t10 191.5v880h219v-929q0 -157 -28.5 -245.5t-90.5 -144.5q-48 -40 -120.5 -63t-137.5 -25zM139 1397h150l170 -283h-154l-88 170h-4l-88 -170h-156z" />
    <glyph glyph-name="Kcommaaccent" unicode="&#x136;" horiz-adv-x="888" 
d="M121 0v1380h217v-637h6q13 29 37.5 88t38.5 87l217 462h240l-322 -596l330 -784h-240l-237 614l-70 -122v-492h-217zM342 -442l-39 100q50 14 87.5 43.5t37.5 71.5q0 66 -68 125l164 26q74 -53 74 -147q0 -96 -72.5 -151t-183.5 -68z" />
    <glyph glyph-name="kcommaaccent" unicode="&#x137;" horiz-adv-x="790" 
d="M317 1417v-868h5q9 26 51 127l159 321h238l-252 -417l268 -580h-243l-174 436l-52 -88v-348h-217v1417h217zM281 -451l-39 101q50 15 87.5 44t37.5 70q0 66 -68 125l164 27q74 -53 74 -147q0 -96 -72.5 -151.5t-183.5 -68.5z" />
    <glyph glyph-name="kgreenlandic" unicode="&#x138;" horiz-adv-x="790" 
d="M317 997v-448h5q9 26 51 127l159 321h238l-252 -417l268 -580h-243l-174 436l-52 -88v-348h-217v997h217z" />
    <glyph glyph-name="Lacute" unicode="&#x139;" horiz-adv-x="745" 
d="M121 0v1380h219v-1196h369v-184h-588zM324 1681h233l-252 -227h-162z" />
    <glyph glyph-name="lacute" unicode="&#x13a;" horiz-adv-x="430" 
d="M100 0v1417h219v-1417h-219zM283 1708h233l-252 -227h-162z" />
    <glyph glyph-name="Lcommaaccent" unicode="&#x13b;" horiz-adv-x="745" 
d="M121 0v1380h219v-1196h369v-184h-588zM260 -451l-39 101q50 15 87.5 44t37.5 70q0 67 -67 125l163 27q74 -53 74 -147q0 -96 -72.5 -151.5t-183.5 -68.5z" />
    <glyph glyph-name="lcommaaccent" unicode="&#x13c;" horiz-adv-x="430" 
d="M100 0v1417h219v-1417h-219zM94 -451l-39 101q50 15 87.5 44t37.5 70q0 67 -67 125l163 27q74 -53 74 -147q0 -96 -72.5 -151.5t-183.5 -68.5z" />
    <glyph glyph-name="Lcaron" unicode="&#x13d;" horiz-adv-x="745" 
d="M121 0v1380h219v-1196h369v-184h-588zM451 1016l-39 100q50 14 87.5 43.5t37.5 71.5q0 66 -68 125l164 26q74 -53 74 -147q0 -96 -72.5 -151t-183.5 -68z" />
    <glyph glyph-name="lcaron" unicode="&#x13e;" horiz-adv-x="440" 
d="M100 0v1417h219v-1417h-219zM487 1020l-86 61q62 85 62 181q0 81 -62 139l146 24q29 -21 48 -59.5t19 -89.5q0 -136 -127 -256z" />
    <glyph glyph-name="Ldot" unicode="&#x13f;" horiz-adv-x="745" 
d="M121 0v1380h219v-1196h369v-184h-588zM555 629h-2q-44 0 -77.5 34t-33.5 80t33.5 79.5t79.5 33.5t78.5 -33.5t32.5 -79.5t-33 -80t-78 -34z" />
    <glyph glyph-name="ldot" unicode="&#x140;" horiz-adv-x="577" 
d="M100 0v1417h219v-1417h-219zM504 721h-2q-42 0 -71.5 31.5t-29.5 78.5t30.5 79t72.5 32t70 -31t28 -80q0 -47 -27.5 -78.5t-70.5 -31.5z" />
    <glyph glyph-name="Lslash" unicode="&#x141;" horiz-adv-x="753" 
d="M717 0h-588v500l-129 -113v188l129 115v690h219v-530l203 174v-190l-203 -175v-475h369v-184z" />
    <glyph glyph-name="lslash" unicode="&#x142;" horiz-adv-x="438" 
d="M328 0h-217v584l-119 -113v186l119 113v647h217v-506l123 115v-186l-123 -115v-725z" />
    <glyph glyph-name="Nacute" unicode="&#x143;" horiz-adv-x="1009" 
d="M315 0h-194v1380h203l231 -589q134 -355 160 -437h4q-23 405 -23 637v389h193v-1380h-203l-233 588q-106 275 -150 438h-4q16 -320 16 -641v-385zM592 1681h233l-252 -227h-161z" />
    <glyph glyph-name="nacute" unicode="&#x144;" horiz-adv-x="888" 
d="M512 1405h203l-211 -283h-139zM100 0v717q0 104 -8 280h191l10 -116h4q36 62 97.5 97.5t137.5 35.5q125 0 190.5 -93.5t65.5 -267.5v-653h-219v633q0 196 -116 196q-42 0 -75.5 -31.5t-47.5 -90.5q-11 -37 -11 -91v-616h-219z" />
    <glyph glyph-name="Ncommaaccent" unicode="&#x145;" horiz-adv-x="1009" 
d="M315 0h-194v1380h203l231 -589q134 -355 160 -437h4q-23 405 -23 637v389h193v-1380h-203l-233 588q-106 275 -150 438h-4q16 -320 16 -641v-385zM381 -438l-39 100q50 14 87.5 43.5t37.5 71.5q0 66 -68 125l164 26q74 -53 74 -147q0 -96 -72.5 -151t-183.5 -68z" />
    <glyph glyph-name="ncommaaccent" unicode="&#x146;" horiz-adv-x="888" 
d="M100 0v717q0 104 -8 280h191l10 -116h4q36 62 97.5 97.5t137.5 35.5q125 0 190.5 -93.5t65.5 -267.5v-653h-219v633q0 196 -116 196q-42 0 -75.5 -31.5t-47.5 -90.5q-11 -37 -11 -91v-616h-219zM332 -444l-39 100q50 14 87.5 43.5t37.5 71.5q0 66 -68 125l164 26
q74 -53 74 -147q0 -96 -72.5 -151t-183.5 -68z" />
    <glyph glyph-name="Ncaron" unicode="&#x147;" horiz-adv-x="1009" 
d="M315 0h-194v1380h203l231 -589q134 -355 160 -437h4q-23 405 -23 637v389h193v-1380h-203l-233 588q-106 275 -150 438h-4q16 -320 16 -641v-385zM594 1454h-176l-174 213h170l90 -113h4l92 113h166z" />
    <glyph glyph-name="ncaron" unicode="&#x148;" horiz-adv-x="888" 
d="M520 1122h-151l-168 283h153l88 -170h4l89 170h155zM100 0v717q0 104 -8 280h191l10 -116h4q36 62 97.5 97.5t137.5 35.5q125 0 190.5 -93.5t65.5 -267.5v-653h-219v633q0 196 -116 196q-42 0 -75.5 -31.5t-47.5 -90.5q-11 -37 -11 -91v-616h-219z" />
    <glyph glyph-name="napostrophe" unicode="&#x149;" horiz-adv-x="888" 
d="M100 0v717q0 104 -8 280h191l10 -116h4q36 62 97.5 97.5t137.5 35.5q125 0 190.5 -93.5t65.5 -267.5v-653h-219v633q0 196 -116 196q-42 0 -75.5 -31.5t-47.5 -90.5q-11 -37 -11 -91v-616h-219zM109 1071l-99 55q62 80 62 164q0 38 -18 71t-44 52l156 23q29 -16 49.5 -52
t20.5 -81q0 -34 -11 -68t-22 -54.5t-35.5 -49t-30.5 -34.5t-28 -26z" />
    <glyph glyph-name="Eng" unicode="&#x14a;" horiz-adv-x="1009" 
d="M315 0h-194v1380h203l231 -589q134 -355 160 -437h4q-23 405 -23 637v389h193v-1325q0 -192 -76 -306.5t-242 -147.5l-53 166q171 50 174 210l-239 611q-106 275 -150 438h-4q16 -320 16 -641v-385z" />
    <glyph glyph-name="eng" unicode="&#x14b;" horiz-adv-x="888" 
d="M100 0v717q0 104 -8 280h191l10 -116h4q36 62 97.5 97.5t137.5 35.5q125 0 190.5 -93.5t65.5 -267.5v-583q0 -387 -321 -443l-47 170q75 19 112 73.5t37 174.5v588q0 196 -116 196q-42 0 -75.5 -31.5t-47.5 -90.5q-11 -37 -11 -91v-616h-219z" />
    <glyph glyph-name="Omacron" unicode="&#x14c;" horiz-adv-x="952" 
d="M489 1397q85 0 153.5 -36t115 -99t78 -151t45.5 -188t14 -214q0 -190 -32 -332t-90 -226.5t-134 -125.5t-170 -41q-134 0 -228 91t-139 248.5t-45 368.5q0 208 50 366t148.5 248.5t233.5 90.5zM479 1206q-50 0 -88 -39.5t-60.5 -110.5t-34 -163t-11.5 -203
q0 -116 11.5 -208.5t34.5 -162t61 -107.5t89 -38t88.5 42t58.5 117t30.5 165.5t9.5 199.5q0 101 -9 186t-29.5 160.5t-59 118.5t-91.5 43zM248 1645h461v-138h-461v138z" />
    <glyph glyph-name="omacron" unicode="&#x14d;" horiz-adv-x="839" 
d="M211 1321h420v-131h-420v131zM426 1014q160 0 255 -135t95 -377q0 -116 -23 -208t-59 -149t-84.5 -94.5t-95.5 -52t-96 -14.5q-163 0 -260 133t-97 379q0 130 30.5 232t82.5 163t116 92t136 31zM422 844q-42 0 -71.5 -32t-44 -87t-20 -109t-5.5 -116q0 -348 145 -348
q39 0 66.5 32t41 86.5t19.5 110.5t6 119q0 61 -6 116t-20 109.5t-42.5 86.5t-68.5 32z" />
    <glyph glyph-name="Obreve" unicode="&#x14e;" horiz-adv-x="952" 
d="M489 1397q85 0 153.5 -36t115 -99t78 -151t45.5 -188t14 -214q0 -190 -32 -332t-90 -226.5t-134 -125.5t-170 -41q-134 0 -228 91t-139 248.5t-45 368.5q0 208 50 366t148.5 248.5t233.5 90.5zM479 1206q-50 0 -88 -39.5t-60.5 -110.5t-34 -163t-11.5 -203
q0 -116 11.5 -208.5t34.5 -162t61 -107.5t89 -38t88.5 42t58.5 117t30.5 165.5t9.5 199.5q0 101 -9 186t-29.5 160.5t-59 118.5t-91.5 43zM240 1681h120q5 -40 34.5 -64t78.5 -24q50 0 79.5 22.5t35.5 65.5h121q0 -100 -61 -159.5t-173 -59.5q-114 0 -174.5 58t-60.5 161z
" />
    <glyph glyph-name="obreve" unicode="&#x14f;" horiz-adv-x="839" 
d="M186 1382h113q4 -54 36.5 -85t80.5 -31q57 0 89 32.5t32 83.5h112q3 -108 -62 -177.5t-173 -69.5q-105 0 -168 70.5t-60 176.5zM426 1014q160 0 255 -135t95 -377q0 -116 -23 -208t-59 -149t-84.5 -94.5t-95.5 -52t-96 -14.5q-163 0 -260 133t-97 379q0 130 30.5 232
t82.5 163t116 92t136 31zM422 844q-42 0 -71.5 -32t-44 -87t-20 -109t-5.5 -116q0 -348 145 -348q39 0 66.5 32t41 86.5t19.5 110.5t6 119q0 61 -6 116t-20 109.5t-42.5 86.5t-68.5 32z" />
    <glyph glyph-name="Ohungarumlaut" unicode="&#x150;" horiz-adv-x="952" 
d="M489 1397q85 0 153.5 -36t115 -99t78 -151t45.5 -188t14 -214q0 -190 -32 -332t-90 -226.5t-134 -125.5t-170 -41q-134 0 -228 91t-139 248.5t-45 368.5q0 208 50 366t148.5 248.5t233.5 90.5zM479 1206q-50 0 -88 -39.5t-60.5 -110.5t-34 -163t-11.5 -203
q0 -116 11.5 -208.5t34.5 -162t61 -107.5t89 -38t88.5 42t58.5 117t30.5 165.5t9.5 199.5q0 101 -9 186t-29.5 160.5t-59 118.5t-91.5 43zM403 1681h197l-197 -215h-131zM686 1681h197l-197 -215h-131z" />
    <glyph glyph-name="ohungarumlaut" unicode="&#x151;" horiz-adv-x="839" 
d="M371 1405h172l-209 -283h-117zM641 1405h170l-209 -283h-115zM426 1014q160 0 255 -135t95 -377q0 -116 -23 -208t-59 -149t-84.5 -94.5t-95.5 -52t-96 -14.5q-163 0 -260 133t-97 379q0 130 30.5 232t82.5 163t116 92t136 31zM422 844q-42 0 -71.5 -32t-44 -87t-20 -109
t-5.5 -116q0 -348 145 -348q39 0 66.5 32t41 86.5t19.5 110.5t6 119q0 61 -6 116t-20 109.5t-42.5 86.5t-68.5 32z" />
    <glyph glyph-name="OE" unicode="&#x152;" horiz-adv-x="1294" 
d="M1237 190v-190h-524q-56 -4 -80 -8q-54 -8 -80 -8q-112 0 -199.5 39.5t-142.5 104.5t-90.5 158t-49.5 191t-14 211q0 324 134.5 516.5t375.5 192.5q30 0 84 -8q42 -6 74 -9h487v-190h-348v-379h328v-182h-328v-439h373zM645 190v994q-36 22 -98 22q-39 0 -75.5 -17
t-71 -56t-60 -96.5t-41 -145.5t-14.5 -197q-1 -139 20.5 -242t60 -162.5t86.5 -87.5t105 -28q59 0 88 16z" />
    <glyph glyph-name="oe" unicode="&#x153;" horiz-adv-x="1310" 
d="M1249 446h-469q10 -294 221 -294q85 0 183 36l33 -149q-93 -55 -250 -55q-96 0 -174 46t-117 140h-4q-36 -93 -109 -139.5t-155 -46.5q-154 0 -250.5 134.5t-96.5 377.5q0 129 30.5 230.5t82.5 163t115.5 93t134.5 31.5q83 0 152.5 -46.5t103.5 -138.5h4q92 185 270 185
q143 0 222 -127.5t79 -329.5q0 -77 -6 -111zM426 844h-2q-44 0 -74 -33.5t-44 -90t-19.5 -109.5t-5.5 -113q0 -346 147 -346q143 0 143 350q0 63 -6 117.5t-20.5 108.5t-45 85t-73.5 31zM784 594h267q3 117 -30 185.5t-89 68.5q-47 0 -81 -39t-50 -95t-17 -120z" />
    <glyph glyph-name="Racute" unicode="&#x154;" horiz-adv-x="907" 
d="M121 0v1360q110 26 264 26q234 0 342 -100q104 -101 104 -280q0 -120 -56.5 -211t-160.5 -138v-4q71 -26 112 -96t62 -195q55 -299 86 -362h-227q-30 66 -72 336q-20 132 -62 184.5t-124 52.5h-51v-573h-217zM338 1206v-465h57q97 0 155 68.5t58 175.5q0 226 -196 229
q-50 0 -74 -8zM508 1681h233l-252 -227h-161z" />
    <glyph glyph-name="racute" unicode="&#x155;" horiz-adv-x="559" 
d="M362 1405h203l-211 -283h-139zM100 0v717q0 54 -3.5 156t-4.5 124h191l12 -151h6q29 76 85 122t118 46q21 0 45 -4v-219q-12 4 -45 4q-59 0 -109 -46.5t-67 -125.5q-9 -37 -9 -97v-526h-219z" />
    <glyph glyph-name="Rcommaaccent" unicode="&#x156;" horiz-adv-x="907" 
d="M121 0v1360q110 26 264 26q234 0 342 -100q104 -101 104 -280q0 -120 -56.5 -211t-160.5 -138v-4q71 -26 112 -96t62 -195q55 -299 86 -362h-227q-30 66 -72 336q-20 132 -62 184.5t-124 52.5h-51v-573h-217zM338 1206v-465h57q97 0 155 68.5t58 175.5q0 226 -196 229
q-50 0 -74 -8zM338 -442l-39 100q50 14 87.5 43.5t37.5 71.5q0 66 -68 125l164 26q74 -53 74 -147q0 -96 -72.5 -151t-183.5 -68z" />
    <glyph glyph-name="rcommaaccent" unicode="&#x157;" horiz-adv-x="559" 
d="M100 0v717q0 54 -3.5 156t-4.5 124h191l12 -151h6q29 76 85 122t118 46q21 0 45 -4v-219q-12 4 -45 4q-59 0 -109 -46.5t-67 -125.5q-9 -37 -9 -97v-526h-219zM129 -451l-39 101q50 15 87.5 44t37.5 70q0 66 -68 125l164 27q74 -53 74 -147q0 -96 -72.5 -151.5
t-183.5 -68.5z" />
    <glyph glyph-name="Rcaron" unicode="&#x158;" horiz-adv-x="907" 
d="M121 0v1360q110 26 264 26q234 0 342 -100q104 -101 104 -280q0 -120 -56.5 -211t-160.5 -138v-4q71 -26 112 -96t62 -195q55 -299 86 -362h-227q-30 66 -72 336q-20 132 -62 184.5t-124 52.5h-51v-573h-217zM338 1206v-465h57q97 0 155 68.5t58 175.5q0 226 -196 229
q-50 0 -74 -8zM532 1454h-176l-174 213h170l90 -113h4l93 113h166z" />
    <glyph glyph-name="rcaron" unicode="&#x159;" horiz-adv-x="559" 
d="M377 1122h-152l-168 283h154l88 -170h4l88 170h156zM100 0v717q0 54 -3.5 156t-4.5 124h191l12 -151h6q29 76 85 122t118 46q21 0 45 -4v-219q-12 4 -45 4q-59 0 -109 -46.5t-67 -125.5q-9 -37 -9 -97v-526h-219z" />
    <glyph glyph-name="Sacute" unicode="&#x15a;" horiz-adv-x="776" 
d="M53 45l37 188q39 -23 99.5 -39t113.5 -16q99 0 154 53t55 140q0 78 -43 132.5t-137 119.5q-120 76 -190 176t-70 209q0 167 107.5 276t295.5 109q61 0 118.5 -15t88.5 -35l-41 -188q-70 47 -170 47q-88 0 -136 -49.5t-48 -118.5q0 -76 41.5 -125t154.5 -121
q244 -161 244 -395q0 -184 -118 -294.5t-306 -110.5q-75 0 -145.5 17t-104.5 40zM465 1681h233l-252 -227h-161z" />
    <glyph glyph-name="sacute" unicode="&#x15b;" horiz-adv-x="630" 
d="M383 1405h203l-211 -283h-139zM41 45l43 162q31 -21 78.5 -37t93.5 -16q59 0 92 30t33 84q0 46 -26.5 82t-94.5 80q-203 122 -203 285q0 129 86 214t219 85q104 0 193 -49l-45 -162q-67 43 -137 43q-54 0 -83.5 -30.5t-29.5 -74.5q0 -40 24.5 -69.5t96.5 -75.5
q203 -122 203 -301q0 -147 -91.5 -227t-238.5 -80q-60 0 -120 15.5t-93 41.5z" />
    <glyph glyph-name="Scircumflex" unicode="&#x15c;" horiz-adv-x="776" 
d="M53 45l37 188q39 -23 99.5 -39t113.5 -16q99 0 154 53t55 140q0 78 -43 132.5t-137 119.5q-120 76 -190 176t-70 209q0 167 107.5 276t295.5 109q61 0 118.5 -15t88.5 -35l-41 -188q-70 47 -170 47q-88 0 -136 -49.5t-48 -118.5q0 -76 41.5 -125t154.5 -121
q244 -161 244 -395q0 -184 -118 -294.5t-306 -110.5q-75 0 -145.5 17t-104.5 40zM315 1667h177l176 -213h-172l-90 109h-5l-92 -109h-166z" />
    <glyph glyph-name="scircumflex" unicode="&#x15d;" horiz-adv-x="630" 
d="M242 1405h149l170 -283h-153l-89 170h-4l-88 -170h-155zM41 45l43 162q31 -21 78.5 -37t93.5 -16q59 0 92 30t33 84q0 46 -26.5 82t-94.5 80q-203 122 -203 285q0 129 86 214t219 85q104 0 193 -49l-45 -162q-67 43 -137 43q-54 0 -83.5 -30.5t-29.5 -74.5
q0 -40 24.5 -69.5t96.5 -75.5q203 -122 203 -301q0 -147 -91.5 -227t-238.5 -80q-60 0 -120 15.5t-93 41.5z" />
    <glyph glyph-name="Scedilla" unicode="&#x15e;" horiz-adv-x="776" 
d="M53 45l37 188q39 -23 99.5 -39t113.5 -16q99 0 154 53t55 140q0 78 -43 132.5t-137 119.5q-120 76 -190 176t-70 209q0 167 107.5 276t295.5 109q61 0 118.5 -15t88.5 -35l-41 -188q-70 47 -170 47q-88 0 -136 -49.5t-48 -118.5q0 -76 41.5 -125t154.5 -121
q244 -161 244 -395q0 -145 -76.5 -247.5t-206.5 -139.5l-51 -102q55 -8 95 -49t40 -99q0 -86 -61 -128t-148 -42q-85 0 -145 37l35 103q57 -31 106 -31q29 0 49.5 13.5t20.5 43.5q0 34 -38 55t-103 27l69 154h-10q-75 0 -145.5 17t-104.5 40z" />
    <glyph glyph-name="scedilla" unicode="&#x15f;" horiz-adv-x="630" 
d="M41 45l43 162q31 -21 78.5 -37t93.5 -16q59 0 92 30t33 84q0 46 -26.5 82t-94.5 80q-203 122 -203 285q0 129 86 214t219 85q104 0 193 -49l-45 -162q-67 43 -137 43q-54 0 -83.5 -30.5t-29.5 -74.5q0 -40 24.5 -69.5t96.5 -75.5q203 -122 203 -301q0 -114 -56.5 -188
t-154.5 -103l-49 -100q55 -8 95 -49t40 -99q0 -86 -61 -128t-148 -42q-86 0 -146 37l35 103q57 -31 107 -31q30 0 49.5 13t19.5 42q0 35 -37.5 56.5t-103.5 27.5l70 154h-6q-44 0 -100 14.5t-97 42.5z" />
    <glyph glyph-name="Scaron" unicode="&#x160;" horiz-adv-x="776" 
d="M53 45l37 188q39 -23 99.5 -39t113.5 -16q99 0 154 53t55 140q0 78 -43 132.5t-137 119.5q-120 76 -190 176t-70 209q0 167 107.5 276t295.5 109q61 0 118.5 -15t88.5 -35l-41 -188q-70 47 -170 47q-88 0 -136 -49.5t-48 -118.5q0 -76 41.5 -125t154.5 -121
q244 -161 244 -395q0 -184 -118 -294.5t-306 -110.5q-75 0 -145.5 17t-104.5 40zM506 1454h-176l-174 213h170l90 -113h4l92 113h166z" />
    <glyph glyph-name="scaron" unicode="&#x161;" horiz-adv-x="630" 
d="M393 1122h-151l-168 283h153l88 -170h4l89 170h155zM41 45l43 162q31 -21 78.5 -37t93.5 -16q59 0 92 30t33 84q0 46 -26.5 82t-94.5 80q-203 122 -203 285q0 129 86 214t219 85q104 0 193 -49l-45 -162q-67 43 -137 43q-54 0 -83.5 -30.5t-29.5 -74.5q0 -40 24.5 -69.5
t96.5 -75.5q203 -122 203 -301q0 -147 -91.5 -227t-238.5 -80q-60 0 -120 15.5t-93 41.5z" />
    <glyph glyph-name="Tcommaaccent" unicode="&#x162;" horiz-adv-x="770" 
d="M274 0v1180h-247v200h716v-200h-249v-1180h-220zM260 -451l-39 101q50 15 87.5 44t37.5 70q0 67 -67 125l163 27q74 -53 74 -147q0 -96 -72.5 -151.5t-183.5 -68.5z" />
    <glyph glyph-name="tcommaaccent" unicode="&#x163;" horiz-adv-x="585" 
d="M143 1169l219 76v-248h193v-159h-193v-516q0 -154 103 -154q33 0 67 6l5 -170q-53 -16 -144 -16q-115 0 -176 61q-38 38 -56 100.5t-18 169.5v519h-118v159h118v172zM188 -451l-38 101q50 15 87 43.5t37 70.5q0 67 -67 125l164 27q30 -22 51.5 -59.5t21.5 -87.5
q0 -96 -72.5 -151.5t-183.5 -68.5z" />
    <glyph glyph-name="Tcaron" unicode="&#x164;" horiz-adv-x="770" 
d="M274 0v1180h-247v200h716v-200h-249v-1180h-220zM473 1454h-176l-174 213h170l90 -113h4l92 113h166z" />
    <glyph glyph-name="tcaron" unicode="&#x165;" horiz-adv-x="606" 
d="M143 1169l219 76v-248h193v-159h-193v-516q0 -154 103 -154q33 0 67 6l5 -170q-53 -16 -144 -16q-115 0 -176 61q-38 38 -56 100.5t-18 169.5v519h-118v159h118v172zM600 1106l-96 55q24 29 41.5 74.5t17.5 93.5q0 80 -51 127l154 23q69 -51 69 -138q0 -121 -135 -235z
" />
    <glyph glyph-name="Tbar" unicode="&#x166;" horiz-adv-x="770" 
d="M743 1180h-249v-389h168v-154h-168v-637h-220v637h-168v154h168v389h-247v200h716v-200z" />
    <glyph glyph-name="tbar" unicode="&#x167;" horiz-adv-x="585" 
d="M555 838h-193v-187h152v-141h-152v-188q0 -154 103 -154q33 0 67 6l5 -170q-53 -16 -144 -16q-115 0 -176 61q-38 38 -56 100.5t-18 169.5v191h-114v141h114v187h-118v159h118v172l219 76v-248h193v-159z" />
    <glyph glyph-name="Utilde" unicode="&#x168;" horiz-adv-x="985" 
d="M115 1380h219v-909q0 -295 158 -295q76 0 116.5 67.5t40.5 227.5v909h219v-872q0 -263 -98 -393.5t-281 -130.5q-189 0 -281.5 128t-92.5 386v882zM365 1470h-105q-3 101 32 159.5t97 58.5q40 0 103 -35q4 -3 19.5 -13t21.5 -13t16.5 -7t19.5 -4q24 0 36 17t16 59h102
q6 -211 -135 -211q-51 0 -105 32q-3 2 -15.5 10t-16 10t-12.5 6t-15.5 5.5t-13.5 1.5q-39 0 -45 -76z" />
    <glyph glyph-name="utilde" unicode="&#x169;" horiz-adv-x="876" 
d="M307 1145h-106q0 96 35.5 157.5t101.5 61.5q13 0 25 -2t25 -7t20 -8t22 -10.5l19 -9.5q5 -3 15.5 -9.5t15.5 -9.5t13.5 -7t16.5 -5.5t16 -1.5q22 0 34 15.5t13 58.5h103q0 -103 -35 -156t-102 -53q-37 0 -105 33q-9 5 -26 15.5t-28.5 15t-23.5 4.5q-46 0 -49 -82z
M772 997v-708q0 -121 8 -289h-188l-14 104h-5q-33 -50 -91 -85t-132 -35q-134 0 -194 98.5t-60 298.5v616h217v-589q0 -242 117 -242q45 0 73.5 30.5t37.5 67.5q12 35 12 86v647h219z" />
    <glyph glyph-name="Umacron" unicode="&#x16a;" horiz-adv-x="985" 
d="M115 1380h219v-909q0 -295 158 -295q76 0 116.5 67.5t40.5 227.5v909h219v-872q0 -263 -98 -393.5t-281 -130.5q-189 0 -281.5 128t-92.5 386v882zM260 1645h461v-138h-461v138z" />
    <glyph glyph-name="umacron" unicode="&#x16b;" horiz-adv-x="876" 
d="M227 1321h420v-131h-420v131zM772 997v-708q0 -121 8 -289h-188l-14 104h-5q-33 -50 -91 -85t-132 -35q-134 0 -194 98.5t-60 298.5v616h217v-589q0 -242 117 -242q45 0 73.5 30.5t37.5 67.5q12 35 12 86v647h219z" />
    <glyph glyph-name="Ubreve" unicode="&#x16c;" horiz-adv-x="985" 
d="M115 1380h219v-909q0 -295 158 -295q76 0 116.5 67.5t40.5 227.5v909h219v-872q0 -263 -98 -393.5t-281 -130.5q-189 0 -281.5 128t-92.5 386v882zM256 1669h121q5 -40 34 -64t78 -24q50 0 79.5 22.5t35.5 65.5h121q0 -100 -60.5 -159.5t-172.5 -59.5q-114 0 -175 58
t-61 161z" />
    <glyph glyph-name="ubreve" unicode="&#x16d;" horiz-adv-x="876" 
d="M207 1382h112q4 -54 36.5 -85t80.5 -31q57 0 89 32.5t32 83.5h113q3 -108 -62.5 -177.5t-173.5 -69.5q-105 0 -167.5 70.5t-59.5 176.5zM772 997v-708q0 -121 8 -289h-188l-14 104h-5q-33 -50 -91 -85t-132 -35q-134 0 -194 98.5t-60 298.5v616h217v-589q0 -242 117 -242
q45 0 73.5 30.5t37.5 67.5q12 35 12 86v647h219z" />
    <glyph glyph-name="Uring" unicode="&#x16e;" horiz-adv-x="985" 
d="M115 1380h219v-909q0 -295 158 -295q76 0 116.5 67.5t40.5 227.5v909h219v-872q0 -263 -98 -393.5t-281 -130.5q-189 0 -281.5 128t-92.5 386v882zM492 1784h2q98 0 150 -53t52 -132q0 -78 -54 -131t-150 -53q-98 0 -151.5 52.5t-53.5 127.5q0 77 54.5 133t150.5 56z
M489 1698h-2q-39 0 -60 -31t-21 -72q0 -36 21.5 -64t61.5 -28q42 0 64 27.5t22 68.5q0 40 -22 69.5t-64 29.5z" />
    <glyph glyph-name="uring" unicode="&#x16f;" horiz-adv-x="876" 
d="M440 1098q-94 0 -148 51t-54 127q0 81 53.5 134.5t150.5 53.5q93 0 145 -51.5t52 -132.5q0 -78 -54.5 -130t-144.5 -52zM438 1180q46 0 68 29t22 71q0 43 -22 72.5t-70 29.5q-42 0 -64 -32t-22 -74q0 -36 23 -66t65 -30zM772 997v-708q0 -121 8 -289h-188l-14 104h-5
q-33 -50 -91 -85t-132 -35q-134 0 -194 98.5t-60 298.5v616h217v-589q0 -242 117 -242q45 0 73.5 30.5t37.5 67.5q12 35 12 86v647h219z" />
    <glyph glyph-name="Uhungarumlaut" unicode="&#x170;" horiz-adv-x="985" 
d="M115 1380h219v-909q0 -295 158 -295q76 0 116.5 67.5t40.5 227.5v909h219v-872q0 -263 -98 -393.5t-281 -130.5q-189 0 -281.5 128t-92.5 386v882zM397 1681h197l-197 -215h-131zM680 1681h197l-197 -215h-131z" />
    <glyph glyph-name="uhungarumlaut" unicode="&#x171;" horiz-adv-x="876" 
d="M389 1405h172l-209 -283h-116zM659 1405h170l-208 -283h-115zM772 997v-708q0 -121 8 -289h-188l-14 104h-5q-33 -50 -91 -85t-132 -35q-134 0 -194 98.5t-60 298.5v616h217v-589q0 -242 117 -242q45 0 73.5 30.5t37.5 67.5q12 35 12 86v647h219z" />
    <glyph glyph-name="Uogonek" unicode="&#x172;" horiz-adv-x="985" 
d="M696 -240l27 -114q-76 -52 -164 -52q-89 0 -138.5 46.5t-49.5 121.5q0 101 98 226h-20q-334 25 -334 510v882h219v-909q0 -295 158 -295q76 0 116.5 67.5t40.5 227.5v909h219v-872q0 -199 -57.5 -324t-169.5 -166q-48 -42 -80.5 -97.5t-32.5 -100.5q0 -40 22 -60t56 -20
q51 0 90 20z" />
    <glyph glyph-name="uogonek" unicode="&#x173;" horiz-adv-x="876" 
d="M772 997v-708q0 -169 12 -289h-53q-65 -99 -65 -184q0 -40 24.5 -65t59.5 -25q50 0 81 14l29 -115q-70 -47 -166 -47q-90 0 -138 49t-48 135q0 98 84 238l-14 104h-5q-33 -50 -91 -85t-132 -35q-134 0 -194 98.5t-60 298.5v616h217v-589q0 -242 117 -242q45 0 73.5 30.5
t37.5 67.5q12 35 12 86v647h219z" />
    <glyph glyph-name="Wcircumflex" unicode="&#x174;" horiz-adv-x="1368" 
d="M496 0h-213l-250 1380h227l90 -602q25 -175 58 -491h6q5 50 11.5 99t16 103.5t16 90.5t19 103t17.5 97l110 600h180l107 -592q55 -304 74 -501h4q6 57 61 497l90 596h213l-254 -1380h-223l-104 551q-41 227 -64 453h-4q-39 -274 -76 -457zM604 1667h176l176 -213h-172
l-90 109h-4l-92 -109h-166z" />
    <glyph glyph-name="wcircumflex" unicode="&#x175;" horiz-adv-x="1216" 
d="M535 1405h149l170 -283h-154l-88 170h-4l-88 -170h-155zM16 997h234l72 -456q35 -232 43 -310h8q17 116 57 306l100 460h168l97 -448q42 -206 57 -318h6q8 96 43 314l76 452h217l-254 -997h-184l-92 408q-34 141 -54 307h-4q-18 -149 -57 -309l-100 -406h-187z" />
    <glyph glyph-name="Ycircumflex" unicode="&#x176;" horiz-adv-x="815" 
d="M514 0h-219v553l-303 827h233l107 -336q42 -132 86 -303h4q24 127 80 310l98 329h227l-313 -819v-561zM322 1667h176l176 -213h-172l-90 109h-4l-93 -109h-165z" />
    <glyph glyph-name="ycircumflex" unicode="&#x177;" horiz-adv-x="757" 
d="M309 1405h150l170 -283h-154l-88 170h-4l-88 -170h-156zM16 997h234l115 -542q8 -40 19.5 -109.5t12.5 -75.5h4q9 57 33 181l98 546h216l-187 -712q-100 -407 -233 -568q-52 -64 -108 -102t-97 -53l-70 188q69 31 135 103q52 55 86 139q13 33 13 47q0 19 -6 37z" />
    <glyph glyph-name="Ydieresis" unicode="&#x178;" horiz-adv-x="815" 
d="M514 0h-219v553l-303 827h233l107 -336q42 -132 86 -303h4q24 127 80 310l98 329h227l-313 -819v-561zM240 1464h-2q-42 0 -72.5 33t-30.5 82t31 82t74 33q46 0 76 -32.5t30 -82.5t-30 -82.5t-76 -32.5zM598 1464h-2q-45 0 -76 33t-31 82t32 82t77 33q44 0 74 -33t30 -82
t-30 -82t-74 -33z" />
    <glyph glyph-name="Zacute" unicode="&#x179;" horiz-adv-x="765" 
d="M31 0v129l452 1057v4h-413v190h659v-157l-438 -1026v-7h436v-190h-696zM467 1681h233l-251 -227h-162z" />
    <glyph glyph-name="zacute" unicode="&#x17a;" horiz-adv-x="684" 
d="M416 1405h202l-210 -283h-140zM35 0v135l276 522q75 129 88 156v4h-329v180h569v-147l-272 -508q-68 -121 -88 -158v-4h364v-180h-608z" />
    <glyph glyph-name="Zdotaccent" unicode="&#x17b;" horiz-adv-x="765" 
d="M31 0v129l452 1057v4h-413v190h659v-157l-438 -1026v-7h436v-190h-696zM410 1468h-2q-44 0 -77.5 34.5t-33.5 80.5t33.5 79.5t79.5 33.5q45 0 77.5 -33.5t32.5 -79.5t-32.5 -80.5t-77.5 -34.5z" />
    <glyph glyph-name="zdotaccent" unicode="&#x17c;" horiz-adv-x="684" 
d="M348 1153h-2q-45 0 -75.5 32t-30.5 81t31.5 80.5t76.5 31.5t76 -31t31 -81q0 -49 -30.5 -81t-76.5 -32zM35 0v135l276 522q75 129 88 156v4h-329v180h569v-147l-272 -508q-68 -121 -88 -158v-4h364v-180h-608z" />
    <glyph glyph-name="Zcaron" unicode="&#x17d;" horiz-adv-x="765" 
d="M31 0v129l452 1057v4h-413v190h659v-157l-438 -1026v-7h436v-190h-696zM492 1454h-177l-174 213h170l90 -113h5l92 113h166z" />
    <glyph glyph-name="zcaron" unicode="&#x17e;" horiz-adv-x="684" 
d="M436 1122h-151l-168 283h153l88 -170h4l89 170h155zM35 0v135l276 522q75 129 88 156v4h-329v180h569v-147l-272 -508q-68 -121 -88 -158v-4h364v-180h-608z" />
    <glyph glyph-name="florin" unicode="&#x192;" horiz-adv-x="835" 
d="M158 657v170h155l11 103q10 87 34.5 160t66.5 132t108.5 92.5t150.5 33.5q68 0 123 -25l-31 -162q-44 13 -82 13q-134 0 -159 -236l-15 -111h187v-170h-199l-47 -417q-10 -93 -29.5 -161t-56 -125.5t-97 -87.5t-145.5 -30q-79 0 -139 33l35 158q47 -19 84 -19q57 0 93 56
t52 194l43 399h-143z" />
    <glyph glyph-name="Ohorn" unicode="&#x1a0;" horiz-adv-x="952" 
d="M481 174q51 0 88.5 42t58.5 117t30.5 165.5t9.5 199.5q0 101 -9 186t-29.5 160.5t-59 118.5t-91.5 43q-52 0 -91.5 -43t-61 -117.5t-32 -162.5t-9.5 -189q-1 -106 9.5 -196.5t32.5 -164.5t61.5 -116.5t92.5 -42.5zM762 1487l160 24q36 -70 36 -155q0 -78 -38.5 -128
t-112.5 -57q88 -176 88 -462q0 -190 -32 -332t-90 -226.5t-134 -125.5t-170 -41q-134 0 -228 91t-139 248.5t-45 368.5q0 208 50 366t148.5 248.5t233.5 90.5q83 0 156 -37q22 -11 47.5 -27t39 -23t24.5 -7q45 0 45 57q0 47 -39 127z" />
    <glyph glyph-name="ohorn" unicode="&#x1a1;" horiz-adv-x="839" 
d="M422 844q-42 0 -71.5 -32t-44 -87t-20 -109t-5.5 -116q0 -348 145 -348q39 0 66.5 32t41 86.5t19.5 110.5t6 119q0 61 -6 116t-20 109.5t-42.5 86.5t-68.5 32zM664 1130l157 23q39 -76 39 -158q0 -73 -38 -118t-109 -54q63 -123 63 -321q0 -116 -23 -208t-59 -149
t-84.5 -94.5t-95.5 -52t-96 -14.5q-163 0 -260 133t-97 379q0 130 30.5 232t82.5 163t116 92t136 31q56 0 123 -27q2 -1 41 -18t61 -17q49 0 49 60q0 55 -36 118z" />
    <glyph glyph-name="Uhorn" unicode="&#x1af;" horiz-adv-x="1032" 
d="M852 1559l158 22q34 -67 34 -156q0 -76 -38 -121.5t-115 -52.5l-23 -2v-741q0 -263 -98 -393.5t-281 -130.5q-189 0 -281.5 128t-92.5 386v882h219v-909q0 -295 158 -295q76 0 116.5 67.5t40.5 227.5v909h164q39 0 55.5 12.5t16.5 45.5q0 57 -33 121z" />
    <glyph glyph-name="uhorn" unicode="&#x1b0;" horiz-adv-x="876" 
d="M735 1178l160 22q37 -69 37 -153q0 -70 -38.5 -113.5t-111.5 -50.5l-10 -2v-592q0 -121 8 -289h-188l-14 104h-5q-33 -50 -91 -85t-132 -35q-134 0 -194 98.5t-60 298.5v616h217v-589q0 -242 117 -242q45 0 73.5 30.5t37.5 67.5q12 35 12 86v647h149q38 0 53 14t15 48
q0 61 -35 119z" />
    <glyph glyph-name="uni01FA" unicode="&#x1fa;" horiz-adv-x="917" 
d="M473 1411q-94 0 -142 45t-48 111q0 65 51 113.5t141 48.5q91 0 137.5 -46t46.5 -114q0 -65 -48 -111.5t-138 -46.5zM471 1491q41 0 61.5 22.5t20.5 57.5q0 31 -21.5 54.5t-62.5 23.5q-38 0 -58 -24.5t-20 -55.5t21 -54.5t59 -23.5zM588 1942h241l-290 -179h-166zM590 360
h-275l-73 -360h-213l307 1380h256l285 -1380h-213zM340 530h227l-57 318q-9 51 -27.5 166t-23.5 147h-6q-23 -155 -52 -313z" />
    <glyph glyph-name="uni01FB" unicode="&#x1fb;" horiz-adv-x="811" 
d="M496 1673h204l-239 -200h-144zM709 625v-398q0 -148 12 -227h-197l-12 102h-4q-77 -118 -211 -118q-108 0 -180 83t-72 212q0 93 37 164.5t100 114.5t140.5 64.5t164.5 22.5v27q0 176 -149 176q-100 0 -186 -55l-41 149q44 28 118 50t156 22q93 0 158.5 -30t100.5 -85.5
t50 -122t15 -151.5zM494 313v187q-31 -1 -58.5 -4.5t-62.5 -16.5t-60 -33.5t-42 -57.5t-17 -87q0 -78 32.5 -116t75.5 -38q42 0 77 29.5t48 85.5q7 24 7 51zM412 1063q-94 0 -148.5 51t-54.5 127q0 81 54 135t151 54q92 0 144 -52t52 -133q0 -79 -54 -130.5t-144 -51.5z
M410 1145q46 0 68 29t22 71q0 43 -22 73t-70 30q-42 0 -64 -32.5t-22 -74.5q0 -36 23 -66t65 -30z" />
    <glyph glyph-name="AEacute" unicode="&#x1fc;" horiz-adv-x="1183" 
d="M213 0h-215l418 1380h694v-190h-371l23 -395h340v-183h-324l25 -422h350l-2 -190h-541l-24 412h-264zM365 584h202l-16 377q-2 37 -7 128t-7 140h-9q-12 -53 -77 -311zM770 1681h234l-252 -227h-162z" />
    <glyph glyph-name="aeacute" unicode="&#x1fd;" horiz-adv-x="1228" 
d="M690 1405h203l-211 -283h-139zM1167 463h-469q0 -313 226 -313q99 0 176 43l33 -154q-102 -55 -250 -55q-99 0 -180 47t-117 133h-4q-89 -180 -275 -180q-115 0 -188.5 84.5t-73.5 218.5q0 70 24.5 128.5t65.5 98.5t98 67.5t120 40t132 13.5v41q0 76 -40.5 124t-118.5 48
q-95 0 -174 -53l-43 147q116 72 260 72q86 0 151 -43t92 -125h4q39 82 107 125t151 43q141 0 219 -127t78 -330q0 -32 -4 -94zM489 322v170q-31 0 -59.5 -3.5t-64 -16t-61 -32.5t-43 -57t-17.5 -86q0 -73 34 -110t80 -37q43 0 77 30.5t46 85.5q8 21 8 56zM700 608h269
q3 112 -31.5 180t-91.5 68q-68 0 -106 -76t-40 -172z" />
    <glyph glyph-name="Oslashacute" unicode="&#x1fe;" horiz-adv-x="952" 
d="M199 -92l-113 63l86 195q-115 183 -115 526q0 206 49.5 364.5t146 249.5t226.5 91q115 0 203 -68l61 144l121 -52l-84 -190q115 -182 115 -522q0 -189 -31.5 -331t-88.5 -226.5t-131.5 -126t-166.5 -41.5q-126 0 -209 75zM299 422l297 713q-48 71 -117 71
q-68 0 -115 -67.5t-69.5 -181t-22.5 -263.5q0 -164 23 -272h4zM653 967l-303 -709q43 -84 129 -84q52 0 91 39t62.5 110.5t35.5 165.5t12 209q0 164 -23 267zM555 1681h233l-251 -227h-162z" />
    <glyph glyph-name="oslashacute" unicode="&#x1ff;" horiz-adv-x="839" 
d="M479 1405h203l-211 -283h-139zM422 1014h2q92 0 172 -56l59 113l105 -55l-76 -144q92 -134 92 -370q0 -116 -23 -208t-59 -149t-84 -94.5t-94.5 -52t-93.5 -14.5q-102 0 -176 53l-62 -115l-98 66l72 133q-97 137 -97 375q0 130 30.5 232t82 163t115 92t133.5 31zM291 326
l221 460q-25 58 -92 58q-38 0 -66.5 -24.5t-44.5 -60t-25.5 -85t-12.5 -90t-3 -84.5q0 -96 17 -170zM551 657l-217 -448q26 -57 88 -57q42 0 73 30t46.5 81t22.5 104.5t7 113.5q0 103 -14 176h-6z" />
    <glyph glyph-name="Scommaaccent" unicode="&#x218;" horiz-adv-x="776" 
d="M53 45l37 188q39 -23 99.5 -39t113.5 -16q99 0 154 53t55 140q0 78 -43 132.5t-137 119.5q-120 76 -190 176t-70 209q0 167 107.5 276t295.5 109q61 0 118.5 -15t88.5 -35l-41 -188q-70 47 -170 47q-88 0 -136 -49.5t-48 -118.5q0 -76 41.5 -125t154.5 -121
q244 -161 244 -395q0 -184 -118 -294.5t-306 -110.5q-75 0 -145.5 17t-104.5 40zM250 -451l-39 101q50 15 87.5 44t37.5 70q0 66 -68 125l164 27q74 -53 74 -147q0 -96 -72.5 -151.5t-183.5 -68.5z" />
    <glyph glyph-name="scommaaccent" unicode="&#x219;" horiz-adv-x="630" 
d="M41 45l43 162q31 -21 78.5 -37t93.5 -16q59 0 92 30t33 84q0 46 -26.5 82t-94.5 80q-203 122 -203 285q0 129 86 214t219 85q104 0 193 -49l-45 -162q-67 43 -137 43q-54 0 -83.5 -30.5t-29.5 -74.5q0 -40 24.5 -69.5t96.5 -75.5q203 -122 203 -301q0 -147 -91.5 -227
t-238.5 -80q-60 0 -120 15.5t-93 41.5zM184 -451l-39 101q50 15 87.5 44t37.5 70q0 67 -67 125l164 27q30 -22 51.5 -59.5t21.5 -87.5q0 -96 -72.5 -151.5t-183.5 -68.5z" />
    <glyph glyph-name="uni021A" unicode="&#x21a;" horiz-adv-x="770" 
d="M274 0v1180h-247v200h716v-200h-249v-1180h-220zM260 -451l-39 101q50 15 87.5 44t37.5 70q0 67 -67 125l163 27q74 -53 74 -147q0 -96 -72.5 -151.5t-183.5 -68.5z" />
    <glyph glyph-name="uni021B" unicode="&#x21b;" horiz-adv-x="585" 
d="M143 1169l219 76v-248h193v-159h-193v-516q0 -154 103 -154q33 0 67 6l5 -170q-53 -16 -144 -16q-115 0 -176 61q-38 38 -56 100.5t-18 169.5v519h-118v159h118v172zM188 -451l-38 101q50 15 87 43.5t37 70.5q0 67 -67 125l164 27q30 -22 51.5 -59.5t21.5 -87.5
q0 -96 -72.5 -151.5t-183.5 -68.5z" />
    <glyph glyph-name="uni021C" unicode="&#x21c;" horiz-adv-x="751" 
d="M70 -236l-29 175q79 14 153.5 48t138 86.5t102 128.5t38.5 163q0 93 -52.5 162t-150.5 69q-67 0 -137 -25l-33 160q117 22 213.5 116.5t96.5 215.5q0 67 -44 110.5t-112 43.5q-79 0 -168 -41l-39 157q40 25 112.5 44.5t143.5 19.5q137 0 225 -88.5t88 -212.5
q0 -120 -57 -212.5t-143 -140.5v-6q119 -23 199.5 -118t80.5 -244q0 -88 -28 -170.5t-75.5 -146.5t-110 -118t-132.5 -91t-141.5 -58.5t-138.5 -26.5z" />
    <glyph glyph-name="uni021D" unicode="&#x21d;" horiz-adv-x="694" 
d="M49 -410l-18 179q52 3 105.5 16.5t108 40.5t96.5 64.5t68.5 93t26.5 120.5q0 34 -10 64.5t-31 58t-60 44t-91 16.5q-53 0 -127 -23l-29 160q287 74 287 252q0 73 -40.5 115.5t-105.5 42.5q-30 0 -63 -8t-44 -13t-46 -20l-41 155q42 27 106 46.5t133 19.5
q137 0 220.5 -81.5t83.5 -205.5q0 -102 -50 -178.5t-133 -118.5v-4q115 -23 186.5 -102t71.5 -207q0 -95 -37 -179.5t-99 -146t-140.5 -107t-162.5 -69t-165 -25.5z" />
    <glyph glyph-name="uni0232" unicode="&#x232;" horiz-adv-x="815" 
d="M514 0h-219v553l-303 827h233l107 -336q42 -132 86 -303h4q24 127 80 310l98 329h227l-313 -819v-561zM178 1645h461v-138h-461v138z" />
    <glyph glyph-name="uni0233" unicode="&#x233;" horiz-adv-x="757" 
d="M170 1321h420v-131h-420v131zM16 997h234l115 -542q8 -40 19.5 -109.5t12.5 -75.5h4q9 57 33 181l98 546h216l-187 -712q-100 -407 -233 -568q-52 -64 -108 -102t-97 -53l-70 188q69 31 135 103q52 55 86 139q13 33 13 47q0 19 -6 37z" />
    <glyph glyph-name="circumflex" unicode="&#x2c6;" 
d="M233 1405h150l170 -283h-154l-88 170h-4l-88 -170h-156z" />
    <glyph glyph-name="caron" unicode="&#x2c7;" 
d="M383 1122h-152l-168 283h154l88 -170h4l88 170h156z" />
    <glyph glyph-name="uni02C9" unicode="&#x2c9;" 
d="M98 1321h420v-131h-420v131z" />
    <glyph glyph-name="breve" unicode="&#x2d8;" 
d="M76 1382h112q4 -54 36.5 -85t80.5 -31q57 0 89 32.5t32 83.5h113q3 -108 -62.5 -177.5t-173.5 -69.5q-105 0 -167.5 70.5t-59.5 176.5z" />
    <glyph glyph-name="dotaccent" unicode="&#x2d9;" 
d="M309 1153h-2q-45 0 -75.5 32t-30.5 81t31.5 80.5t76.5 31.5t76 -31t31 -81q0 -49 -30.5 -81t-76.5 -32z" />
    <glyph glyph-name="ring" unicode="&#x2da;" 
d="M240 1098q-94 0 -148.5 51t-54.5 127q0 81 54 134.5t151 53.5q92 0 144 -51.5t52 -132.5q0 -79 -54 -130.5t-144 -51.5zM238 1180q46 0 68 29t22 71q0 43 -22 72.5t-70 29.5q-42 0 -64 -32t-22 -74q0 -36 23 -66t65 -30z" />
    <glyph glyph-name="ogonek" unicode="&#x2db;" 
d="M219 10h141q-71 -110 -71 -188q0 -40 25 -65t59 -25q45 0 82 16l28 -115q-65 -47 -166 -47q-89 0 -137.5 49t-48.5 134q0 117 88 241z" />
    <glyph glyph-name="tilde" unicode="&#x2dc;" 
d="M176 1145h-106q0 96 35.5 157.5t101.5 61.5q13 0 25 -2t24.5 -6.5t20 -8t21.5 -11t19 -9.5q4 -2 15.5 -9t16 -9.5t13.5 -7t17 -6t16 -1.5q22 0 34 15.5t13 58.5h103q0 -103 -35 -156t-102 -53q-37 0 -105 33q-9 5 -26 15.5t-28.5 15t-23.5 4.5q-46 0 -49 -82z" />
    <glyph glyph-name="hungarumlaut" unicode="&#x2dd;" 
d="M240 1405h172l-209 -283h-117zM510 1405h170l-209 -283h-115z" />
    <glyph glyph-name="uni037E" unicode="&#x37e;" horiz-adv-x="464" 
d="M197 -242l-138 -14q87 324 97 514l225 8q-33 -127 -85.5 -272.5t-98.5 -235.5zM252 629h-2q-57 0 -96 43.5t-39 109.5q0 67 40 112.5t99 45.5t98 -43.5t39 -114.5q0 -67 -38 -110t-101 -43z" />
    <glyph glyph-name="tonos" unicode="&#x384;" horiz-adv-x="632" 
d="M236 1405h180l-121 -281h-125z" />
    <glyph glyph-name="dieresistonos" unicode="&#x385;" horiz-adv-x="806" 
d="M334 1440h174l-80 -318h-117zM158 1157h-2q-41 0 -71 30t-30 73t31 73.5t72 30.5q39 0 67.5 -29.5t28.5 -74.5q0 -44 -28 -73.5t-68 -29.5zM631 1157h-2q-38 0 -67.5 30t-29.5 73t30 73.5t69 30.5q42 0 71 -29.5t29 -74.5q0 -44 -28.5 -73.5t-71.5 -29.5z" />
    <glyph glyph-name="Alphatonos" unicode="&#x386;" horiz-adv-x="952" 
d="M625 360h-275l-74 -360h-213l308 1380h256l284 -1380h-213zM375 530h227l-57 318q-9 51 -27.5 166t-23.5 147h-7q-26 -180 -51 -313zM55 1380h174l-65 -323h-113z" />
    <glyph glyph-name="anoteleia" unicode="&#x387;" horiz-adv-x="464" 
d="M231 485h-2q-60 0 -100.5 46t-40.5 118t42.5 120t102.5 48q63 0 104.5 -46.5t41.5 -121.5q0 -73 -41 -118.5t-107 -45.5z" />
    <glyph glyph-name="Epsilontonos" unicode="&#x388;" horiz-adv-x="911" 
d="M809 811v-182h-330v-439h373v-190h-592v1380h567v-190h-348v-379h330zM6 1380h174l-65 -323h-113z" />
    <glyph glyph-name="Etatonos" unicode="&#x389;" horiz-adv-x="1148" 
d="M262 1380h219v-571h328v571h219v-1380h-219v608h-328v-608h-219v1380zM6 1380h174l-65 -323h-113z" />
    <glyph glyph-name="Iotatonos" unicode="&#x38a;" horiz-adv-x="600" 
d="M260 1380h219v-1380h-219v1380zM6 1380h174l-65 -323h-113z" />
    <glyph glyph-name="Omicrontonos" unicode="&#x38c;" horiz-adv-x="1060" 
d="M580 -16h-2q-134 0 -228 91t-139 248.5t-45 368.5q0 208 50 366t148.5 248.5t233.5 90.5q84 0 152.5 -36t115.5 -99t78.5 -150.5t45.5 -188t14 -214.5q0 -190 -32 -332t-90 -226.5t-133.5 -125.5t-168.5 -41zM586 174h2q52 0 89.5 42t58.5 117.5t30.5 165.5t9.5 199
q0 100 -9.5 186t-30 161t-59 118t-91.5 43q-52 0 -91 -43t-61 -117.5t-32 -162.5t-9 -189q-1 -107 9 -197t32 -164.5t61 -116.5t91 -42zM6 1380h174l-65 -323h-113z" />
    <glyph glyph-name="Upsilontonos" unicode="&#x38e;" horiz-adv-x="1134" 
d="M229 1202l43 191q29 -2 86.5 -27t102.5 -66q89 -79 147.5 -221.5t71.5 -324.5h10q16 162 73.5 294t135.5 218q46 51 106.5 86.5t84.5 40.5l45 -197q-117 -51 -208.5 -222.5t-125.5 -400.5q-21 -147 -21 -241v-332h-217v332q0 73 -12 237q-28 252 -111 420t-211 213z
M6 1380h174l-65 -323h-113z" />
    <glyph glyph-name="Omegatonos" unicode="&#x38f;" horiz-adv-x="1124" 
d="M868 188v-8h197v-180h-403v139q66 81 110 242.5t43 351.5q0 90 -11.5 171t-34.5 150.5t-64 110.5t-95 41t-96 -40t-67 -108t-37.5 -150.5t-12.5 -174.5q0 -176 47.5 -347t108.5 -247v-139h-403v180h196v8q-77 112 -126.5 263t-49.5 319q0 278 124 452.5t327 174.5
q105 0 187 -49.5t132.5 -135t76 -194t25.5 -232.5q0 -177 -49.5 -335t-124.5 -263zM6 1380h174l-65 -323h-113z" />
    <glyph glyph-name="iotadieresistonos" unicode="&#x390;" horiz-adv-x="436" 
d="M322 997v-745q0 -60 17.5 -82t59.5 -20l-16 -158q-31 -8 -82 -8q-32 0 -58 5t-53.5 20.5t-45.5 42t-30 72.5t-12 109v764h220zM174 1421h168l-80 -305h-110zM4 1149h-2q-40 0 -70 30t-30 72q0 43 30.5 73t71.5 30q38 0 66 -29t28 -74q0 -42 -27.5 -72t-66.5 -30z
M463 1149h-2q-38 0 -67 30t-29 72q0 43 29.5 73t68.5 30t67.5 -29t28.5 -74q0 -43 -28 -72.5t-68 -29.5z" />
    <glyph glyph-name="Alpha" unicode="&#x391;" horiz-adv-x="917" 
d="M590 360h-275l-73 -360h-213l307 1380h256l285 -1380h-213zM340 530h227l-57 318q-9 51 -27.5 166t-23.5 147h-6q-23 -155 -52 -313z" />
    <glyph glyph-name="Beta" unicode="&#x392;" horiz-adv-x="927" 
d="M121 4v1356q107 26 272 26q222 0 328 -96q98 -85 98 -246q0 -99 -53 -180t-152 -123v-6q119 -33 184.5 -123.5t65.5 -216.5q0 -164 -100 -272q-121 -133 -414 -133q-136 0 -229 14zM338 1212v-407h65q84 0 142.5 61t58.5 154q0 92 -46 146.5t-142 54.5q-51 0 -78 -9z
M338 641v-475q27 -6 70 -6q104 0 167.5 61t63.5 176t-69 178.5t-169 65.5h-63z" />
    <glyph glyph-name="Gamma" unicode="&#x393;" horiz-adv-x="710" 
d="M121 1380h571v-184h-352v-1196h-219v1380z" />
    <glyph glyph-name="uni0394" unicode="&#x394;" horiz-adv-x="929" 
d="M35 0v115l305 1265h256l291 -1261v-119h-852zM252 193h416l-133 585q-43 198 -70 383h-6q-26 -175 -72 -373z" />
    <glyph glyph-name="Epsilon" unicode="&#x395;" horiz-adv-x="770" 
d="M668 811v-182h-328v-439h373v-190h-592v1380h567v-190h-348v-379h328z" />
    <glyph glyph-name="Zeta" unicode="&#x396;" horiz-adv-x="765" 
d="M31 0v129l452 1057v4h-413v190h659v-157l-438 -1026v-7h436v-190h-696z" />
    <glyph glyph-name="Eta" unicode="&#x397;" horiz-adv-x="1007" 
d="M121 1380h219v-571h328v571h219v-1380h-219v608h-328v-608h-219v1380z" />
    <glyph glyph-name="Theta" unicode="&#x398;" horiz-adv-x="964" 
d="M477 -16h-2q-135 0 -230.5 91t-141.5 248.5t-46 368.5q0 317 117 511t322 194q106 0 187 -54.5t129 -151t71.5 -217.5t23.5 -265q0 -190 -32.5 -332t-91.5 -226.5t-135.5 -125.5t-170.5 -41zM483 172h2q53 0 92.5 42t61.5 117t32.5 166t10.5 201q0 102 -10 188t-31.5 161
t-62 118t-95.5 43q-54 0 -94.5 -43t-63 -117.5t-33.5 -163t-11 -190.5q0 -108 11 -198t33.5 -165t63 -117t94.5 -42zM350 805h264v-201h-264v201z" />
    <glyph glyph-name="Iota" unicode="&#x399;" horiz-adv-x="462" 
d="M121 1380h219v-1380h-219v1380z" />
    <glyph glyph-name="Kappa" unicode="&#x39a;" horiz-adv-x="888" 
d="M121 0v1380h217v-637h6q13 29 37.5 88t38.5 87l217 462h240l-322 -596l330 -784h-240l-237 614l-70 -122v-492h-217z" />
    <glyph glyph-name="Lambda" unicode="&#x39b;" horiz-adv-x="911" 
d="M883 0h-228l-141 731q-60 384 -61 395h-7q-26 -222 -57 -399l-137 -727h-225l309 1380h242z" />
    <glyph glyph-name="Mu" unicode="&#x39c;" horiz-adv-x="1269" 
d="M987 0l-26 532q-17 334 -15 496h-6q-39 -222 -96 -450l-144 -562h-149l-135 547q-60 226 -99 465h-6q-2 -180 -18 -502l-25 -526h-190l92 1380h231l134 -559q74 -308 104 -479h4q31 194 96 479l129 559h236l82 -1380h-199z" />
    <glyph glyph-name="Nu" unicode="&#x39d;" horiz-adv-x="1009" 
d="M315 0h-194v1380h203l231 -589q134 -355 160 -437h4q-23 405 -23 637v389h193v-1380h-203l-233 588q-106 275 -150 438h-4q16 -320 16 -641v-385z" />
    <glyph glyph-name="Xi" unicode="&#x39e;" horiz-adv-x="804" 
d="M76 1380h651v-190h-651v190zM111 803h575v-187h-575v187zM63 190h676v-190h-676v190z" />
    <glyph glyph-name="Omicron" unicode="&#x39f;" horiz-adv-x="952" 
d="M471 -16h-2q-134 0 -228 91t-139 248.5t-45 368.5q0 208 50 366t148.5 248.5t233.5 90.5q85 0 153.5 -36t115 -99t78 -151t45.5 -188t14 -214q0 -190 -32 -332t-90 -226.5t-133.5 -125.5t-168.5 -41zM479 174h2q51 0 88.5 42t58.5 117t30.5 165.5t9.5 199.5q0 101 -9 186
t-29.5 160.5t-59 118.5t-91.5 43q-52 0 -91.5 -43t-61 -117.5t-32 -162.5t-9.5 -189q-1 -106 9.5 -196.5t32.5 -164.5t61 -116.5t91 -42.5z" />
    <glyph glyph-name="Pi" unicode="&#x3a0;" horiz-adv-x="993" 
d="M870 1380v-1380h-217v1180h-313v-1180h-219v1380h749z" />
    <glyph glyph-name="Rho" unicode="&#x3a1;" horiz-adv-x="882" 
d="M121 0v1360q117 26 258 26q235 0 344 -104q111 -105 111 -295q0 -188 -103 -309q-59 -69 -149 -105t-183 -36h-61v-537h-217zM338 1198v-481q16 -4 53 -4q106 0 164.5 68.5t58.5 189.5q0 106 -48 171.5t-152 65.5q-46 0 -76 -10z" />
    <glyph glyph-name="Sigma" unicode="&#x3a3;" horiz-adv-x="847" 
d="M283 197v-7h508v-190h-758v137l321 555l-309 549v139h709v-188h-445v-8l266 -479z" />
    <glyph glyph-name="Tau" unicode="&#x3a4;" horiz-adv-x="770" 
d="M274 0v1180h-247v200h716v-200h-249v-1180h-220z" />
    <glyph glyph-name="Upsilon" unicode="&#x3a5;" horiz-adv-x="911" 
d="M6 1202l43 191q29 -2 86.5 -27t104.5 -66q88 -80 146 -222.5t71 -323.5h10q18 164 75.5 295.5t135.5 216.5q46 51 105 86.5t83 40.5l45 -197q-115 -51 -206.5 -222t-126.5 -401q-19 -160 -19 -241v-332h-219v332q0 114 -12 237q-29 253 -111 420.5t-211 212.5z" />
    <glyph glyph-name="Phi" unicode="&#x3a6;" horiz-adv-x="1122" 
d="M657 70v-107h-196v107q-84 14 -155.5 57.5t-129.5 117t-91.5 189t-33.5 260.5q0 142 35.5 258t95.5 190.5t131 118.5t150 58v98h196v-98q181 -27 296.5 -189.5t115.5 -424.5q0 -144 -32.5 -261t-90.5 -193.5t-131.5 -122t-159.5 -58.5zM463 233v920q-78 -21 -135.5 -142
t-57.5 -323q0 -187 56.5 -307.5t136.5 -147.5zM657 1153v-920q86 23 140.5 143.5t54.5 321.5q0 203 -59.5 321.5t-135.5 133.5z" />
    <glyph glyph-name="Chi" unicode="&#x3a7;" horiz-adv-x="819" 
d="M811 0h-227l-103 289q-37 99 -80 243h-6q-42 -151 -71 -247l-97 -285h-217l269 705l-259 675h228l100 -284q33 -97 70 -222h4q30 100 65 226l91 280h219l-262 -680z" />
    <glyph glyph-name="Psi" unicode="&#x3a8;" horiz-adv-x="1122" 
d="M1044 1380v-360q0 -543 -387 -602v-418h-194v418q-191 29 -289 155t-98 381v426h200v-419q0 -183 45 -270.5t144 -102.5v792h190v-792q98 12 143.5 116t45.5 318v358h200z" />
    <glyph glyph-name="uni03A9" unicode="&#x3a9;" horiz-adv-x="1034" 
d="M778 188v-8h195v-180h-402v139q66 81 110.5 242.5t43.5 351.5q0 90 -11.5 171t-34.5 150.5t-64.5 110.5t-96.5 41q-53 0 -94.5 -40t-66.5 -107.5t-37.5 -150.5t-12.5 -175q0 -176 47.5 -347t108.5 -247v-139h-404v180h195v8q-76 112 -125 262.5t-49 319.5
q0 183 55.5 325.5t158 222t236.5 79.5q105 0 187.5 -49.5t132.5 -135t76 -194t26 -232.5q0 -177 -49.5 -335t-124.5 -263z" />
    <glyph glyph-name="Iotadieresis" unicode="&#x3aa;" horiz-adv-x="462" 
d="M63 1454h-2q-44 0 -75 32t-31 79q0 48 31.5 79t76.5 31q44 0 73.5 -30.5t29.5 -79.5q0 -47 -29.5 -79t-73.5 -32zM401 1454h-2q-43 0 -73.5 32t-30.5 79q0 49 30.5 79.5t75.5 30.5t74 -30.5t29 -79.5q0 -47 -29.5 -79t-73.5 -32zM121 1380h219v-1380h-219v1380z" />
    <glyph glyph-name="Upsilondieresis" unicode="&#x3ab;" horiz-adv-x="911" 
d="M299 1421h-2q-43 0 -73.5 32t-30.5 79q0 48 31 79t75 31q45 0 74.5 -30.5t29.5 -79.5q0 -48 -29.5 -79.5t-74.5 -31.5zM639 1421h-2q-44 0 -74.5 32t-30.5 79q0 49 31 79.5t76 30.5q43 0 72.5 -30.5t29.5 -79.5q0 -47 -29 -79t-73 -32zM6 1202l43 191q29 -2 86.5 -27
t104.5 -66q88 -80 146 -222.5t71 -323.5h10q18 164 75.5 295.5t135.5 216.5q46 51 105 86.5t83 40.5l45 -197q-115 -51 -206.5 -222t-126.5 -401q-19 -160 -19 -241v-332h-219v332q0 114 -12 237q-29 253 -111 420.5t-211 212.5z" />
    <glyph glyph-name="alphatonos" unicode="&#x3ac;" horiz-adv-x="870" 
d="M438 1395h180l-118 -281h-125zM614 997h164q-7 -59 -15 -293.5t-7 -445.5q0 -59 16 -85t55 -26l-20 -157q-27 -6 -53 -6q-137 0 -158 155h-8q-26 -64 -82 -109.5t-133 -45.5q-97 0 -168.5 64t-107.5 173t-36 248q0 128 29.5 234.5t78 172.5t107.5 102t121 36
q135 0 185 -140h8q14 81 24 123zM281 487v-2q0 -138 37.5 -229.5t97.5 -91.5q42 0 75.5 46.5t45.5 127.5q10 69 10 162q0 55 -4 145q-6 84 -38 136.5t-77 52.5q-66 0 -106.5 -102t-40.5 -245z" />
    <glyph glyph-name="epsilontonos" unicode="&#x3ad;" horiz-adv-x="714" 
d="M387 1395h180l-118 -281h-127zM266 528v11q-72 19 -116 75t-44 134q0 109 90.5 187.5t254.5 78.5q135 0 200 -49l-37 -152q-60 31 -149 31q-70 0 -110 -34t-40 -85q0 -64 62.5 -93.5t152.5 -29.5h31v-151h-39q-103 -2 -169 -38.5t-66 -113.5q0 -66 50 -104.5t124 -38.5
q57 0 112 14t78 29l25 -160q-98 -55 -264 -55q-71 0 -132 17t-111 52t-79 94t-29 136q0 93 62.5 161t142.5 84z" />
    <glyph glyph-name="etatonos" unicode="&#x3ae;" horiz-adv-x="888" 
d="M438 1395h180l-120 -281h-125zM293 881h4q36 62 97.5 97.5t137.5 35.5q125 0 190.5 -93.5t65.5 -267.5v-708q0 -198 17 -338h-201q-35 75 -35 327v699q0 196 -116 196q-42 0 -75.5 -31.5t-47.5 -90.5q-11 -37 -11 -91v-616h-219v717q0 194 -26 280h190q23 -52 29 -116z
" />
    <glyph glyph-name="iotatonos" unicode="&#x3af;" horiz-adv-x="436" 
d="M203 1401h192l-121 -283h-137zM319 997v-745q0 -59 18.5 -81.5t59.5 -20.5l-14 -158q-33 -8 -82 -8q-41 0 -72.5 9t-63 33.5t-48.5 76.5t-17 130v764h219z" />
    <glyph glyph-name="upsilondieresistonos" unicode="&#x3b0;" horiz-adv-x="833" 
d="M504 997h205q57 -157 57 -376q0 -637 -367 -637q-141 0 -224 87.5t-83 247.5v369q0 232 -14 309h211q20 -36 20 -204v-465q0 -75 30.5 -117.5t76.5 -42.5q76 0 106.5 108t30.5 299q0 134 -14 251t-35 171zM350 1415h168l-78 -305h-112zM176 1145h-2q-41 0 -70.5 29.5
t-29.5 72.5t30.5 72t71.5 29q38 0 66 -29t28 -72q0 -44 -27.5 -73t-66.5 -29zM643 1145h-2q-38 0 -67 29.5t-29 72.5t29.5 72t68.5 29q41 0 69.5 -29t28.5 -72q0 -44 -29 -73t-69 -29z" />
    <glyph glyph-name="alpha" unicode="&#x3b1;" horiz-adv-x="868" 
d="M614 997h164q-7 -59 -15 -293.5t-7 -445.5q0 -59 16 -85t55 -26l-20 -157q-27 -6 -53 -6q-137 0 -158 155h-8q-26 -64 -82 -109.5t-133 -45.5q-97 0 -168.5 64t-107.5 173t-36 248q0 128 29.5 234.5t78 172.5t107.5 102t121 36q135 0 185 -140h8q14 81 24 123zM281 487
v-2q0 -138 37.5 -229.5t97.5 -91.5q42 0 75.5 46.5t45.5 127.5q10 69 10 162q0 55 -4 145q-6 84 -38 136.5t-77 52.5q-66 0 -106.5 -102t-40.5 -245z" />
    <glyph glyph-name="beta" unicode="&#x3b2;" horiz-adv-x="884" 
d="M317 55h-4v-110q0 -230 23 -338h-201q-37 79 -37 325v971q0 178 26 274t87 162q89 95 231 95q100 0 171.5 -51t105 -130.5t33.5 -177.5q0 -111 -45 -189t-111 -114v-10q93 -29 159 -124.5t66 -248.5q0 -182 -90.5 -293.5t-230.5 -111.5q-118 0 -183 71zM313 956v-710
q51 -82 138 -82q70 0 112.5 67t42.5 172q0 106 -50.5 177t-127.5 82q-12 4 -33 4v161q7 0 27 4q57 16 92 76.5t35 157.5q0 71 -29 129.5t-84 58.5q-123 0 -123 -297z" />
    <glyph glyph-name="gamma" unicode="&#x3b3;" horiz-adv-x="763" 
d="M469 -393h-213q5 245 -4 384t-43 290q-89 381 -225 716h231q47 -125 97.5 -324.5t78.5 -408.5h6q50 156 85 327.5t34 311.5v94h197q6 -27 6 -75q0 -170 -64 -395t-180 -461q-12 -21 -12 -41q6 -200 6 -418z" />
    <glyph glyph-name="delta" unicode="&#x3b4;" horiz-adv-x="854" 
d="M741 1352l-51 -144q-97 60 -182 60q-43 0 -66.5 -20t-23.5 -48q0 -25 21 -58.5t69 -92.5l117 -146q166 -206 166 -424q0 -121 -31 -217.5t-84 -156t-118 -90.5t-136 -31q-160 0 -260.5 130.5t-100.5 346.5q0 87 23.5 167t63 139.5t83.5 103.5t93 75v8l-27 35
q-100 134 -100 219q0 91 75 158.5t209 67.5q166 0 260 -82zM477 764l-49 61q-147 -119 -147 -368q0 -142 45 -223.5t104 -81.5q70 0 106.5 85.5t36.5 215.5q0 189 -96 311z" />
    <glyph glyph-name="epsilon" unicode="&#x3b5;" horiz-adv-x="714" 
d="M266 530v9q-71 19 -115.5 76t-44.5 133q0 109 90.5 187.5t254.5 78.5q135 0 200 -49l-37 -152q-60 31 -149 31q-70 0 -110 -34t-40 -85q0 -64 62.5 -93.5t152.5 -29.5h31v-151h-39q-103 -2 -169 -38.5t-66 -113.5q0 -66 50 -104.5t124 -38.5q57 0 112 14t78 29l25 -160
q-98 -55 -264 -55q-71 0 -132 17t-111 52t-79 94t-29 136q0 93 62.5 162t142.5 85z" />
    <glyph glyph-name="zeta" unicode="&#x3b6;" horiz-adv-x="681" 
d="M549 -276l-146 45q51 98 64 196q-108 25 -184 66q-99 51 -160.5 150t-61.5 253q0 207 103 423t264 376v8h-78q-126 0 -190 19l20 153q82 -6 232 -6h245l33 -152q-154 -99 -280.5 -328t-126.5 -438q0 -138 44 -211.5t132 -111.5q65 -30 198 -55q17 -3 17 -25
q0 -104 -39.5 -205.5t-85.5 -156.5z" />
    <glyph glyph-name="eta" unicode="&#x3b7;" horiz-adv-x="888" 
d="M293 881h4q36 62 97.5 97.5t137.5 35.5q125 0 190.5 -93.5t65.5 -267.5v-708q0 -198 17 -338h-201q-35 75 -35 327v699q0 196 -116 196q-42 0 -75.5 -31.5t-47.5 -90.5q-11 -37 -11 -91v-616h-219v717q0 194 -26 280h190q23 -52 29 -116z" />
    <glyph glyph-name="theta" unicode="&#x3b8;" horiz-adv-x="837" 
d="M418 -16h-2q-355 0 -355 737q0 156 21.5 280.5t57 204t83.5 132t97.5 74.5t103.5 22q78 0 140 -39.5t110 -122t74 -222.5t26 -329q0 -176 -20.5 -309.5t-53 -213.5t-80.5 -129.5t-96 -67t-106 -17.5zM272 813h293q-1 221 -40.5 339t-106.5 118q-63 0 -104.5 -120.5
t-41.5 -336.5zM565 639h-293q0 -244 40.5 -368t107.5 -124q145 0 145 492z" />
    <glyph glyph-name="iota" unicode="&#x3b9;" horiz-adv-x="436" 
d="M319 997v-745q0 -59 18.5 -81.5t59.5 -20.5l-14 -158q-33 -8 -82 -8q-41 0 -72.5 9t-63 33.5t-48.5 76.5t-17 130v764h219z" />
    <glyph glyph-name="kappa" unicode="&#x3ba;" horiz-adv-x="823" 
d="M504 541v-6q25 -10 49.5 -35.5t41 -48.5t40 -71.5t32.5 -69t32 -76.5q2 -4 3 -6.5t2.5 -6t2.5 -6.5l94 -215h-240l-86 219q-42 108 -73 161.5t-66 53.5h-17v-434h-217v752q0 172 -18 245h211q24 -43 24 -170v-264h7q36 56 83 140t98 179t62 115h234v-8
q-191 -290 -299 -448z" />
    <glyph glyph-name="lambda" unicode="&#x3bb;" horiz-adv-x="747" 
d="M518 0l-104 477q-13 60 -41 215h-8q-15 -109 -37 -213l-101 -479h-217l252 928q6 24 6 41q0 19 -12 55q-32 108 -77 156.5t-95 48.5q-15 0 -25 -2l19 180q21 6 59 6q60 0 108.5 -24t82.5 -61.5t63.5 -98t48 -118t39.5 -138.5l258 -973h-219z" />
    <glyph glyph-name="uni03BC" unicode="&#x3bc;" horiz-adv-x="878" 
d="M600 100h-6q-19 -40 -64 -72t-98 -32q-82 0 -123 59v-110q0 -223 21 -338h-201q-29 89 -29 350v1040h219v-643q0 -192 111 -192q48 0 76.5 30t40.5 68q12 34 12 90v647h217v-741q0 -60 14.5 -85t53.5 -24l-21 -155q-21 -8 -69 -8q-115 0 -154 116z" />
    <glyph glyph-name="nu" unicode="&#x3bd;" horiz-adv-x="743" 
d="M4 997h223l95 -497q26 -144 43 -264h8q47 163 87 360t40 334q0 6 0.5 20t0.5 26t-1 21h196q6 -34 6 -71q0 -166 -76.5 -416t-187.5 -510h-198z" />
    <glyph glyph-name="xi" unicode="&#x3be;" horiz-adv-x="716" 
d="M612 854v-166h-32q-133 -3 -214 -72t-81 -192q0 -184 196 -258q87 -32 201 -57q27 -3 27 -25q0 -95 -40.5 -198t-84.5 -160l-152 43q53 99 66 198q-72 17 -130 37.5t-117.5 56t-99.5 80t-65 111.5t-25 149q0 141 75.5 239.5t191.5 139.5v13q-87 37 -138 114.5t-51 173.5
q0 154 102.5 253.5t270.5 99.5q107 0 180 -39l-28 -160q-65 27 -129 27q-88 0 -133.5 -58t-45.5 -129q0 -101 64 -156t160 -63q5 0 16 -1t16 -1z" />
    <glyph glyph-name="omicron" unicode="&#x3bf;" horiz-adv-x="839" 
d="M420 -16h-2q-163 0 -260 133t-97 379q0 130 30.5 232t82.5 163t116 92t136 31q160 0 255 -135t95 -377q0 -116 -23 -208t-59 -149t-84 -94.5t-95 -52t-95 -14.5zM424 152h2q39 0 66.5 32t41 86.5t19.5 110.5t6 119q0 61 -6 116t-20 109.5t-42.5 86.5t-68.5 32
q-42 0 -71.5 -32t-44 -87t-20 -109t-5.5 -116q0 -69 6.5 -126.5t21.5 -109.5t44.5 -82t70.5 -30z" />
    <glyph glyph-name="pi" unicode="&#x3c0;" horiz-adv-x="899" 
d="M858 819h-96v-581q0 -158 22 -238h-206q-33 64 -33 238v581h-168q-4 -197 -30 -433t-73 -386h-204q45 162 70.5 396t25.5 423q-73 0 -123 -8l-29 133q26 23 100 38t183 15h577z" />
    <glyph glyph-name="rho" unicode="&#x3c1;" horiz-adv-x="864" 
d="M315 74h-4v-129q0 -198 17 -338h-203q-31 84 -31 325v549q0 313 133 439q91 94 219 94q118 0 199 -67t118.5 -180t37.5 -265q0 -130 -27 -232t-73 -163t-103 -92t-121 -31q-54 0 -96 25.5t-66 64.5zM311 522v-176q0 -41 13 -78q16 -57 45 -80.5t61 -23.5q53 0 89 49.5
t50.5 123t14.5 165.5q0 147 -36.5 235t-105.5 88q-59 0 -95 -72t-36 -231z" />
    <glyph glyph-name="uni03C2" unicode="&#x3c2;" horiz-adv-x="679" 
d="M655 985l-34 -172q-43 14 -95 14q-115 0 -179 -100.5t-64 -243.5q0 -117 40 -195t138 -120q70 -30 176 -57q12 -6 12 -21q0 -106 -38.5 -208.5t-82.5 -157.5l-149 43q51 92 65 196q-98 31 -147 57q-102 50 -169 165t-67 284q0 147 54.5 270t161 199t245.5 76
q86 0 133 -29z" />
    <glyph glyph-name="sigma" unicode="&#x3c3;" horiz-adv-x="845" 
d="M647 862l-2 -6q60 -54 92.5 -153.5t32.5 -200.5q0 -115 -23 -206.5t-59 -148.5t-84 -95t-94.5 -53t-93.5 -15q-162 0 -258.5 133t-96.5 379q0 130 30.5 232t83 163t118 92t139.5 31h84h113h196l-8 -164q-60 -3 -170 12zM422 152h2q38 0 64.5 32t40 86.5t19 110.5t5.5 119
q0 60 -6.5 116t-20.5 109.5t-41.5 86t-64.5 32.5q-42 0 -71 -32t-43 -87t-19.5 -109t-5.5 -116q0 -69 6.5 -126.5t21.5 -109.5t43.5 -82t69.5 -30z" />
    <glyph glyph-name="tau" unicode="&#x3c4;" horiz-adv-x="684" 
d="M553 156l-6 -160q-35 -12 -96 -12q-65 0 -110.5 23t-70.5 66t-36 95.5t-11 120.5v530h-73q-60 0 -123 -14l-31 139q18 18 75.5 35.5t145.5 17.5h455l-21 -178h-209v-520q0 -145 78 -145q25 0 33 2z" />
    <glyph glyph-name="upsilon" unicode="&#x3c5;" horiz-adv-x="833" 
d="M504 997h205q57 -157 57 -376q0 -637 -367 -637q-141 0 -224 87.5t-83 247.5v369q0 232 -14 309h211q20 -36 20 -204v-465q0 -75 30.5 -117.5t76.5 -42.5q76 0 106.5 108t30.5 299q0 134 -14 251t-35 171z" />
    <glyph glyph-name="phi" unicode="&#x3c6;" horiz-adv-x="1101" 
d="M303 1006l113 -101q-137 -155 -137 -393q0 -138 46 -236.5t128 -128.5v558q0 81 20 141.5t54 94t73.5 49.5t85.5 16q67 0 130.5 -33.5t113.5 -94.5t80 -155t30 -205q0 -98 -23.5 -182.5t-62 -143t-89.5 -102.5t-104 -68t-108 -32v-383h-200v383q-51 8 -100.5 27
t-103.5 58.5t-94.5 94.5t-67 141t-26.5 191q0 104 26.5 195t68 152t77.5 98.5t70 58.5zM651 754v-609q57 12 97.5 65.5t59.5 131t19 172.5q0 144 -42 236t-83 92q-51 0 -51 -88z" />
    <glyph glyph-name="chi" unicode="&#x3c7;" horiz-adv-x="755" 
d="M16 997h220l157 -491h8q26 117 52 196l88 295h204l-251 -678l243 -700l-200 -45l-177 545h-6q-35 -147 -59 -232l-96 -313l-193 43l254 707z" />
    <glyph glyph-name="psi" unicode="&#x3c8;" horiz-adv-x="1095" 
d="M453 -393v377q-57 9 -103 23.5t-97 48t-85.5 82.5t-57 131t-22.5 188v286q0 193 -10 254h190q19 -46 19 -204v-314q0 -117 23 -192t58 -106t87 -40v1065h196v-1065q89 7 132.5 136.5t43.5 336.5q0 122 -13.5 229.5t-29.5 153.5h185q25 -58 42 -155t17 -205
q0 -139 -18.5 -248t-60 -198.5t-115.5 -142.5t-179 -64v-377h-202z" />
    <glyph glyph-name="omega" unicode="&#x3c9;" horiz-adv-x="1150" 
d="M676 707l-6 -388q0 -57 23 -105t63 -48q50 0 83 89t33 255q0 147 -36.5 274t-96.5 207v6h199q59 -61 104 -196t45 -295q0 -242 -86.5 -382t-226.5 -140q-70 0 -119.5 39.5t-74.5 101.5h-7q-27 -62 -80.5 -101.5t-127.5 -39.5q-61 0 -114.5 31t-96.5 90.5t-68 157.5
t-25 222q0 172 47.5 310t108.5 202h193v-6q-61 -82 -98.5 -208.5t-37.5 -284.5q0 -163 32 -247.5t81 -84.5q42 0 65 49.5t21 106.5l-2 385h205z" />
    <glyph glyph-name="iotadieresis" unicode="&#x3ca;" horiz-adv-x="436" 
d="M43 1141h-2q-45 0 -77 32t-32 82t32 82.5t79 32.5q46 0 76.5 -32t30.5 -83q0 -50 -30.5 -82t-76.5 -32zM381 1141h-2q-45 0 -77 32t-32 82t32 82.5t79 32.5q46 0 76 -32t30 -83t-29.5 -82.5t-76.5 -31.5zM322 997v-745q0 -60 17.5 -82t59.5 -20l-16 -158q-31 -8 -82 -8
q-32 0 -58 5t-53.5 20.5t-45.5 42t-30 72.5t-12 109v764h220z" />
    <glyph glyph-name="upsilondieresis" unicode="&#x3cb;" horiz-adv-x="833" 
d="M236 1141h-3q-45 0 -76.5 32t-31.5 82t32 82.5t79 32.5q46 0 76 -32t30 -83t-30 -82.5t-76 -31.5zM573 1141h-2q-45 0 -76.5 32t-31.5 82t32 82.5t78 32.5t77.5 -32.5t31.5 -82.5q0 -51 -30.5 -82.5t-78.5 -31.5zM504 997h205q57 -157 57 -376q0 -637 -367 -637
q-141 0 -224 87.5t-83 247.5v369q0 232 -14 309h211q20 -36 20 -204v-465q0 -75 30.5 -117.5t76.5 -42.5q76 0 106.5 108t30.5 299q0 134 -14 251t-35 171z" />
    <glyph glyph-name="omicrontonos" unicode="&#x3cc;" horiz-adv-x="839" 
d="M416 1395h180l-121 -281h-125zM420 -16h-2q-163 0 -260 133t-97 379q0 130 30.5 232t82.5 163t116 92t136 31q160 0 255 -135t95 -377q0 -116 -23 -208t-59 -149t-84 -94.5t-95 -52t-95 -14.5zM424 152h2q39 0 66.5 32t41 86.5t19.5 110.5t6 119q0 61 -6 116t-20 109.5
t-42.5 86.5t-68.5 32q-42 0 -71.5 -32t-44 -87t-20 -109t-5.5 -116q0 -69 6.5 -126.5t21.5 -109.5t44.5 -82t70.5 -30z" />
    <glyph glyph-name="upsilontonos" unicode="&#x3cd;" horiz-adv-x="833" 
d="M401 1401h193l-121 -283h-137zM504 997h205q57 -157 57 -376q0 -637 -367 -637q-141 0 -224 87.5t-83 247.5v369q0 232 -14 309h211q20 -36 20 -204v-465q0 -75 30.5 -117.5t76.5 -42.5q76 0 106.5 108t30.5 299q0 134 -14 251t-35 171z" />
    <glyph glyph-name="omegatonos" unicode="&#x3ce;" horiz-adv-x="1150" 
d="M573 1395h183l-121 -281h-125zM676 707l-4 -388q0 -58 22.5 -105.5t63.5 -47.5q50 0 82 89t32 255q0 147 -35.5 274t-95.5 207v6h197q61 -61 106.5 -196t45.5 -295q0 -242 -87.5 -382t-226.5 -140q-70 0 -119.5 39t-76.5 102h-7q-27 -62 -80.5 -101.5t-125.5 -39.5
q-61 0 -114.5 31t-96.5 90.5t-68 157.5t-25 222q0 172 47.5 310t108.5 202h193v-6q-62 -81 -100 -208t-38 -285q0 -163 33 -247.5t82 -84.5q42 0 64 49t22 107l-4 385h205z" />
    <glyph glyph-name="afii10023" unicode="&#x401;" horiz-adv-x="770" 
d="M668 811v-182h-328v-439h373v-190h-592v1380h567v-190h-348v-379h328zM229 1473h-2q-42 0 -72 32.5t-30 81.5t30.5 82t73.5 33q46 0 76.5 -33t30.5 -82t-30.5 -81.5t-76.5 -32.5zM588 1473h-2q-45 0 -76 32.5t-31 81.5t32 82t77 33q44 0 74 -33t30 -82t-30 -81.5
t-74 -32.5z" />
    <glyph glyph-name="afii10051" unicode="&#x402;" horiz-adv-x="1054" 
d="M27 1380h794v-200h-332v-324h5q70 41 159 41q95 0 169 -53.5t116 -147.5q38 -84 50.5 -166.5t12.5 -193.5q0 -265 -114 -422q-57 -78 -126 -125.5t-134 -62.5l-49 188q77 28 137 113q61 97 61 315q0 173 -47 270q-22 45 -60 71t-83 26q-50 0 -97 -29v-680h-219v1180h-243
v200z" />
    <glyph glyph-name="afii10052" unicode="&#x403;" horiz-adv-x="741" 
d="M121 1380h594v-190h-375v-1190h-219v1380zM463 1681h233l-252 -227h-161z" />
    <glyph glyph-name="afii10053" unicode="&#x404;" horiz-adv-x="808" 
d="M762 1348l-41 -189q-59 41 -139 41q-65 0 -117 -27.5t-84.5 -69.5t-55.5 -98t-32.5 -108.5t-11.5 -105.5h395v-191h-391q4 -75 20 -142.5t48 -132.5t90 -104t135 -39q91 0 167 35l31 -180q-91 -51 -221 -51q-156 0 -269 88.5t-171 245t-58 364.5q0 102 16 199t54.5 191
t95 164.5t145.5 113.5t199 43q47 0 88.5 -9t58.5 -16t48 -22z" />
    <glyph glyph-name="afii10054" unicode="&#x405;" horiz-adv-x="776" 
d="M53 45l37 188q39 -23 99.5 -39t113.5 -16q99 0 154 53t55 140q0 78 -43 132.5t-137 119.5q-120 76 -190 176t-70 209q0 167 107.5 276t295.5 109q61 0 118.5 -15t88.5 -35l-41 -188q-70 47 -170 47q-88 0 -136 -49.5t-48 -118.5q0 -76 41.5 -125t154.5 -121
q244 -161 244 -395q0 -184 -118 -294.5t-306 -110.5q-75 0 -145.5 17t-104.5 40z" />
    <glyph glyph-name="afii10055" unicode="&#x406;" horiz-adv-x="462" 
d="M121 1380h219v-1380h-219v1380z" />
    <glyph glyph-name="afii10056" unicode="&#x407;" horiz-adv-x="462" 
d="M121 1380h219v-1380h-219v1380zM51 1473h-2q-42 0 -72 32.5t-30 81.5t30.5 82t73.5 33q46 0 76.5 -33t30.5 -82t-30.5 -81.5t-76.5 -32.5zM410 1473h-2q-45 0 -76 32.5t-31 81.5t32 82t77 33q44 0 74 -33t30 -82t-30 -81.5t-74 -32.5z" />
    <glyph glyph-name="afii10057" unicode="&#x408;" horiz-adv-x="577" 
d="M254 410v970h219v-962q0 -104 -19 -182t-50.5 -125.5t-79 -76.5t-97 -39.5t-112.5 -10.5q-78 0 -121 16l18 184q31 -8 82 -8q38 0 64.5 9t49.5 33.5t34.5 72t11.5 119.5z" />
    <glyph glyph-name="afii10058" unicode="&#x409;" horiz-adv-x="1386" 
d="M166 1380h639v-530q44 6 106 6q191 0 306.5 -113.5t115.5 -302.5q0 -190 -106 -305q-136 -145 -410 -145q-136 0 -229 14v1186h-219v-414q0 -142 -6.5 -242.5t-24.5 -204t-57 -177t-99 -117.5q-65 -53 -151 -53l-47 182q48 13 84 49q56 55 77 180.5t21 364.5v622z
M805 674v-502q35 -6 69 -6q110 0 172 74.5t62 189.5q0 111 -63.5 180.5t-170.5 69.5q-32 0 -69 -6z" />
    <glyph glyph-name="afii10059" unicode="&#x40a;" horiz-adv-x="1435" 
d="M121 1380h219v-553h295v553h217v-534q49 6 106 6q191 0 307.5 -112t116.5 -300q0 -191 -108 -305q-136 -145 -410 -145q-136 0 -229 14v631h-295v-635h-219v1380zM854 668v-496q34 -6 68 -6q111 0 172 74t61 188q0 113 -63 179.5t-170 66.5q-34 0 -68 -6z" />
    <glyph glyph-name="afii10060" unicode="&#x40b;" horiz-adv-x="1089" 
d="M27 1380h764v-200h-310v-351h6q96 78 218 78q145 0 213 -104q67 -100 67 -281v-522h-217v516q0 115 -39 162q-36 45 -104 45q-79 0 -144 -53v-670h-219v1180h-235v200z" />
    <glyph glyph-name="afii10061" unicode="&#x40c;" horiz-adv-x="870" 
d="M121 1380h215v-612h22l256 612h240l-326 -641q56 -17 97 -49.5t68.5 -81.5t44.5 -99t32 -120q7 -33 20.5 -97t21.5 -103.5t22 -92.5t28 -96h-217q-16 42 -29 93.5t-29 131.5t-22 105q-11 54 -21.5 92.5t-27.5 76t-38 59.5t-51.5 36t-70.5 14h-20v-608h-215v1380z
M514 1671h234l-252 -227h-162z" />
    <glyph glyph-name="afii10062" unicode="&#x40e;" horiz-adv-x="786" 
d="M-8 1380h235l144 -544q35 -128 53 -230h8q7 37 20.5 119.5t18.5 114.5l107 540h221l-187 -688q-2 -9 -17 -62.5t-19.5 -70t-19 -66t-22 -73t-22 -66.5t-25.5 -70t-25.5 -60t-29.5 -60q-49 -87 -120 -138t-152 -51q-46 0 -92 11l8 178q24 -4 55 -4q60 0 109 59.5t71 132.5
q12 40 -2 80zM158 1651h145q10 -117 100 -117q48 0 74 31.5t31 85.5h145q-13 -115 -75.5 -167t-174.5 -52q-228 0 -245 219z" />
    <glyph glyph-name="afii10145" unicode="&#x40f;" horiz-adv-x="999" 
d="M121 1380h219v-1190h319v1190h220v-1380h-279l-12 -305h-178l-11 305h-278v1380z" />
    <glyph glyph-name="afii10017" unicode="&#x410;" horiz-adv-x="917" 
d="M590 360h-275l-73 -360h-213l307 1380h256l285 -1380h-213zM340 530h227l-57 318q-9 51 -27.5 166t-23.5 147h-6q-23 -155 -52 -313z" />
    <glyph glyph-name="afii10018" unicode="&#x411;" horiz-adv-x="921" 
d="M121 1380h649v-188h-432v-344q49 8 106 8q184 0 297 -104q125 -115 125 -312q0 -189 -106 -307q-134 -143 -410 -143q-136 0 -229 14v1376zM338 674v-502q35 -6 70 -6q112 0 176 80q57 72 57 180t-61 178q-69 76 -172 76q-32 0 -70 -6z" />
    <glyph glyph-name="afii10019" unicode="&#x412;" horiz-adv-x="927" 
d="M121 4v1356q107 26 272 26q222 0 328 -96q98 -85 98 -246q0 -99 -53 -180t-152 -123v-6q119 -33 184.5 -123.5t65.5 -216.5q0 -164 -100 -272q-121 -133 -414 -133q-136 0 -229 14zM338 1212v-407h65q84 0 142.5 61t58.5 154q0 92 -46 146.5t-142 54.5q-51 0 -78 -9z
M338 641v-475q27 -6 70 -6q104 0 167.5 61t63.5 176t-69 178.5t-169 65.5h-63z" />
    <glyph glyph-name="afii10020" unicode="&#x413;" horiz-adv-x="741" 
d="M121 1380h594v-190h-375v-1190h-219v1380z" />
    <glyph glyph-name="afii10021" unicode="&#x414;" horiz-adv-x="1042" 
d="M258 1380h641v-1194l100 -2l-8 -479h-168l-10 295h-604l-10 -295h-168l-11 479l95 2q66 162 102 344q41 222 41 519v331zM459 1190v-180q0 -287 -37 -504q-22 -152 -82 -316h342v1000h-223z" />
    <glyph glyph-name="afii10022" unicode="&#x415;" horiz-adv-x="770" 
d="M668 811v-182h-328v-439h373v-190h-592v1380h567v-190h-348v-379h328z" />
    <glyph glyph-name="afii10024" unicode="&#x416;" horiz-adv-x="1329" 
d="M20 1380h246l275 -610h22v610h201v-610h24l273 610h246l-363 -637q66 -12 116 -48.5t82 -93t51 -112t34 -127.5q5 -20 19 -87.5t21.5 -99t22 -83t29.5 -92.5h-213q-15 36 -28.5 91t-27.5 122t-22 96q-11 50 -21.5 86t-30.5 79t-44 70t-61.5 45.5t-84.5 18.5h-22v-608
h-201v608h-20q-47 0 -85 -18.5t-62 -45t-44.5 -70.5t-31 -78.5t-23.5 -86.5q-4 -19 -15 -72.5t-18.5 -87t-20 -77t-24.5 -72.5h-209q37 106 90 362q16 72 35.5 127.5t52 112t82.5 93t115 48.5z" />
    <glyph glyph-name="afii10025" unicode="&#x417;" horiz-adv-x="802" 
d="M94 1145l-43 168q47 36 126 60t169 24q174 0 268.5 -95.5t94.5 -242.5q0 -108 -66.5 -199.5t-169.5 -120.5v-4q128 -24 203.5 -116.5t75.5 -231.5q0 -186 -128 -294.5t-321 -108.5q-79 0 -152 17.5t-120 47.5l39 178q96 -59 215 -59q114 0 176.5 61.5t62.5 161.5
q0 120 -81.5 182t-209.5 62h-40v168h28q105 0 183.5 61t78.5 158q0 86 -50.5 136t-141.5 50q-96 0 -197 -63z" />
    <glyph glyph-name="afii10026" unicode="&#x418;" horiz-adv-x="1005" 
d="M121 1380h194v-389q0 -312 -22 -635h4q23 72 162 441l225 583h199v-1380h-193v385q0 366 17 635h-5q-36 -134 -151 -432l-227 -588h-203v1380z" />
    <glyph glyph-name="afii10027" unicode="&#x419;" horiz-adv-x="1005" 
d="M121 1380h194v-389q0 -312 -22 -635h4q23 72 162 441l225 583h199v-1380h-193v385q0 366 17 635h-5q-36 -134 -151 -432l-227 -588h-203v1380zM254 1649h145q10 -117 101 -117q47 0 73 31.5t31 85.5h146q-13 -115 -75.5 -167t-174.5 -52q-229 0 -246 219z" />
    <glyph glyph-name="afii10028" unicode="&#x41a;" horiz-adv-x="870" 
d="M121 1380h215v-612h22l256 612h240l-326 -641q56 -17 97 -49.5t68.5 -81.5t44.5 -99t32 -120q7 -33 20.5 -97t21.5 -103.5t22 -92.5t28 -96h-217q-16 42 -29 93.5t-29 131.5t-22 105q-11 54 -21.5 92.5t-27.5 76t-38 59.5t-51.5 36t-70.5 14h-20v-608h-215v1380z" />
    <glyph glyph-name="afii10029" unicode="&#x41b;" horiz-adv-x="954" 
d="M168 1380h663v-1380h-219v1190h-241v-412q0 -115 -3 -196t-13.5 -173t-30 -156.5t-54 -122t-82.5 -93.5q-71 -55 -159 -55l-45 184q47 9 84 41q59 57 79.5 183t20.5 366v624z" />
    <glyph glyph-name="afii10030" unicode="&#x41c;" horiz-adv-x="1269" 
d="M987 0l-26 532q-17 334 -15 496h-6q-39 -222 -96 -450l-144 -562h-149l-135 547q-60 226 -99 465h-6q-2 -180 -18 -502l-25 -526h-190l92 1380h231l134 -559q74 -308 104 -479h4q31 194 96 479l129 559h236l82 -1380h-199z" />
    <glyph glyph-name="afii10031" unicode="&#x41d;" horiz-adv-x="1007" 
d="M121 1380h219v-571h328v571h219v-1380h-219v608h-328v-608h-219v1380z" />
    <glyph glyph-name="afii10032" unicode="&#x41e;" horiz-adv-x="952" 
d="M489 1397q85 0 153.5 -36t115 -99t78 -151t45.5 -188t14 -214q0 -190 -32 -332t-90 -226.5t-134 -125.5t-170 -41q-134 0 -228 91t-139 248.5t-45 368.5q0 208 50 366t148.5 248.5t233.5 90.5zM479 1206q-50 0 -88 -39.5t-60.5 -110.5t-34 -163t-11.5 -203
q0 -116 11.5 -208.5t34.5 -162t61 -107.5t89 -38t88.5 42t58.5 117t30.5 165.5t9.5 199.5q0 101 -9 186t-29.5 160.5t-59 118.5t-91.5 43z" />
    <glyph glyph-name="afii10033" unicode="&#x41f;" horiz-adv-x="999" 
d="M121 1380h758v-1380h-220v1190h-319v-1190h-219v1380z" />
    <glyph glyph-name="afii10034" unicode="&#x420;" horiz-adv-x="882" 
d="M121 0v1360q117 26 258 26q235 0 344 -104q111 -105 111 -295q0 -188 -103 -309q-59 -69 -149 -105t-183 -36h-61v-537h-217zM338 1198v-481q16 -4 53 -4q106 0 164.5 68.5t58.5 189.5q0 106 -48 171.5t-152 65.5q-46 0 -76 -10z" />
    <glyph glyph-name="afii10035" unicode="&#x421;" horiz-adv-x="788" 
d="M729 207l27 -184q-72 -35 -203 -35q-235 0 -365.5 181.5t-130.5 502.5q0 153 31.5 277.5t83 205.5t121 136t142 78.5t149.5 23.5q117 0 180 -35l-41 -184q-61 26 -131 26q-59 0 -111 -28t-96 -86.5t-70 -161t-26 -238.5q0 -108 16 -194.5t43.5 -143.5t66.5 -95
t83.5 -54.5t95.5 -16.5q76 0 135 25z" />
    <glyph glyph-name="afii10036" unicode="&#x422;" horiz-adv-x="770" 
d="M274 0v1180h-247v200h716v-200h-249v-1180h-220z" />
    <glyph glyph-name="afii10037" unicode="&#x423;" horiz-adv-x="786" 
d="M-8 1380h235l144 -544q35 -128 53 -230h8q7 37 20.5 119.5t18.5 114.5l107 540h221l-187 -688q-2 -9 -17 -62.5t-19.5 -70t-19 -66t-22 -73t-22 -66.5t-25.5 -70t-25.5 -60t-29.5 -60q-49 -87 -120 -138t-152 -51q-46 0 -92 11l8 178q24 -4 55 -4q60 0 109 59.5t71 132.5
q12 40 -2 80z" />
    <glyph glyph-name="afii10038" unicode="&#x424;" horiz-adv-x="1134" 
d="M471 1425h195v-106q89 -11 162 -53t129.5 -116.5t88 -189.5t31.5 -262q0 -129 -22 -232t-59.5 -172t-91 -117.5t-112.5 -73t-128 -33.5v-115h-195v115q-412 57 -412 624q0 150 36 269t96.5 191.5t131.5 113t150 51.5v106zM471 229v930q-30 -6 -57 -24.5t-53 -55
t-44.5 -88t-29.5 -129.5t-11 -174q0 -213 55.5 -326.5t139.5 -132.5zM664 1159v-930q194 35 194 469q0 119 -17.5 209.5t-47 141.5t-61.5 77t-68 33z" />
    <glyph glyph-name="afii10039" unicode="&#x425;" horiz-adv-x="819" 
d="M811 0h-227l-103 289q-37 99 -80 243h-6q-42 -151 -71 -247l-95 -285h-219l269 705l-259 675h228l100 -284q33 -97 70 -222h4q51 170 65 226l91 280h219l-262 -680z" />
    <glyph glyph-name="afii10040" unicode="&#x426;" horiz-adv-x="1019" 
d="M121 1380h219v-1190h317v1190h220v-1194l100 -2l-10 -479h-168l-11 295h-667v1380z" />
    <glyph glyph-name="afii10041" unicode="&#x427;" horiz-adv-x="962" 
d="M109 1380h217v-467q0 -213 166 -213q80 0 133 35v645h217v-1394h-215v577h-9q-102 -47 -200 -47q-155 0 -232 95t-77 272v497z" />
    <glyph glyph-name="afii10042" unicode="&#x428;" horiz-adv-x="1392" 
d="M121 1380h215v-1190h254v1190h215v-1190h254v1190h213v-1380h-1151v1380z" />
    <glyph glyph-name="afii10043" unicode="&#x429;" horiz-adv-x="1415" 
d="M121 1380h215v-1190h254v1190h215v-1190h254v1190h213v-1194l100 -2l-8 -479h-168l-10 295h-1065v1380z" />
    <glyph glyph-name="afii10044" unicode="&#x42a;" horiz-adv-x="1114" 
d="M27 1380h505v-530q46 6 107 6q191 0 307.5 -113.5t116.5 -302.5t-109 -307q-131 -143 -407 -143q-141 0 -230 14v1190h-290v186zM535 674v-502q35 -6 67 -6q111 0 172.5 74t61.5 186q0 114 -63 184t-169 70q-34 0 -69 -6z" />
    <glyph glyph-name="afii10045" unicode="&#x42b;" horiz-adv-x="1306" 
d="M121 1380h217v-532q44 8 100 8q186 0 300 -112t114 -300q0 -191 -107 -307q-135 -147 -407 -147q-124 0 -217 14v1376zM338 674v-502q35 -6 61 -6q103 0 165.5 74t62.5 186q0 113 -61 183.5t-160 70.5q-38 0 -68 -6zM967 1380h219v-1380h-219v1380z" />
    <glyph glyph-name="afii10046" unicode="&#x42c;" horiz-adv-x="919" 
d="M121 1380h217v-530q38 6 106 6q194 0 308 -111.5t114 -304.5q0 -188 -106 -303q-135 -147 -410 -147q-136 0 -229 14v1376zM338 674v-502q35 -6 63 -6q112 0 176 74.5t64 187.5q0 110 -62.5 181t-170.5 71q-40 0 -70 -6z" />
    <glyph glyph-name="afii10047" unicode="&#x42d;" horiz-adv-x="815" 
d="M139 606v195h396q-1 52 -9.5 104.5t-29.5 106.5t-51.5 95t-79 67t-107.5 26q-82 0 -156 -33l-51 176q106 52 230 52q81 0 149 -23t116.5 -62.5t86 -95t61 -117t38.5 -133t20.5 -138t5.5 -136.5q0 -199 -56.5 -356t-173 -252.5t-276.5 -95.5q-129 0 -225 49l43 182
q75 -35 157 -35q66 0 119 27.5t85.5 70.5t55 101.5t32.5 112.5t13 112h-393z" />
    <glyph glyph-name="afii10048" unicode="&#x42e;" horiz-adv-x="1320" 
d="M121 1380h215v-571h137q22 273 129 430.5t277 157.5q98 0 173.5 -54.5t121 -151t68 -218t22.5 -264.5q0 -190 -31 -332t-86.5 -226.5t-127 -125.5t-159.5 -41q-175 0 -276 166.5t-113 463.5h-135v-614h-215v1380zM866 174h2q48 0 83 42t54 117.5t28 165.5t9 199
q0 101 -8.5 186t-27.5 160.5t-55 118.5t-85 43q-48 0 -84 -43t-56.5 -117.5t-30 -162.5t-9.5 -189q0 -107 9.5 -197t30 -164.5t56.5 -116.5t84 -42z" />
    <glyph glyph-name="afii10049" unicode="&#x42f;" horiz-adv-x="899" 
d="M248 0h-232q30 64 52 145q9 35 26 143t41 180.5t68 121.5q45 48 102 63v4q-108 32 -172.5 117.5t-64.5 214.5q0 200 133 305q121 92 315 92q152 0 262 -26v-1360h-217v573h-43q-84 0 -131 -55q-30 -37 -48.5 -105t-33 -166.5t-20.5 -125.5q-14 -71 -37 -121zM561 743v463
q-36 8 -67 8q-100 0 -151.5 -65t-51.5 -166q0 -109 62 -175.5t161 -66.5q29 0 47 2z" />
    <glyph glyph-name="afii10065" unicode="&#x430;" horiz-adv-x="811" 
d="M709 625v-398q0 -148 12 -227h-197l-12 102h-4q-77 -118 -211 -118q-108 0 -180 83t-72 212q0 93 37 164.5t100 114.5t140.5 64.5t164.5 22.5v27q0 176 -149 176q-100 0 -186 -55l-41 149q44 28 118 50t156 22q93 0 158.5 -30t100.5 -85.5t50 -122t15 -151.5zM494 313
v187q-31 -1 -58.5 -4.5t-62.5 -16.5t-60 -33.5t-42 -57.5t-17 -87q0 -78 32.5 -116t75.5 -38q42 0 77 29.5t48 85.5q7 24 7 51z" />
    <glyph glyph-name="afii10066" unicode="&#x431;" horiz-adv-x="866" 
d="M733 1434l-14 -187q-34 -15 -166 -41q-99 -18 -154 -55.5t-88 -99.5q-43 -81 -57 -215h6q29 68 93.5 114.5t142.5 46.5q139 0 224 -124t85 -367q0 -242 -95.5 -384t-267.5 -142q-87 0 -154.5 39t-107 99.5t-65 144.5t-34.5 163.5t-9 167.5q0 372 104 555q105 186 326 231
q22 5 75 15.5t93.5 20t62.5 18.5zM588 492v2q0 55 -6.5 107t-22 105.5t-47.5 86t-76 32.5q-45 0 -77 -30t-48 -76q-28 -71 -28 -191q0 -54 6 -109.5t21 -119.5t48 -104.5t80 -40.5q46 0 78 35.5t46.5 93t20 107.5t5.5 102z" />
    <glyph glyph-name="afii10067" unicode="&#x432;" horiz-adv-x="872" 
d="M100 -2v995q133 21 262 21q57 0 108.5 -5.5t108.5 -21.5t98 -42.5t68 -73t27 -107.5q0 -89 -55.5 -151t-141.5 -83v-4q110 -17 174 -82t64 -159q0 -52 -16.5 -95.5t-44.5 -74t-67.5 -54t-82 -37.5t-92 -23t-93 -12t-89.5 -3q-130 0 -228 12zM313 858v-270h66
q73 0 129.5 40t56.5 105q0 67 -48.5 100t-129.5 33q-28 0 -74 -8zM311 442v-303q27 -6 74 -6q90 0 150.5 36t60.5 116q0 78 -63 117.5t-156 39.5h-66z" />
    <glyph glyph-name="afii10068" unicode="&#x433;" horiz-adv-x="638" 
d="M100 997h514v-182h-297v-815h-217v997z" />
    <glyph glyph-name="afii10069" unicode="&#x434;" horiz-adv-x="927" 
d="M213 997h586v-833l90 -4l-10 -430h-166l-11 270h-499l-10 -270h-166l-11 430l76 4q56 89 82 207q39 157 39 346v280zM406 825v-110q0 -200 -33 -344q-22 -115 -70 -203h281v657h-178z" />
    <glyph glyph-name="afii10070" unicode="&#x435;" horiz-adv-x="806" 
d="M743 440h-469q3 -284 224 -284q95 0 178 37l31 -158q-99 -47 -250 -47q-190 0 -293 130.5t-103 364.5q0 243 105 387t268 144q152 0 234 -125.5t82 -331.5q0 -23 -7 -117zM276 596h271q1 118 -34.5 186t-94.5 68q-44 0 -77 -40t-48 -95.5t-17 -118.5z" />
    <glyph glyph-name="afii10072" unicode="&#x436;" horiz-adv-x="1169" 
d="M16 997h232l194 -419h37v419h211v-419h37l195 419h231l-270 -450q142 -39 192 -271q36 -176 82 -276h-213q-29 56 -65 231q-49 203 -168 203h-21v-434h-211v434h-20q-70 0 -105.5 -49t-64.5 -160q-4 -16 -12.5 -53.5t-12.5 -53.5t-11.5 -41.5t-14.5 -43.5t-15 -33h-211
q35 78 84 272q56 236 193 275z" />
    <glyph glyph-name="afii10073" unicode="&#x437;" horiz-adv-x="735" 
d="M168 442v148h72q75 0 126.5 38.5t51.5 102.5q0 60 -40.5 93.5t-109.5 33.5q-83 0 -176 -49l-37 135q111 70 277 70q143 0 224 -69.5t81 -182.5q0 -88 -55 -147t-148 -83v-2q107 -15 174.5 -81.5t67.5 -165.5q0 -74 -33.5 -132t-90.5 -94t-128 -54.5t-150 -18.5
q-146 0 -254 57l41 147q92 -45 193 -45q94 0 146.5 42.5t52.5 103.5q0 77 -61.5 115t-149.5 38h-74z" />
    <glyph glyph-name="afii10074" unicode="&#x438;" horiz-adv-x="886" 
d="M100 997h199v-272q0 -266 -16 -469h4q21 63 127 338l157 403h213v-997h-198v268q0 179 16 465h-4q-50 -164 -109 -311q-106 -270 -178 -422h-211v997z" />
    <glyph glyph-name="afii10075" unicode="&#x439;" horiz-adv-x="886" 
d="M100 997h199v-272q0 -266 -16 -469h4q21 63 127 338l157 403h213v-997h-198v268q0 179 16 465h-4q-50 -164 -109 -311q-106 -270 -178 -422h-211v997zM197 1378h139q5 -63 32 -97t74 -34q99 0 109 131h139q-21 -243 -252 -243q-111 0 -172.5 61t-68.5 182z" />
    <glyph glyph-name="afii10076" unicode="&#x43a;" horiz-adv-x="804" 
d="M100 997h215v-413h27l211 413h231l-278 -438q148 -37 205 -283q49 -194 86 -276h-219q-7 14 -14 32.5t-12 33.5t-12.5 41t-11.5 39.5t-12.5 46t-11.5 45.5q-23 94 -63 142t-109 48h-17v-428h-215v997z" />
    <glyph glyph-name="afii10077" unicode="&#x43b;" horiz-adv-x="845" 
d="M141 997h604v-997h-219v819h-180v-260q0 -115 -6.5 -193t-25 -153.5t-56.5 -125t-98 -77.5q-61 -28 -123 -28l-37 174q59 13 86 59q55 71 55 336v446z" />
    <glyph glyph-name="afii10078" unicode="&#x43c;" horiz-adv-x="1163" 
d="M72 0l71 997h267l100 -372q36 -131 76 -303h6q62 273 70 303l96 372h268l66 -997h-203l-17 385q-8 226 -12 420h-4q-26 -137 -90 -399l-104 -394h-170l-103 389q-18 73 -53 234t-37 170h-4q-3 -244 -12 -426l-13 -379h-198z" />
    <glyph glyph-name="afii10079" unicode="&#x43d;" horiz-adv-x="886" 
d="M100 997h219v-397h248v397h219v-997h-219v414h-248v-414h-219v997z" />
    <glyph glyph-name="afii10080" unicode="&#x43e;" horiz-adv-x="839" 
d="M426 1014q160 0 255 -135t95 -377q0 -116 -23 -208t-59 -149t-84.5 -94.5t-95.5 -52t-96 -14.5q-163 0 -260 133t-97 379q0 130 30.5 232t82.5 163t116 92t136 31zM422 844q-42 0 -71.5 -32t-44 -87t-20 -109t-5.5 -116q0 -348 145 -348q39 0 66.5 32t41 86.5t19.5 110.5
t6 119q0 61 -6 116t-20 109.5t-42.5 86.5t-68.5 32z" />
    <glyph glyph-name="afii10081" unicode="&#x43f;" horiz-adv-x="882" 
d="M100 997h682v-997h-219v817h-244v-817h-219v997z" />
    <glyph glyph-name="afii10082" unicode="&#x440;" horiz-adv-x="870" 
d="M100 -393v1077q0 59 -1.5 116t-3.5 113.5t-3 83.5h191l12 -120h4q70 137 209 137q145 0 222 -141t77 -373q0 -130 -26 -231.5t-71 -162t-100 -91.5t-118 -31q-111 0 -170 104h-5v-481h-217zM317 627v-262q0 -42 11 -84q18 -65 48.5 -91t63.5 -26q53 0 88 48t48.5 120
t13.5 166q0 153 -37.5 241t-110.5 88q-40 0 -73.5 -38t-42.5 -89q-9 -34 -9 -73z" />
    <glyph glyph-name="afii10083" unicode="&#x441;" horiz-adv-x="641" 
d="M602 190l23 -170q-62 -32 -168 -32q-182 0 -289 131t-107 373q0 148 52 266t151 186t228 68q87 0 143 -29l-33 -174q-63 22 -106 22q-68 0 -117.5 -46.5t-73.5 -121t-24 -167.5q0 -153 57.5 -240.5t157.5 -87.5q63 0 106 22z" />
    <glyph glyph-name="afii10084" unicode="&#x442;" horiz-adv-x="708" 
d="M20 997h668v-180h-223v-817h-219v817h-226v180z" />
    <glyph glyph-name="afii10085" unicode="&#x443;" horiz-adv-x="757" 
d="M16 997h234l115 -542q8 -40 19.5 -109.5t12.5 -75.5h4q9 57 33 181l98 546h216l-187 -712q-100 -407 -233 -568q-52 -64 -108 -102t-97 -53l-70 188q69 31 135 103q52 55 86 139q13 33 13 47q0 19 -6 37z" />
    <glyph glyph-name="afii10086" unicode="&#x444;" horiz-adv-x="1067" 
d="M434 1386h197l-2 -370q179 -28 277 -161t98 -359q0 -229 -95.5 -360t-279.5 -154l2 -375h-197l2 375q-184 23 -279.5 153.5t-95.5 360.5q0 224 97.5 357t277.5 161zM436 121v756q-51 -17 -87.5 -57t-54.5 -95t-26 -109.5t-8 -115.5q0 -65 8.5 -121.5t27 -111t54.5 -93
t86 -53.5zM629 877v-758q176 60 176 381q0 60 -8 114t-26 108.5t-54.5 95.5t-87.5 59z" />
    <glyph glyph-name="afii10087" unicode="&#x445;" horiz-adv-x="757" 
d="M20 997h238l74 -194q25 -65 57 -170h4q9 28 28 85t28 85l73 194h221l-231 -491l231 -506h-237l-80 205q-23 59 -55 160h-4q-9 -30 -29.5 -87t-26.5 -73l-73 -205h-222l230 498z" />
    <glyph glyph-name="afii10088" unicode="&#x446;" horiz-adv-x="907" 
d="M100 997h219v-817h242v817h217v-833l90 -4l-10 -430h-166l-10 270h-582v997z" />
    <glyph glyph-name="afii10089" unicode="&#x447;" horiz-adv-x="866" 
d="M90 997h217v-370q0 -156 123 -156q60 0 117 37v489h219v-1003h-217v364h-6q-71 -49 -187 -49q-131 0 -198.5 77.5t-67.5 219.5v391z" />
    <glyph glyph-name="afii10090" unicode="&#x448;" horiz-adv-x="1292" 
d="M100 997h215v-817h224v817h215v-817h223v817h215v-997h-1092v997z" />
    <glyph glyph-name="afii10091" unicode="&#x449;" horiz-adv-x="1318" 
d="M100 997h215v-817h224v817h215v-817h223v817h215v-833l88 -4l-10 -430h-166l-10 270h-994v997z" />
    <glyph glyph-name="afii10092" unicode="&#x44a;" horiz-adv-x="1024" 
d="M25 997h450v-333q59 6 100 6q108 0 195 -33t144 -108.5t57 -184.5q0 -166 -119 -256q-128 -98 -356 -98q-96 0 -236 16v813h-235v178zM475 502v-344q23 -4 70 -4q85 0 145 45.5t60 132.5q0 88 -61.5 132t-153.5 44q-33 0 -60 -6z" />
    <glyph glyph-name="afii10093" unicode="&#x44b;" horiz-adv-x="1193" 
d="M100 997h217v-333q38 6 99 6q157 0 263.5 -84.5t106.5 -241.5q0 -169 -118 -256q-66 -50 -155.5 -74t-176.5 -24q-92 0 -236 16v991zM317 502v-344q18 -4 62 -4q75 0 130.5 47.5t55.5 130.5q0 85 -56 130.5t-132 45.5q-33 0 -60 -6zM879 997h215v-997h-215v997z" />
    <glyph glyph-name="afii10094" unicode="&#x44c;" horiz-adv-x="868" 
d="M100 997h217v-333q59 6 99 6q82 0 152 -19.5t126 -58.5t87.5 -104t31.5 -150q0 -161 -121 -250q-128 -98 -356 -98q-92 0 -236 16v991zM317 502v-346q23 -2 62 -2q91 0 152 45.5t61 132.5q0 88 -61.5 132t-153.5 44q-33 0 -60 -6z" />
    <glyph glyph-name="afii10095" unicode="&#x44d;" horiz-adv-x="720" 
d="M100 432v150h334q-5 111 -60.5 187.5t-160.5 76.5q-69 0 -147 -31l-33 152q33 20 93 33.5t122 13.5q183 0 293 -133q118 -145 118 -377q0 -228 -120.5 -373t-321.5 -145q-55 0 -111 11.5t-88 29.5l33 159q72 -28 148 -28q99 0 165 76.5t72 197.5h-336z" />
    <glyph glyph-name="afii10096" unicode="&#x44e;" horiz-adv-x="1169" 
d="M100 997h215v-397h107q12 105 45 186t79.5 130t101.5 73.5t116 24.5q157 0 250.5 -135t93.5 -377q0 -116 -22.5 -208t-58 -149t-82.5 -94.5t-92.5 -52t-92.5 -14.5q-143 0 -235 114t-105 328h-105v-426h-215v997zM764 152h2q36 0 62.5 32.5t39.5 86.5t19 110.5t6 118.5
q0 61 -6 116t-19.5 109t-40.5 86.5t-65 32.5q-40 0 -68.5 -32t-42.5 -86.5t-20 -109.5t-6 -116q0 -68 6.5 -126t21.5 -110t43.5 -82t67.5 -30z" />
    <glyph glyph-name="afii10097" unicode="&#x44f;" horiz-adv-x="841" 
d="M739 987v-987h-209v408h-34q-65 0 -107 -33q-25 -18 -45.5 -55.5t-29 -65t-24.5 -93.5t-22 -87q-6 -29 -26 -74h-230q36 62 49 106q5 17 19.5 73t24 86.5t29.5 72.5t44 68q47 50 123 67v4q-100 20 -163.5 82t-63.5 164q0 130 108 211q46 34 130 53t180 19q154 0 247 -19z
M530 545v313q-27 8 -61 8q-79 0 -127.5 -39.5t-48.5 -115.5q0 -74 55 -121t133 -47q37 0 49 2z" />
    <glyph glyph-name="afii10071" unicode="&#x451;" horiz-adv-x="806" 
d="M266 1153h-2q-44 0 -75 32t-31 81t31.5 80.5t76.5 31.5q46 0 76.5 -31t30.5 -81q0 -49 -30.5 -81t-76.5 -32zM610 1153h-2q-45 0 -75.5 32t-30.5 81t31.5 80.5t76.5 31.5t76 -31t31 -81q0 -49 -30.5 -81t-76.5 -32zM743 440h-469q3 -284 224 -284q95 0 178 37l31 -158
q-99 -47 -250 -47q-190 0 -293 130.5t-103 364.5q0 243 105 387t268 144q152 0 234 -125.5t82 -331.5q0 -23 -7 -117zM276 596h271q1 118 -34.5 186t-94.5 68q-44 0 -77 -40t-48 -95.5t-17 -118.5z" />
    <glyph glyph-name="afii10099" unicode="&#x452;" horiz-adv-x="901" 
d="M14 1272h107v145h219v-145h348v-139h-348v-246h4q36 52 89.5 84.5t115.5 32.5q142 0 211 -144q71 -133 71 -405q0 -220 -40.5 -363.5t-122.5 -232.5q-43 -46 -99.5 -77.5t-101.5 -37.5l-49 180q70 16 117 84q79 129 79 436q0 184 -34 281q-38 94 -109 94q-58 0 -94 -59
q-37 -56 -37 -129v-631h-219v1133h-107v139z" />
    <glyph glyph-name="afii10100" unicode="&#x453;" horiz-adv-x="638" 
d="M100 997h514v-182h-297v-815h-217v997zM399 1405h203l-211 -283h-139z" />
    <glyph glyph-name="afii10101" unicode="&#x454;" horiz-adv-x="722" 
d="M709 969l-39 -156q-72 37 -144 37q-109 0 -170.5 -79.5t-68.5 -188.5h344v-150h-346q8 -127 73.5 -203.5t173.5 -76.5q77 0 142 30l33 -153q-81 -43 -209 -43q-201 0 -319 143t-118 365q0 106 29.5 199t85 165t144.5 114t200 42q57 0 109.5 -13t79.5 -32z" />
    <glyph glyph-name="afii10102" unicode="&#x455;" horiz-adv-x="630" 
d="M41 45l43 162q31 -21 78.5 -37t93.5 -16q59 0 92 30t33 84q0 46 -26.5 82t-94.5 80q-203 122 -203 285q0 129 86 214t219 85q104 0 193 -49l-45 -162q-67 43 -137 43q-54 0 -83.5 -30.5t-29.5 -74.5q0 -40 24.5 -69.5t96.5 -75.5q203 -122 203 -301q0 -147 -91.5 -227
t-238.5 -80q-60 0 -120 15.5t-93 41.5z" />
    <glyph glyph-name="afii10103" unicode="&#x456;" horiz-adv-x="419" 
d="M319 0h-219v997h219v-997zM209 1384q52 0 84.5 -34.5t32.5 -92.5q1 -55 -33 -89.5t-88 -34.5q-48 0 -81 35t-32 89q-1 57 32.5 92t84.5 35z" />
    <glyph glyph-name="afii10104" unicode="&#x457;" horiz-adv-x="419" 
d="M39 1153h-2q-44 0 -75.5 32t-31.5 81t32 80.5t77 31.5q46 0 76 -31t30 -81q0 -49 -30 -81t-76 -32zM383 1153h-2q-45 0 -76 32t-31 81t32 80.5t77 31.5t75.5 -31t30.5 -81q0 -49 -30 -81t-76 -32zM319 0h-219v997h219v-997z" />
    <glyph glyph-name="afii10105" unicode="&#x458;" horiz-adv-x="425" 
d="M-49 -410l-21 174q94 16 131 64q28 35 38 97.5t10 191.5v880h219v-929q0 -157 -28.5 -245.5t-90.5 -144.5q-48 -40 -120.5 -63t-137.5 -25zM219 1384q51 0 84 -35t33 -92q0 -55 -34 -89.5t-87 -34.5q-50 0 -83 34.5t-32 89.5q-1 57 33.5 92t85.5 35z" />
    <glyph glyph-name="afii10106" unicode="&#x459;" horiz-adv-x="1296" 
d="M141 997h607v-333q59 6 98 6q80 0 150.5 -20t126 -59t88 -103.5t32.5 -147.5q0 -158 -117 -250q-132 -100 -368 -100q-86 0 -226 16v813h-186v-260q0 -92 -3.5 -157t-15 -132.5t-31.5 -114t-54 -85t-82 -60.5q-58 -28 -123 -28l-37 174q59 13 86 59q33 38 44 119.5
t11 216.5v446zM748 502v-344q23 -4 63 -4q90 0 150.5 45.5t60.5 132.5q0 88 -60.5 132t-154.5 44q-32 0 -59 -6z" />
    <glyph glyph-name="afii10107" unicode="&#x45a;" horiz-adv-x="1316" 
d="M100 997h219v-368h234v368h215v-340q68 7 104 7q109 0 195.5 -34.5t141.5 -111.5t55 -186q0 -156 -117 -242q-132 -100 -369 -100q-113 0 -225 16v447h-234v-453h-219v997zM768 496v-338q23 -4 68 -4q91 0 148.5 44t57.5 132q0 87 -60.5 129.5t-154.5 42.5q-29 0 -59 -6z
" />
    <glyph glyph-name="afii10108" unicode="&#x45b;" horiz-adv-x="909" 
d="M14 1272h107v145h219v-145h348v-139h-348v-250h4q32 48 86 86q56 35 133 35q119 0 182.5 -96.5t63.5 -278.5v-629h-219v612q0 207 -115 207q-48 0 -80.5 -33.5t-46.5 -89.5q-8 -36 -8 -80v-616h-219v1133h-107v139z" />
    <glyph glyph-name="afii10109" unicode="&#x45c;" horiz-adv-x="804" 
d="M100 997h215v-413h27l211 413h231l-278 -438q148 -37 205 -283q49 -194 86 -276h-219q-7 14 -14 32.5t-12 33.5t-12.5 41t-11.5 39.5t-12.5 46t-11.5 45.5q-23 94 -63 142t-109 48h-17v-428h-215v997zM461 1405h203l-211 -283h-140z" />
    <glyph glyph-name="afii10110" unicode="&#x45e;" horiz-adv-x="757" 
d="M133 1378h139q5 -63 32.5 -97t74.5 -34q98 0 108 131h140q-21 -243 -252 -243q-111 0 -173 61t-69 182zM16 997h234l115 -542q8 -40 19.5 -109.5t12.5 -75.5h4q9 57 33 181l98 546h216l-187 -712q-100 -407 -233 -568q-52 -64 -108 -102t-97 -53l-70 188q69 31 135 103
q52 55 86 139q13 33 13 47q0 19 -6 37z" />
    <glyph glyph-name="afii10193" unicode="&#x45f;" horiz-adv-x="880" 
d="M100 997h222v-817h239v817h217v-997h-241l-13 -279h-168l-12 279h-244v997z" />
    <glyph glyph-name="afii10050" unicode="&#x490;" horiz-adv-x="729" 
d="M121 1380h422l26 240h154l-21 -430h-364v-1190h-217v1380z" />
    <glyph glyph-name="afii10098" unicode="&#x491;" horiz-adv-x="634" 
d="M100 997h344l23 213h160l-17 -395h-293v-815h-217v997z" />
    <glyph glyph-name="afii10846" unicode="&#x4d9;" horiz-adv-x="671" 
d="M129 805l-31 149q111 60 254 60q188 0 289.5 -132.5t101.5 -367.5q0 -241 -102 -383.5t-266 -142.5q-153 0 -235.5 125t-82.5 331q0 74 6 111h467q-1 83 -17.5 141.5t-47.5 89.5t-67.5 44.5t-84.5 13.5q-96 0 -184 -39zM530 399h-270q-1 -114 35 -180.5t96 -66.5
q34 0 60.5 22.5t43 59.5t25 79t10.5 86z" />
    <glyph glyph-name="Wgrave" unicode="&#x1e80;" horiz-adv-x="1368" 
d="M496 0h-213l-250 1380h227l90 -602q25 -175 58 -491h6q5 50 11.5 99t16 103.5t16 90.5t19 103t17.5 97l110 600h180l107 -592q55 -304 74 -501h4q6 57 61 497l90 596h213l-254 -1380h-223l-104 551q-41 227 -64 453h-4q-39 -274 -76 -457zM391 1681h234l180 -227h-162z
" />
    <glyph glyph-name="wgrave" unicode="&#x1e81;" horiz-adv-x="1216" 
d="M362 1405h203l148 -283h-140zM16 997h234l72 -456q35 -232 43 -310h8q17 116 57 306l100 460h168l97 -448q42 -206 57 -318h6q8 96 43 314l76 452h217l-254 -997h-184l-92 408q-34 141 -54 307h-4q-18 -149 -57 -309l-100 -406h-187z" />
    <glyph glyph-name="Wacute" unicode="&#x1e82;" horiz-adv-x="1368" 
d="M496 0h-213l-250 1380h227l90 -602q25 -175 58 -491h6q5 50 11.5 99t16 103.5t16 90.5t19 103t17.5 97l110 600h180l107 -592q55 -304 74 -501h4q6 57 61 497l90 596h213l-254 -1380h-223l-104 551q-41 227 -64 453h-4q-39 -274 -76 -457zM764 1681h233l-252 -227h-161z
" />
    <glyph glyph-name="wacute" unicode="&#x1e83;" horiz-adv-x="1216" 
d="M676 1405h203l-211 -283h-140zM16 997h234l72 -456q35 -232 43 -310h8q17 116 57 306l100 460h168l97 -448q42 -206 57 -318h6q8 96 43 314l76 452h217l-254 -997h-184l-92 408q-34 141 -54 307h-4q-18 -149 -57 -309l-100 -406h-187z" />
    <glyph glyph-name="Wdieresis" unicode="&#x1e84;" horiz-adv-x="1368" 
d="M496 0h-213l-250 1380h227l90 -602q25 -175 58 -491h6q5 50 11.5 99t16 103.5t16 90.5t19 103t17.5 97l110 600h180l107 -592q55 -304 74 -501h4q6 57 61 497l90 596h213l-254 -1380h-223l-104 551q-41 227 -64 453h-4q-39 -274 -76 -457zM514 1473h-2q-42 0 -72 32.5
t-30 81.5t30.5 82t73.5 33q46 0 76.5 -33t30.5 -82t-30.5 -81.5t-76.5 -32.5zM872 1473h-2q-45 0 -75.5 32.5t-30.5 81.5t31.5 82t76.5 33q44 0 74.5 -33t30.5 -82t-30 -81.5t-75 -32.5z" />
    <glyph glyph-name="wdieresis" unicode="&#x1e85;" horiz-adv-x="1216" 
d="M436 1153h-2q-44 0 -75 32t-31 81t31.5 80.5t76.5 31.5q46 0 76.5 -31t30.5 -81q0 -49 -30.5 -81t-76.5 -32zM780 1153h-2q-45 0 -75.5 32t-30.5 81t31.5 80.5t76.5 31.5t76 -31t31 -81q0 -49 -30.5 -81t-76.5 -32zM16 997h234l72 -456q35 -232 43 -310h8q17 116 57 306
l100 460h168l97 -448q42 -206 57 -318h6q8 96 43 314l76 452h217l-254 -997h-184l-92 408q-34 141 -54 307h-4q-18 -149 -57 -309l-100 -406h-187z" />
    <glyph glyph-name="uni1EA0" unicode="&#x1ea0;" horiz-adv-x="917" 
d="M590 360h-275l-73 -360h-213l307 1380h256l285 -1380h-213zM340 530h227l-57 318q-9 51 -27.5 166t-23.5 147h-6q-23 -155 -52 -313zM457 -164q45 0 75.5 -31.5t30.5 -80.5t-30.5 -81t-77.5 -32q-45 0 -77 32t-32 81q0 48 33 80t78 32z" />
    <glyph glyph-name="uni1EA1" unicode="&#x1ea1;" horiz-adv-x="811" 
d="M709 625v-398q0 -148 12 -227h-197l-12 102h-4q-77 -118 -211 -118q-108 0 -180 83t-72 212q0 93 37 164.5t100 114.5t140.5 64.5t164.5 22.5v27q0 176 -149 176q-100 0 -186 -55l-41 149q44 28 118 50t156 22q93 0 158.5 -30t100.5 -85.5t50 -122t15 -151.5zM494 313
v187q-31 -1 -58.5 -4.5t-62.5 -16.5t-60 -33.5t-42 -57.5t-17 -87q0 -78 32.5 -116t75.5 -38q42 0 77 29.5t48 85.5q7 24 7 51zM401 -164q45 0 76 -31.5t31 -80.5t-31 -81t-78 -32q-45 0 -76.5 32t-31.5 81q0 48 32.5 80t77.5 32z" />
    <glyph glyph-name="uni1EA2" unicode="&#x1ea2;" horiz-adv-x="917" 
d="M590 360h-275l-73 -360h-213l307 1380h256l285 -1380h-213zM340 530h227l-57 318q-9 51 -27.5 166t-23.5 147h-6q-23 -155 -52 -313zM504 1446l-109 20q13 37 52.5 84.5t39.5 79.5q0 27 -15.5 43.5t-41.5 16.5q-40 0 -78 -66l-71 57q62 131 192 131q68 0 114 -43t46 -106
q0 -41 -21.5 -75t-56 -72t-51.5 -70z" />
    <glyph glyph-name="uni1EA3" unicode="&#x1ea3;" horiz-adv-x="811" 
d="M709 625v-398q0 -148 12 -227h-197l-12 102h-4q-77 -118 -211 -118q-108 0 -180 83t-72 212q0 93 37 164.5t100 114.5t140.5 64.5t164.5 22.5v27q0 176 -149 176q-100 0 -186 -55l-41 149q44 28 118 50t156 22q93 0 158.5 -30t100.5 -85.5t50 -122t15 -151.5zM494 313
v187q-31 -1 -58.5 -4.5t-62.5 -16.5t-60 -33.5t-42 -57.5t-17 -87q0 -78 32.5 -116t75.5 -38q42 0 77 29.5t48 85.5q7 24 7 51zM446 1077l-112 25q10 37 37 73t47 66.5t20 61.5q0 27 -17 45t-44 18q-46 0 -78 -66l-74 58q28 60 77 96.5t114 36.5q72 0 120 -46t48 -112
q0 -39 -16 -74t-36.5 -58.5t-46 -57.5t-39.5 -66z" />
    <glyph glyph-name="uni1EA4" unicode="&#x1ea4;" horiz-adv-x="917" 
d="M590 360h-275l-73 -360h-213l307 1380h256l285 -1380h-213zM340 530h227l-57 318q-9 51 -27.5 166t-23.5 147h-6q-23 -155 -52 -313zM389 1667h160l156 -213h-156l-78 115h-4l-78 -115h-149zM754 1831h202l-217 -223h-114z" />
    <glyph glyph-name="uni1EA5" unicode="&#x1ea5;" horiz-adv-x="811" 
d="M709 625v-398q0 -148 12 -227h-197l-12 102h-4q-77 -118 -211 -118q-108 0 -180 83t-72 212q0 93 37 164.5t100 114.5t140.5 64.5t164.5 22.5v27q0 176 -149 176q-100 0 -186 -55l-41 149q44 28 118 50t156 22q93 0 158.5 -30t100.5 -85.5t50 -122t15 -151.5zM494 313
v187q-31 -1 -58.5 -4.5t-62.5 -16.5t-60 -33.5t-42 -57.5t-17 -87q0 -78 32.5 -116t75.5 -38q42 0 77 29.5t48 85.5q7 24 7 51zM319 1405h152l137 -283h-145l-66 166h-4l-65 -166h-148zM672 1550h170l-174 -260h-107z" />
    <glyph glyph-name="uni1EA6" unicode="&#x1ea6;" horiz-adv-x="917" 
d="M590 360h-275l-73 -360h-213l307 1380h256l285 -1380h-213zM340 530h227l-57 318q-9 51 -27.5 166t-23.5 147h-6q-23 -155 -52 -313zM500 1800h202l129 -221h-114zM383 1667h160l155 -213h-155l-78 115h-4l-78 -115h-150z" />
    <glyph glyph-name="uni1EA7" unicode="&#x1ea7;" horiz-adv-x="811" 
d="M709 625v-398q0 -148 12 -227h-197l-12 102h-4q-77 -118 -211 -118q-108 0 -180 83t-72 212q0 93 37 164.5t100 114.5t140.5 64.5t164.5 22.5v27q0 176 -149 176q-100 0 -186 -55l-41 149q44 28 118 50t156 22q93 0 158.5 -30t100.5 -85.5t50 -122t15 -151.5zM494 313
v187q-31 -1 -58.5 -4.5t-62.5 -16.5t-60 -33.5t-42 -57.5t-17 -87q0 -78 32.5 -116t75.5 -38q42 0 77 29.5t48 85.5q7 24 7 51zM469 1552h170l90 -258h-104zM328 1405h151l137 -283h-145l-65 166h-5l-65 -166h-148z" />
    <glyph glyph-name="uni1EA8" unicode="&#x1ea8;" horiz-adv-x="917" 
d="M590 360h-275l-73 -360h-213l307 1380h256l285 -1380h-213zM340 530h227l-57 318q-9 51 -27.5 166t-23.5 147h-6q-23 -155 -52 -313zM387 1667h160l155 -213h-155l-78 115h-4l-78 -115h-149zM745 1542l-90 21q12 36 51 81.5t39 75.5q0 25 -15.5 41.5t-39.5 16.5
q-45 0 -80 -64l-63 51q60 123 180 123q62 0 103.5 -39.5t41.5 -95.5q0 -42 -21 -75.5t-55.5 -70t-50.5 -65.5z" />
    <glyph glyph-name="uni1EA9" unicode="&#x1ea9;" horiz-adv-x="811" 
d="M709 625v-398q0 -148 12 -227h-197l-12 102h-4q-77 -118 -211 -118q-108 0 -180 83t-72 212q0 93 37 164.5t100 114.5t140.5 64.5t164.5 22.5v27q0 176 -149 176q-100 0 -186 -55l-41 149q44 28 118 50t156 22q93 0 158.5 -30t100.5 -85.5t50 -122t15 -151.5zM494 313
v187q-31 -1 -58.5 -4.5t-62.5 -16.5t-60 -33.5t-42 -57.5t-17 -87q0 -78 32.5 -116t75.5 -38q42 0 77 29.5t48 85.5q7 24 7 51zM319 1405h152l137 -283h-145l-66 166h-4l-65 -166h-148zM670 1270l-99 20q12 34 49 79t37 75q0 25 -15 41t-40 16q-41 0 -76 -61l-65 51
q61 123 178 123q66 0 110 -40.5t44 -100.5q0 -40 -20.5 -71t-53.5 -66t-49 -66z" />
    <glyph glyph-name="uni1EAA" unicode="&#x1eaa;" horiz-adv-x="917" 
d="M590 360h-275l-73 -360h-213l307 1380h256l285 -1380h-213zM340 530h227l-57 318q-9 51 -27.5 166t-23.5 147h-6q-23 -155 -52 -313zM375 1667h176l176 -213h-170l-92 109h-4l-90 -109h-166zM340 1696h-104q-2 78 34 134t101 56q11 0 22 -1.5t19 -3.5t18.5 -6.5t15.5 -7
t16 -8.5t15 -8q51 -30 82 -30q23 0 34.5 14t12.5 53h103q0 -92 -36 -141t-102 -49q-35 0 -102 37l-22.5 10t-20.5 9.5t-17 6t-20 2.5q-43 0 -49 -67z" />
    <glyph glyph-name="uni1EAB" unicode="&#x1eab;" horiz-adv-x="811" 
d="M709 625v-398q0 -148 12 -227h-197l-12 102h-4q-77 -118 -211 -118q-108 0 -180 83t-72 212q0 93 37 164.5t100 114.5t140.5 64.5t164.5 22.5v27q0 176 -149 176q-100 0 -186 -55l-41 149q44 28 118 50t156 22q93 0 158.5 -30t100.5 -85.5t50 -122t15 -151.5zM494 313
v187q-31 -1 -58.5 -4.5t-62.5 -16.5t-60 -33.5t-42 -57.5t-17 -87q0 -78 32.5 -116t75.5 -38q42 0 77 29.5t48 85.5q7 24 7 51zM330 1343h153l162 -221h-156l-79 121h-4l-82 -121h-158zM281 1370h-105q-2 78 34 134.5t101 56.5q11 0 22.5 -2t19 -3.5t18.5 -6.5t15.5 -7
t16.5 -8.5t15 -7.5q52 -31 82 -31q23 0 34.5 14.5t12.5 53.5h102q0 -92 -35.5 -141.5t-101.5 -49.5q-11 0 -21.5 2t-23 7t-18.5 7.5t-21.5 10t-17.5 8.5q-5 3 -17 9t-17.5 9t-14 6.5t-16 5t-15.5 1.5q-43 0 -49 -68z" />
    <glyph glyph-name="uni1EAC" unicode="&#x1eac;" horiz-adv-x="917" 
d="M590 360h-275l-73 -360h-213l307 1380h256l285 -1380h-213zM340 530h227l-57 318q-9 51 -27.5 166t-23.5 147h-6q-23 -155 -52 -313zM377 1667h176l176 -213h-172l-90 109h-4l-92 -109h-166zM459 -389h-2q-44 0 -77.5 33.5t-33.5 79.5q0 47 33.5 79.5t79.5 32.5t78 -32.5
t32 -79.5q0 -46 -32.5 -79.5t-77.5 -33.5z" />
    <glyph glyph-name="uni1EAD" unicode="&#x1ead;" horiz-adv-x="811" 
d="M709 625v-398q0 -148 12 -227h-197l-12 102h-4q-77 -118 -211 -118q-108 0 -180 83t-72 212q0 93 37 164.5t100 114.5t140.5 64.5t164.5 22.5v27q0 176 -149 176q-100 0 -186 -55l-41 149q44 28 118 50t156 22q93 0 158.5 -30t100.5 -85.5t50 -122t15 -151.5zM494 313
v187q-31 -1 -58.5 -4.5t-62.5 -16.5t-60 -33.5t-42 -57.5t-17 -87q0 -78 32.5 -116t75.5 -38q42 0 77 29.5t48 85.5q7 24 7 51zM332 1405h149l170 -283h-153l-88 170h-4l-89 -170h-155zM401 -164q45 0 76 -31.5t31 -80.5t-31 -81t-78 -32q-45 0 -76.5 32t-31.5 81
q0 48 32.5 80t77.5 32z" />
    <glyph glyph-name="uni1EAE" unicode="&#x1eae;" horiz-adv-x="917" 
d="M590 360h-275l-73 -360h-213l307 1380h256l285 -1380h-213zM340 530h227l-57 318q-9 51 -27.5 166t-23.5 147h-6q-23 -155 -52 -313zM229 1630h101q26 -92 131 -92q112 0 135 92h102q-12 -96 -76.5 -150.5t-162.5 -54.5q-96 0 -158 54t-72 151zM520 1829h203l-217 -223
h-115z" />
    <glyph glyph-name="uni1EAF" unicode="&#x1eaf;" horiz-adv-x="811" 
d="M709 625v-398q0 -148 12 -227h-197l-12 102h-4q-77 -118 -211 -118q-108 0 -180 83t-72 212q0 93 37 164.5t100 114.5t140.5 64.5t164.5 22.5v27q0 176 -149 176q-100 0 -186 -55l-41 149q44 28 118 50t156 22q93 0 158.5 -30t100.5 -85.5t50 -122t15 -151.5zM494 313
v187q-31 -1 -58.5 -4.5t-62.5 -16.5t-60 -33.5t-42 -57.5t-17 -87q0 -78 32.5 -116t75.5 -38q42 0 77 29.5t48 85.5q7 24 7 51zM455 1542h182l-197 -248h-116zM154 1329h108q6 -54 42 -85.5t93 -31.5q63 0 99 32t41 85h108q0 -107 -70.5 -175.5t-179.5 -68.5q-107 0 -174 69
t-67 175z" />
    <glyph glyph-name="uni1EB0" unicode="&#x1eb0;" horiz-adv-x="917" 
d="M590 360h-275l-73 -360h-213l307 1380h256l285 -1380h-213zM340 530h227l-57 318q-9 51 -27.5 166t-23.5 147h-6q-23 -155 -52 -313zM205 1829h203l129 -223h-117zM223 1630h101q26 -92 131 -92q114 0 137 92h100q-10 -95 -75 -150t-162 -55t-159.5 54t-72.5 151z" />
    <glyph glyph-name="uni1EB1" unicode="&#x1eb1;" horiz-adv-x="811" 
d="M709 625v-398q0 -148 12 -227h-197l-12 102h-4q-77 -118 -211 -118q-108 0 -180 83t-72 212q0 93 37 164.5t100 114.5t140.5 64.5t164.5 22.5v27q0 176 -149 176q-100 0 -186 -55l-41 149q44 28 118 50t156 22q93 0 158.5 -30t100.5 -85.5t50 -122t15 -151.5zM494 313
v187q-31 -1 -58.5 -4.5t-62.5 -16.5t-60 -33.5t-42 -57.5t-17 -87q0 -78 32.5 -116t75.5 -38q42 0 77 29.5t48 85.5q7 24 7 51zM164 1542h182l129 -248h-117zM160 1329h108q6 -54 42 -85.5t93 -31.5q63 0 99 32t41 85h108q0 -107 -70.5 -175.5t-179.5 -68.5q-107 0 -174 69
t-67 175z" />
    <glyph glyph-name="uni1EB2" unicode="&#x1eb2;" horiz-adv-x="917" 
d="M590 360h-275l-73 -360h-213l307 1380h256l285 -1380h-213zM340 530h227l-57 318q-9 51 -27.5 166t-23.5 147h-6q-23 -155 -52 -313zM492 1583l-91 21q12 36 50 81.5t38 75.5q0 25 -14.5 41.5t-38.5 16.5q-45 0 -80 -64l-65 51q63 123 182 123q62 0 103.5 -39.5
t41.5 -95.5q0 -42 -20.5 -75.5t-55 -70t-50.5 -65.5zM229 1630h101q26 -92 131 -92q112 0 135 92h102q-12 -96 -76.5 -150.5t-160.5 -54.5q-98 0 -160 54t-72 151z" />
    <glyph glyph-name="uni1EB3" unicode="&#x1eb3;" horiz-adv-x="811" 
d="M709 625v-398q0 -148 12 -227h-197l-12 102h-4q-77 -118 -211 -118q-108 0 -180 83t-72 212q0 93 37 164.5t100 114.5t140.5 64.5t164.5 22.5v27q0 176 -149 176q-100 0 -186 -55l-41 149q44 28 118 50t156 22q93 0 158.5 -30t100.5 -85.5t50 -122t15 -151.5zM494 313
v187q-31 -1 -58.5 -4.5t-62.5 -16.5t-60 -33.5t-42 -57.5t-17 -87q0 -78 32.5 -116t75.5 -38q42 0 77 29.5t48 85.5q7 24 7 51zM436 1274l-98 20q12 34 49 79t37 75q0 24 -14.5 39.5t-40.5 15.5q-39 0 -76 -59l-66 51q61 123 181 123q65 0 109 -40.5t44 -100.5
q0 -40 -20.5 -71t-54 -66.5t-50.5 -65.5zM156 1329h108q6 -54 42 -85.5t93 -31.5q63 0 99 32t41 85h108q0 -107 -70.5 -175.5t-179.5 -68.5q-107 0 -174 69t-67 175z" />
    <glyph glyph-name="uni1EB4" unicode="&#x1eb4;" horiz-adv-x="917" 
d="M590 360h-275l-73 -360h-213l307 1380h256l285 -1380h-213zM340 530h227l-57 318q-9 51 -27.5 166t-23.5 147h-6q-23 -155 -52 -313zM330 1694h-105q3 71 36.5 122.5t96.5 51.5q11 0 22.5 -2t19 -3.5t18.5 -6.5t15.5 -7t16.5 -8.5t15 -7.5q56 -31 82 -31q23 0 34.5 14.5
t12.5 53.5h102q0 -93 -34.5 -142t-100.5 -49q-11 0 -22 2t-24.5 7t-18.5 7t-21.5 10.5t-17.5 8.5q-6 3 -17 9l-16.5 9t-14 6.5t-16.5 5t-16 1.5q-36 0 -47 -51zM219 1630h100q12 -43 46 -67.5t86 -24.5q114 0 137 92h100q-10 -95 -75 -150t-162 -55t-159.5 54t-72.5 151z
" />
    <glyph glyph-name="uni1EB5" unicode="&#x1eb5;" horiz-adv-x="811" 
d="M709 625v-398q0 -148 12 -227h-197l-12 102h-4q-77 -118 -211 -118q-108 0 -180 83t-72 212q0 93 37 164.5t100 114.5t140.5 64.5t164.5 22.5v27q0 176 -149 176q-100 0 -186 -55l-41 149q44 28 118 50t156 22q93 0 158.5 -30t100.5 -85.5t50 -122t15 -151.5zM494 313
v187q-31 -1 -58.5 -4.5t-62.5 -16.5t-60 -33.5t-42 -57.5t-17 -87q0 -78 32.5 -116t75.5 -38q42 0 77 29.5t48 85.5q7 24 7 51zM276 1401h-106q3 71 37.5 122.5t97.5 51.5q11 0 22.5 -2t19 -3.5t18.5 -6.5t15.5 -7t16.5 -8.5t15 -7.5q56 -31 82 -31q23 0 34.5 14.5
t12.5 53.5h102q0 -92 -35 -141.5t-100 -49.5q-38 0 -105 37q-8 3 -21 10t-20.5 10t-17.5 6t-20 3q-38 0 -48 -51zM164 1331h104q5 -55 42 -90t93 -35q62 0 99.5 36t40.5 89h104q1 -107 -68 -174t-178 -67q-107 0 -173 67.5t-64 173.5z" />
    <glyph glyph-name="uni1EB6" unicode="&#x1eb6;" horiz-adv-x="917" 
d="M590 360h-275l-73 -360h-213l307 1380h256l285 -1380h-213zM340 530h227l-57 318q-9 51 -27.5 166t-23.5 147h-6q-23 -155 -52 -313zM231 1688h121q5 -40 34.5 -64.5t78.5 -24.5t79 23t36 66h120q0 -101 -60.5 -160.5t-172.5 -59.5q-114 0 -175 58.5t-61 161.5zM459 -389
h-2q-44 0 -77.5 33.5t-33.5 79.5q0 47 33.5 79.5t79.5 32.5t78 -32.5t32 -79.5q0 -46 -32.5 -79.5t-77.5 -33.5z" />
    <glyph glyph-name="uni1EB7" unicode="&#x1eb7;" horiz-adv-x="811" 
d="M709 625v-398q0 -148 12 -227h-197l-12 102h-4q-77 -118 -211 -118q-108 0 -180 83t-72 212q0 93 37 164.5t100 114.5t140.5 64.5t164.5 22.5v27q0 176 -149 176q-100 0 -186 -55l-41 149q44 28 118 50t156 22q93 0 158.5 -30t100.5 -85.5t50 -122t15 -151.5zM494 313
v187q-31 -1 -58.5 -4.5t-62.5 -16.5t-60 -33.5t-42 -57.5t-17 -87q0 -78 32.5 -116t75.5 -38q42 0 77 29.5t48 85.5q7 24 7 51zM174 1382h113q4 -55 36 -85.5t80 -30.5q57 0 89 32.5t32 83.5h113q3 -108 -62.5 -177.5t-173.5 -69.5q-105 0 -167.5 70.5t-59.5 176.5z
M401 -164q45 0 76 -31.5t31 -80.5t-31 -81t-78 -32q-45 0 -76.5 32t-31.5 81q0 48 32.5 80t77.5 32z" />
    <glyph glyph-name="uni1EB8" unicode="&#x1eb8;" horiz-adv-x="770" 
d="M668 811v-182h-328v-439h373v-190h-592v1380h567v-190h-348v-379h328zM385 -389h-2q-44 0 -77.5 33.5t-33.5 79.5q0 47 33.5 79.5t79.5 32.5t78.5 -32.5t32.5 -79.5q0 -46 -32.5 -79.5t-78.5 -33.5z" />
    <glyph glyph-name="uni1EB9" unicode="&#x1eb9;" horiz-adv-x="806" 
d="M743 440h-469q3 -284 224 -284q95 0 178 37l31 -158q-99 -47 -250 -47q-190 0 -293 130.5t-103 364.5q0 243 105 387t268 144q152 0 234 -125.5t82 -331.5q0 -23 -7 -117zM276 596h271q1 118 -34.5 186t-94.5 68q-44 0 -77 -40t-48 -95.5t-17 -118.5zM401 -164
q45 0 76 -31.5t31 -80.5t-31 -81t-78 -32q-45 0 -76.5 32t-31.5 81q0 48 32.5 80t77.5 32z" />
    <glyph glyph-name="uni1EBA" unicode="&#x1eba;" horiz-adv-x="770" 
d="M668 811v-182h-328v-439h373v-190h-592v1380h567v-190h-348v-379h328zM451 1446l-109 20q13 37 52.5 84.5t39.5 79.5q0 27 -15.5 43.5t-41.5 16.5q-40 0 -78 -66l-72 57q28 59 77 95t116 36q68 0 114 -43t46 -106q0 -41 -21.5 -75t-56 -72t-51.5 -70z" />
    <glyph glyph-name="uni1EBB" unicode="&#x1ebb;" horiz-adv-x="806" 
d="M743 440h-469q3 -284 224 -284q95 0 178 37l31 -158q-99 -47 -250 -47q-190 0 -293 130.5t-103 364.5q0 243 105 387t268 144q152 0 234 -125.5t82 -331.5q0 -23 -7 -117zM276 596h271q1 118 -34.5 186t-94.5 68q-44 0 -77 -40t-48 -95.5t-17 -118.5zM444 1077l-112 25
q10 37 37 73t47 66.5t20 61.5q0 27 -17 45t-44 18q-46 0 -78 -66l-74 58q28 60 77 96.5t114 36.5q72 0 120 -46t48 -112q0 -39 -16 -74t-36.5 -58.5t-46 -57.5t-39.5 -66z" />
    <glyph glyph-name="uni1EBC" unicode="&#x1ebc;" horiz-adv-x="770" 
d="M668 811v-182h-328v-439h373v-190h-592v1380h567v-190h-348v-379h328zM281 1470h-105q-3 101 32 159.5t97 58.5q40 0 103 -35q4 -3 19.5 -13t21.5 -13t16.5 -7t19.5 -4q24 0 36 17t16 59h102q6 -211 -135 -211q-51 0 -105 32q-3 2 -15.5 10t-16 10t-12.5 6t-15.5 5.5
t-13.5 1.5q-39 0 -45 -76z" />
    <glyph glyph-name="uni1EBD" unicode="&#x1ebd;" horiz-adv-x="806" 
d="M272 1145h-106q0 96 35.5 157.5t101.5 61.5q13 0 25 -2t25 -7t20 -8t22 -10.5l19 -9.5t15.5 -9t16 -9.5t13.5 -7t17 -6t16 -1.5q22 0 34 15.5t13 58.5h102q0 -103 -35 -156t-102 -53q-37 0 -105 33q-9 5 -26 15.5t-28 15t-23 4.5q-47 0 -50 -82zM743 440h-469
q3 -284 224 -284q95 0 178 37l31 -158q-99 -47 -250 -47q-190 0 -293 130.5t-103 364.5q0 243 105 387t268 144q152 0 234 -125.5t82 -331.5q0 -23 -7 -117zM276 596h271q1 118 -34.5 186t-94.5 68q-44 0 -77 -40t-48 -95.5t-17 -118.5z" />
    <glyph glyph-name="uni1EBE" unicode="&#x1ebe;" horiz-adv-x="770" 
d="M668 811v-182h-328v-439h373v-190h-592v1380h567v-190h-348v-379h328zM330 1667h159l156 -213h-156l-77 115h-4l-78 -115h-150zM694 1831h203l-217 -223h-115z" />
    <glyph glyph-name="uni1EBF" unicode="&#x1ebf;" horiz-adv-x="806" 
d="M743 440h-469q3 -284 224 -284q95 0 178 37l31 -158q-99 -47 -250 -47q-190 0 -293 130.5t-103 364.5q0 243 105 387t268 144q152 0 234 -125.5t82 -331.5q0 -23 -7 -117zM276 596h271q1 118 -34.5 186t-94.5 68q-44 0 -77 -40t-48 -95.5t-17 -118.5zM358 1405h152
l137 -283h-145l-66 166h-4l-65 -166h-148zM711 1550h170l-174 -260h-107z" />
    <glyph glyph-name="uni1EC0" unicode="&#x1ec0;" horiz-adv-x="770" 
d="M668 811v-182h-328v-439h373v-190h-592v1380h567v-190h-348v-379h328zM434 1800h203l129 -221h-115zM317 1667h160l156 -213h-156l-78 115h-4l-78 -115h-149z" />
    <glyph glyph-name="uni1EC1" unicode="&#x1ec1;" horiz-adv-x="806" 
d="M743 440h-469q3 -284 224 -284q95 0 178 37l31 -158q-99 -47 -250 -47q-190 0 -293 130.5t-103 364.5q0 243 105 387t268 144q152 0 234 -125.5t82 -331.5q0 -23 -7 -117zM276 596h271q1 118 -34.5 186t-94.5 68q-44 0 -77 -40t-48 -95.5t-17 -118.5zM498 1552h170
l90 -258h-105zM356 1405h152l137 -283h-145l-66 166h-4l-65 -166h-148z" />
    <glyph glyph-name="uni1EC2" unicode="&#x1ec2;" horiz-adv-x="770" 
d="M668 811v-182h-328v-439h373v-190h-592v1380h567v-190h-348v-379h328zM326 1667h159l156 -213h-156l-77 115h-5l-77 -115h-150zM684 1542l-90 21q12 36 51 81.5t39 75.5q0 25 -15.5 41.5t-39.5 16.5q-45 0 -80 -64l-64 51q60 123 181 123q62 0 103.5 -39.5t41.5 -95.5
q0 -42 -21 -75.5t-55.5 -70t-50.5 -65.5z" />
    <glyph glyph-name="uni1EC3" unicode="&#x1ec3;" horiz-adv-x="806" 
d="M743 440h-469q3 -284 224 -284q95 0 178 37l31 -158q-99 -47 -250 -47q-190 0 -293 130.5t-103 364.5q0 243 105 387t268 144q152 0 234 -125.5t82 -331.5q0 -23 -7 -117zM276 596h271q1 118 -34.5 186t-94.5 68q-44 0 -77 -40t-48 -95.5t-17 -118.5zM344 1405h152
l137 -283h-146l-65 166h-4l-66 -166h-147zM694 1270l-98 20q12 34 49 79t37 75q0 25 -15 41t-40 16q-41 0 -76 -61l-66 51q28 56 73.5 89.5t105.5 33.5q66 0 109.5 -40.5t43.5 -100.5q0 -40 -20.5 -71t-53.5 -66t-49 -66z" />
    <glyph glyph-name="uni1EC4" unicode="&#x1ec4;" horiz-adv-x="770" 
d="M668 811v-182h-328v-439h373v-190h-592v1380h567v-190h-348v-379h328zM326 1667h176l176 -213h-170l-92 109h-4l-90 -109h-166zM291 1696h-105q-2 77 34.5 133.5t101.5 56.5q11 0 22 -1.5t19 -3.5t18.5 -6.5t15.5 -7t16 -8.5t15 -8q51 -30 82 -30q23 0 34.5 14t12.5 53
h102q0 -92 -35.5 -141t-101.5 -49q-35 0 -102 37l-22.5 10t-20.5 9.5t-17 6t-20 2.5q-43 0 -49 -67z" />
    <glyph glyph-name="uni1EC5" unicode="&#x1ec5;" horiz-adv-x="806" 
d="M743 440h-469q3 -284 224 -284q95 0 178 37l31 -158q-99 -47 -250 -47q-190 0 -293 130.5t-103 364.5q0 243 105 387t268 144q152 0 234 -125.5t82 -331.5q0 -23 -7 -117zM276 596h271q1 118 -34.5 186t-94.5 68q-44 0 -77 -40t-48 -95.5t-17 -118.5zM352 1343h154
l162 -221h-156l-80 121h-4l-82 -121h-158zM303 1370h-104q-2 78 34 134.5t101 56.5q11 0 22 -1.5t19 -3.5t18.5 -6.5t15.5 -7t16 -8.5t15 -8q52 -31 82 -31q23 0 34.5 14.5t12.5 53.5h103q0 -92 -35.5 -141.5t-101.5 -49.5q-31 0 -103 35q-5 3 -17 9t-17.5 9t-14 6.5t-16 5
t-15.5 1.5q-43 0 -49 -68z" />
    <glyph glyph-name="uni1EC6" unicode="&#x1ec6;" horiz-adv-x="770" 
d="M668 811v-182h-328v-439h373v-190h-592v1380h567v-190h-348v-379h328zM311 1667h176l177 -213h-172l-91 109h-4l-92 -109h-166zM401 -389h-2q-44 0 -77 33.5t-33 79.5q0 47 33 79.5t79 32.5t78.5 -32.5t32.5 -79.5q0 -46 -32.5 -79.5t-78.5 -33.5z" />
    <glyph glyph-name="uni1EC7" unicode="&#x1ec7;" horiz-adv-x="806" 
d="M743 440h-469q3 -284 224 -284q95 0 178 37l31 -158q-99 -47 -250 -47q-190 0 -293 130.5t-103 364.5q0 243 105 387t268 144q152 0 234 -125.5t82 -331.5q0 -23 -7 -117zM276 596h271q1 118 -34.5 186t-94.5 68q-44 0 -77 -40t-48 -95.5t-17 -118.5zM328 1405h149
l170 -283h-153l-88 170h-5l-88 -170h-155zM401 -164q45 0 76 -31.5t31 -80.5t-31 -81t-78 -32q-45 0 -76.5 32t-31.5 81q0 48 32.5 80t77.5 32z" />
    <glyph glyph-name="uni1EC8" unicode="&#x1ec8;" horiz-adv-x="462" 
d="M121 1380h219v-1380h-219v1380zM279 1446l-109 20q13 37 52.5 84.5t39.5 79.5q0 27 -15.5 43.5t-41.5 16.5q-40 0 -78 -66l-72 57q28 59 77 95t116 36q68 0 114 -43t46 -106q0 -41 -21.5 -75t-56 -72t-51.5 -70z" />
    <glyph glyph-name="uni1EC9" unicode="&#x1ec9;" horiz-adv-x="419" 
d="M319 0h-219v997h219v-997zM252 1077l-113 25q10 37 37 73t47.5 66.5t20.5 61.5q0 27 -17.5 45t-44.5 18q-46 0 -78 -66l-73 58q28 60 76.5 96.5t113.5 36.5q72 0 120 -46t48 -112q0 -50 -24 -90.5t-60.5 -84t-52.5 -81.5z" />
    <glyph glyph-name="uni1ECA" unicode="&#x1eca;" horiz-adv-x="462" 
d="M121 1380h219v-1380h-219v1380zM231 -389h-2q-44 0 -77 33.5t-33 79.5q0 47 33 79.5t79 32.5t78.5 -32.5t32.5 -79.5q0 -46 -32.5 -79.5t-78.5 -33.5z" />
    <glyph glyph-name="uni1ECB" unicode="&#x1ecb;" horiz-adv-x="419" 
d="M319 0h-219v997h219v-997zM209 1384q52 0 84.5 -34.5t32.5 -92.5q1 -55 -33 -89.5t-88 -34.5q-48 0 -81 35t-32 89q-1 57 32.5 92t84.5 35zM209 -164q45 0 75.5 -31.5t30.5 -80.5t-30.5 -81t-77.5 -32q-45 0 -77 32t-32 81q0 48 33 80t78 32z" />
    <glyph glyph-name="uni1ECC" unicode="&#x1ecc;" horiz-adv-x="952" 
d="M489 1397q85 0 153.5 -36t115 -99t78 -151t45.5 -188t14 -214q0 -190 -32 -332t-90 -226.5t-134 -125.5t-170 -41q-134 0 -228 91t-139 248.5t-45 368.5q0 208 50 366t148.5 248.5t233.5 90.5zM479 1206q-50 0 -88 -39.5t-60.5 -110.5t-34 -163t-11.5 -203
q0 -116 11.5 -208.5t34.5 -162t61 -107.5t89 -38t88.5 42t58.5 117t30.5 165.5t9.5 199.5q0 101 -9 186t-29.5 160.5t-59 118.5t-91.5 43zM475 -389h-2q-44 0 -77.5 33.5t-33.5 79.5q0 47 33.5 79.5t79.5 32.5t78.5 -32.5t32.5 -79.5q0 -46 -32.5 -79.5t-78.5 -33.5z" />
    <glyph glyph-name="uni1ECD" unicode="&#x1ecd;" horiz-adv-x="839" 
d="M426 1014q160 0 255 -135t95 -377q0 -116 -23 -208t-59 -149t-84.5 -94.5t-95.5 -52t-96 -14.5q-163 0 -260 133t-97 379q0 130 30.5 232t82.5 163t116 92t136 31zM422 844q-42 0 -71.5 -32t-44 -87t-20 -109t-5.5 -116q0 -348 145 -348q39 0 66.5 32t41 86.5t19.5 110.5
t6 119q0 61 -6 116t-20 109.5t-42.5 86.5t-68.5 32zM416 -164q45 0 75.5 -31.5t30.5 -80.5t-30.5 -81t-77.5 -32q-45 0 -77 32t-32 81q0 48 33 80t78 32z" />
    <glyph glyph-name="uni1ECE" unicode="&#x1ece;" horiz-adv-x="952" 
d="M489 1397q85 0 153.5 -36t115 -99t78 -151t45.5 -188t14 -214q0 -190 -32 -332t-90 -226.5t-134 -125.5t-170 -41q-134 0 -228 91t-139 248.5t-45 368.5q0 208 50 366t148.5 248.5t233.5 90.5zM479 1206q-50 0 -88 -39.5t-60.5 -110.5t-34 -163t-11.5 -203
q0 -116 11.5 -208.5t34.5 -162t61 -107.5t89 -38t88.5 42t58.5 117t30.5 165.5t9.5 199.5q0 101 -9 186t-29.5 160.5t-59 118.5t-91.5 43zM522 1446l-108 20q13 37 52.5 84.5t39.5 79.5q0 27 -15.5 43.5t-41.5 16.5q-40 0 -78 -66l-72 57q28 59 77 95t116 36t113 -43
t46 -106q0 -41 -21.5 -75t-56 -72t-51.5 -70z" />
    <glyph glyph-name="uni1ECF" unicode="&#x1ecf;" horiz-adv-x="839" 
d="M426 1014q160 0 255 -135t95 -377q0 -116 -23 -208t-59 -149t-84.5 -94.5t-95.5 -52t-96 -14.5q-163 0 -260 133t-97 379q0 130 30.5 232t82.5 163t116 92t136 31zM422 844q-42 0 -71.5 -32t-44 -87t-20 -109t-5.5 -116q0 -348 145 -348q39 0 66.5 32t41 86.5t19.5 110.5
t6 119q0 61 -6 116t-20 109.5t-42.5 86.5t-68.5 32zM461 1077l-113 25q10 37 37 73t47.5 66.5t20.5 61.5q0 27 -17.5 45t-44.5 18q-46 0 -78 -66l-73 58q28 60 76.5 96.5t113.5 36.5q72 0 120 -46t48 -112q0 -50 -24 -90.5t-60.5 -84t-52.5 -81.5z" />
    <glyph glyph-name="uni1ED0" unicode="&#x1ed0;" horiz-adv-x="952" 
d="M489 1397q85 0 153.5 -36t115 -99t78 -151t45.5 -188t14 -214q0 -190 -32 -332t-90 -226.5t-134 -125.5t-170 -41q-134 0 -228 91t-139 248.5t-45 368.5q0 208 50 366t148.5 248.5t233.5 90.5zM479 1206q-50 0 -88 -39.5t-60.5 -110.5t-34 -163t-11.5 -203
q0 -116 11.5 -208.5t34.5 -162t61 -107.5t89 -38t88.5 42t58.5 117t30.5 165.5t9.5 199.5q0 101 -9 186t-29.5 160.5t-59 118.5t-91.5 43zM414 1667h159l156 -213h-156l-77 115h-4l-78 -115h-150zM778 1831h203l-217 -223h-115z" />
    <glyph glyph-name="uni1ED1" unicode="&#x1ed1;" horiz-adv-x="839" 
d="M426 1014q160 0 255 -135t95 -377q0 -116 -23 -208t-59 -149t-84.5 -94.5t-95.5 -52t-96 -14.5q-163 0 -260 133t-97 379q0 130 30.5 232t82.5 163t116 92t136 31zM422 844q-42 0 -71.5 -32t-44 -87t-20 -109t-5.5 -116q0 -348 145 -348q39 0 66.5 32t41 86.5t19.5 110.5
t6 119q0 61 -6 116t-20 109.5t-42.5 86.5t-68.5 32zM352 1405h152l137 -283h-145l-66 166h-4l-66 -166h-147zM705 1550h169l-174 -260h-106z" />
    <glyph glyph-name="uni1ED2" unicode="&#x1ed2;" horiz-adv-x="952" 
d="M489 1397q85 0 153.5 -36t115 -99t78 -151t45.5 -188t14 -214q0 -190 -32 -332t-90 -226.5t-134 -125.5t-170 -41q-134 0 -228 91t-139 248.5t-45 368.5q0 208 50 366t148.5 248.5t233.5 90.5zM479 1206q-50 0 -88 -39.5t-60.5 -110.5t-34 -163t-11.5 -203
q0 -116 11.5 -208.5t34.5 -162t61 -107.5t89 -38t88.5 42t58.5 117t30.5 165.5t9.5 199.5q0 101 -9 186t-29.5 160.5t-59 118.5t-91.5 43zM522 1800h203l129 -221h-115zM406 1667h159l156 -213h-156l-78 115h-4l-77 -115h-150z" />
    <glyph glyph-name="uni1ED3" unicode="&#x1ed3;" horiz-adv-x="839" 
d="M426 1014q160 0 255 -135t95 -377q0 -116 -23 -208t-59 -149t-84.5 -94.5t-95.5 -52t-96 -14.5q-163 0 -260 133t-97 379q0 130 30.5 232t82.5 163t116 92t136 31zM422 844q-42 0 -71.5 -32t-44 -87t-20 -109t-5.5 -116q0 -348 145 -348q39 0 66.5 32t41 86.5t19.5 110.5
t6 119q0 61 -6 116t-20 109.5t-42.5 86.5t-68.5 32zM494 1552h170l90 -258h-105zM352 1405h152l137 -283h-145l-66 166h-4l-66 -166h-147z" />
    <glyph glyph-name="uni1ED4" unicode="&#x1ed4;" horiz-adv-x="952" 
d="M489 1397q85 0 153.5 -36t115 -99t78 -151t45.5 -188t14 -214q0 -190 -32 -332t-90 -226.5t-134 -125.5t-170 -41q-134 0 -228 91t-139 248.5t-45 368.5q0 208 50 366t148.5 248.5t233.5 90.5zM479 1206q-50 0 -88 -39.5t-60.5 -110.5t-34 -163t-11.5 -203
q0 -116 11.5 -208.5t34.5 -162t61 -107.5t89 -38t88.5 42t58.5 117t30.5 165.5t9.5 199.5q0 101 -9 186t-29.5 160.5t-59 118.5t-91.5 43zM408 1667h159l156 -213h-156l-78 115h-4l-77 -115h-150zM766 1542l-90 21q12 36 51 81.5t39 75.5q0 25 -15.5 41.5t-39.5 16.5
q-45 0 -80 -64l-64 51q60 123 181 123q62 0 103.5 -39.5t41.5 -95.5q0 -42 -21 -75.5t-55.5 -70t-50.5 -65.5z" />
    <glyph glyph-name="uni1ED5" unicode="&#x1ed5;" horiz-adv-x="839" 
d="M426 1014q160 0 255 -135t95 -377q0 -116 -23 -208t-59 -149t-84.5 -94.5t-95.5 -52t-96 -14.5q-163 0 -260 133t-97 379q0 130 30.5 232t82.5 163t116 92t136 31zM422 844q-42 0 -71.5 -32t-44 -87t-20 -109t-5.5 -116q0 -348 145 -348q39 0 66.5 32t41 86.5t19.5 110.5
t6 119q0 61 -6 116t-20 109.5t-42.5 86.5t-68.5 32zM350 1405h152l137 -283h-145l-66 166h-4l-66 -166h-147zM700 1270l-98 20q12 34 49 79t37 75q0 25 -15 41t-40 16q-41 0 -76 -61l-65 51q62 123 178 123q66 0 109.5 -40.5t43.5 -100.5q0 -40 -20.5 -71t-53.5 -66t-49 -66
z" />
    <glyph glyph-name="uni1ED6" unicode="&#x1ed6;" horiz-adv-x="952" 
d="M489 1397q85 0 153.5 -36t115 -99t78 -151t45.5 -188t14 -214q0 -190 -32 -332t-90 -226.5t-134 -125.5t-170 -41q-134 0 -228 91t-139 248.5t-45 368.5q0 208 50 366t148.5 248.5t233.5 90.5zM479 1206q-50 0 -88 -39.5t-60.5 -110.5t-34 -163t-11.5 -203
q0 -116 11.5 -208.5t34.5 -162t61 -107.5t89 -38t88.5 42t58.5 117t30.5 165.5t9.5 199.5q0 101 -9 186t-29.5 160.5t-59 118.5t-91.5 43zM395 1667h176l177 -213h-170l-93 109h-4l-90 -109h-166zM360 1696h-104q-2 78 34 134t101 56q11 0 22.5 -2t19 -3.5t18.5 -6.5
t15.5 -7t16.5 -8.5t15 -7.5q51 -30 82 -30q23 0 34.5 14t12.5 53h102q0 -92 -35.5 -141t-101.5 -49q-36 0 -103 37q-9 4 -22 10t-20 9.5t-17 6t-20 2.5q-44 0 -50 -67z" />
    <glyph glyph-name="uni1ED7" unicode="&#x1ed7;" horiz-adv-x="839" 
d="M426 1014q160 0 255 -135t95 -377q0 -116 -23 -208t-59 -149t-84.5 -94.5t-95.5 -52t-96 -14.5q-163 0 -260 133t-97 379q0 130 30.5 232t82.5 163t116 92t136 31zM422 844q-42 0 -71.5 -32t-44 -87t-20 -109t-5.5 -116q0 -348 145 -348q39 0 66.5 32t41 86.5t19.5 110.5
t6 119q0 61 -6 116t-20 109.5t-42.5 86.5t-68.5 32zM344 1343h154l161 -221h-155l-80 121h-4l-82 -121h-158zM295 1370h-105q-2 77 34.5 134t101.5 57q11 0 22 -1.5t19 -3.5t18.5 -6.5t15.5 -7t16 -8.5t15 -8q52 -31 82 -31q23 0 34.5 14.5t12.5 53.5h103q0 -92 -36 -141.5
t-102 -49.5q-11 0 -21.5 2t-23 7t-18.5 7.5t-21.5 10t-17.5 8.5q-5 3 -17 9t-17.5 9t-14 6.5t-16 5t-15.5 1.5q-43 0 -49 -68z" />
    <glyph glyph-name="uni1ED8" unicode="&#x1ed8;" horiz-adv-x="952" 
d="M489 1397q85 0 153.5 -36t115 -99t78 -151t45.5 -188t14 -214q0 -190 -32 -332t-90 -226.5t-134 -125.5t-170 -41q-134 0 -228 91t-139 248.5t-45 368.5q0 208 50 366t148.5 248.5t233.5 90.5zM479 1206q-50 0 -88 -39.5t-60.5 -110.5t-34 -163t-11.5 -203
q0 -116 11.5 -208.5t34.5 -162t61 -107.5t89 -38t88.5 42t58.5 117t30.5 165.5t9.5 199.5q0 101 -9 186t-29.5 160.5t-59 118.5t-91.5 43zM391 1667h176l176 -213h-172l-90 109h-4l-92 -109h-166zM475 -389h-2q-44 0 -77.5 33.5t-33.5 79.5q0 47 33.5 79.5t79.5 32.5
t78.5 -32.5t32.5 -79.5q0 -46 -32.5 -79.5t-78.5 -33.5z" />
    <glyph glyph-name="uni1ED9" unicode="&#x1ed9;" horiz-adv-x="839" 
d="M426 1014q160 0 255 -135t95 -377q0 -116 -23 -208t-59 -149t-84.5 -94.5t-95.5 -52t-96 -14.5q-163 0 -260 133t-97 379q0 130 30.5 232t82.5 163t116 92t136 31zM422 844q-42 0 -71.5 -32t-44 -87t-20 -109t-5.5 -116q0 -348 145 -348q39 0 66.5 32t41 86.5t19.5 110.5
t6 119q0 61 -6 116t-20 109.5t-42.5 86.5t-68.5 32zM344 1405h150l170 -283h-154l-88 170h-4l-88 -170h-156zM416 -164q45 0 75.5 -31.5t30.5 -80.5t-30.5 -81t-77.5 -32q-45 0 -77 32t-32 81q0 48 33 80t78 32z" />
    <glyph glyph-name="uni1EDA" unicode="&#x1eda;" horiz-adv-x="952" 
d="M481 174q51 0 88.5 42t58.5 117t30.5 165.5t9.5 199.5q0 101 -9 186t-29.5 160.5t-59 118.5t-91.5 43q-52 0 -91.5 -43t-61 -117.5t-32 -162.5t-9.5 -189q-1 -106 9.5 -196.5t32.5 -164.5t61.5 -116.5t92.5 -42.5zM762 1487l160 24q36 -70 36 -155q0 -78 -38.5 -128
t-112.5 -57q88 -176 88 -462q0 -190 -32 -332t-90 -226.5t-134 -125.5t-170 -41q-134 0 -228 91t-139 248.5t-45 368.5q0 208 50 366t148.5 248.5t233.5 90.5q83 0 156 -37q22 -11 47.5 -27t39 -23t24.5 -7q45 0 45 57q0 47 -39 127zM535 1681h233l-252 -227h-162z" />
    <glyph glyph-name="uni1EDB" unicode="&#x1edb;" horiz-adv-x="839" 
d="M422 844q-42 0 -71.5 -32t-44 -87t-20 -109t-5.5 -116q0 -348 145 -348q39 0 66.5 32t41 86.5t19.5 110.5t6 119q0 61 -6 116t-20 109.5t-42.5 86.5t-68.5 32zM664 1130l157 23q39 -76 39 -158q0 -73 -38 -118t-109 -54q63 -123 63 -321q0 -116 -23 -208t-59 -149
t-84.5 -94.5t-95.5 -52t-96 -14.5q-163 0 -260 133t-97 379q0 130 30.5 232t82.5 163t116 92t136 31q56 0 123 -27q2 -1 41 -18t61 -17q49 0 49 60q0 55 -36 118zM467 1405h203l-211 -283h-140z" />
    <glyph glyph-name="uni1EDC" unicode="&#x1edc;" horiz-adv-x="952" 
d="M481 174q51 0 88.5 42t58.5 117t30.5 165.5t9.5 199.5q0 101 -9 186t-29.5 160.5t-59 118.5t-91.5 43q-52 0 -91.5 -43t-61 -117.5t-32 -162.5t-9.5 -189q-1 -106 9.5 -196.5t32.5 -164.5t61.5 -116.5t92.5 -42.5zM762 1487l160 24q36 -70 36 -155q0 -78 -38.5 -128
t-112.5 -57q88 -176 88 -462q0 -190 -32 -332t-90 -226.5t-134 -125.5t-170 -41q-134 0 -228 91t-139 248.5t-45 368.5q0 208 50 366t148.5 248.5t233.5 90.5q83 0 156 -37q22 -11 47.5 -27t39 -23t24.5 -7q45 0 45 57q0 47 -39 127zM201 1681h233l180 -227h-161z" />
    <glyph glyph-name="uni1EDD" unicode="&#x1edd;" horiz-adv-x="839" 
d="M422 844q-42 0 -71.5 -32t-44 -87t-20 -109t-5.5 -116q0 -348 145 -348q39 0 66.5 32t41 86.5t19.5 110.5t6 119q0 61 -6 116t-20 109.5t-42.5 86.5t-68.5 32zM664 1130l157 23q39 -76 39 -158q0 -73 -38 -118t-109 -54q63 -123 63 -321q0 -116 -23 -208t-59 -149
t-84.5 -94.5t-95.5 -52t-96 -14.5q-163 0 -260 133t-97 379q0 130 30.5 232t82.5 163t116 92t136 31q56 0 123 -27q2 -1 41 -18t61 -17q49 0 49 60q0 55 -36 118zM186 1405h203l148 -283h-140z" />
    <glyph glyph-name="uni1EDE" unicode="&#x1ede;" horiz-adv-x="952" 
d="M481 174q51 0 88.5 42t58.5 117t30.5 165.5t9.5 199.5q0 101 -9 186t-29.5 160.5t-59 118.5t-91.5 43q-52 0 -91.5 -43t-61 -117.5t-32 -162.5t-9.5 -189q-1 -106 9.5 -196.5t32.5 -164.5t61.5 -116.5t92.5 -42.5zM762 1487l160 24q36 -70 36 -155q0 -78 -38.5 -128
t-112.5 -57q88 -176 88 -462q0 -190 -32 -332t-90 -226.5t-134 -125.5t-170 -41q-134 0 -228 91t-139 248.5t-45 368.5q0 208 50 366t148.5 248.5t233.5 90.5q83 0 156 -37q22 -11 47.5 -27t39 -23t24.5 -7q45 0 45 57q0 47 -39 127zM522 1446l-108 20q13 37 52.5 84.5
t39.5 79.5q0 27 -15.5 43.5t-41.5 16.5q-40 0 -78 -66l-72 57q28 59 77 95t116 36t113 -43t46 -106q0 -41 -21.5 -75t-56 -72t-51.5 -70z" />
    <glyph glyph-name="uni1EDF" unicode="&#x1edf;" horiz-adv-x="839" 
d="M422 844q-42 0 -71.5 -32t-44 -87t-20 -109t-5.5 -116q0 -348 145 -348q39 0 66.5 32t41 86.5t19.5 110.5t6 119q0 61 -6 116t-20 109.5t-42.5 86.5t-68.5 32zM664 1130l157 23q39 -76 39 -158q0 -73 -38 -118t-109 -54q63 -123 63 -321q0 -116 -23 -208t-59 -149
t-84.5 -94.5t-95.5 -52t-96 -14.5q-163 0 -260 133t-97 379q0 130 30.5 232t82.5 163t116 92t136 31q56 0 123 -27q2 -1 41 -18t61 -17q49 0 49 60q0 55 -36 118zM459 1077l-113 25q10 37 37 73t47.5 66.5t20.5 61.5q0 27 -17.5 45t-44.5 18q-46 0 -78 -66l-73 58
q28 60 76.5 96.5t113.5 36.5q72 0 120 -46t48 -112q0 -50 -24 -90.5t-60.5 -84t-52.5 -81.5z" />
    <glyph glyph-name="uni1EE0" unicode="&#x1ee0;" horiz-adv-x="952" 
d="M481 174q51 0 88.5 42t58.5 117t30.5 165.5t9.5 199.5q0 101 -9 186t-29.5 160.5t-59 118.5t-91.5 43q-52 0 -91.5 -43t-61 -117.5t-32 -162.5t-9.5 -189q-1 -106 9.5 -196.5t32.5 -164.5t61.5 -116.5t92.5 -42.5zM762 1487l160 24q36 -70 36 -155q0 -78 -38.5 -128
t-112.5 -57q88 -176 88 -462q0 -190 -32 -332t-90 -226.5t-134 -125.5t-170 -41q-134 0 -228 91t-139 248.5t-45 368.5q0 208 50 366t148.5 248.5t233.5 90.5q83 0 156 -37q22 -11 47.5 -27t39 -23t24.5 -7q45 0 45 57q0 47 -39 127zM348 1470h-104q-3 101 32 159.5t97 58.5
q39 0 102 -35q5 -3 16.5 -10.5t17 -10.5t14 -7.5t16 -6.5t14.5 -2q23 0 35 17t16 59h103q6 -211 -136 -211q-50 0 -104 32q-3 2 -13.5 8.5t-13.5 8.5t-11 6t-12.5 5.5t-11 3t-12.5 1.5q-39 0 -45 -76z" />
    <glyph glyph-name="uni1EE1" unicode="&#x1ee1;" horiz-adv-x="839" 
d="M422 844q-42 0 -71.5 -32t-44 -87t-20 -109t-5.5 -116q0 -348 145 -348q39 0 66.5 32t41 86.5t19.5 110.5t6 119q0 61 -6 116t-20 109.5t-42.5 86.5t-68.5 32zM664 1130l157 23q39 -76 39 -158q0 -73 -38 -118t-109 -54q63 -123 63 -321q0 -116 -23 -208t-59 -149
t-84.5 -94.5t-95.5 -52t-96 -14.5q-163 0 -260 133t-97 379q0 130 30.5 232t82.5 163t116 92t136 31q56 0 123 -27q2 -1 41 -18t61 -17q49 0 49 60q0 55 -36 118zM285 1145h-107q0 96 35.5 157.5t101.5 61.5q13 0 25 -2t25 -7t20 -8t22 -10.5l19 -9.5t15.5 -9t16 -9.5
t13.5 -7t17 -6t16 -1.5q22 0 34 15.5t13 58.5h102q0 -103 -35 -156t-102 -53q-36 0 -104 33q-9 5 -26 15.5t-28.5 15t-23.5 4.5q-46 0 -49 -82z" />
    <glyph glyph-name="uni1EE2" unicode="&#x1ee2;" horiz-adv-x="952" 
d="M481 174q51 0 88.5 42t58.5 117t30.5 165.5t9.5 199.5q0 101 -9 186t-29.5 160.5t-59 118.5t-91.5 43q-52 0 -91.5 -43t-61 -117.5t-32 -162.5t-9.5 -189q-1 -106 9.5 -196.5t32.5 -164.5t61.5 -116.5t92.5 -42.5zM762 1487l160 24q36 -70 36 -155q0 -78 -38.5 -128
t-112.5 -57q88 -176 88 -462q0 -190 -32 -332t-90 -226.5t-134 -125.5t-170 -41q-134 0 -228 91t-139 248.5t-45 368.5q0 208 50 366t148.5 248.5t233.5 90.5q83 0 156 -37q22 -11 47.5 -27t39 -23t24.5 -7q45 0 45 57q0 47 -39 127zM475 -389h-2q-44 0 -77.5 33.5
t-33.5 79.5q0 47 33.5 79.5t79.5 32.5t78.5 -32.5t32.5 -79.5q0 -46 -32.5 -79.5t-78.5 -33.5z" />
    <glyph glyph-name="uni1EE3" unicode="&#x1ee3;" horiz-adv-x="839" 
d="M422 844q-42 0 -71.5 -32t-44 -87t-20 -109t-5.5 -116q0 -348 145 -348q39 0 66.5 32t41 86.5t19.5 110.5t6 119q0 61 -6 116t-20 109.5t-42.5 86.5t-68.5 32zM664 1130l157 23q39 -76 39 -158q0 -73 -38 -118t-109 -54q63 -123 63 -321q0 -116 -23 -208t-59 -149
t-84.5 -94.5t-95.5 -52t-96 -14.5q-163 0 -260 133t-97 379q0 130 30.5 232t82.5 163t116 92t136 31q56 0 123 -27q2 -1 41 -18t61 -17q49 0 49 60q0 55 -36 118zM426 -164q45 0 75.5 -31.5t30.5 -80.5t-30.5 -81t-77.5 -32q-45 0 -77 32t-32 81q0 48 33 80t78 32z" />
    <glyph glyph-name="uni1EE4" unicode="&#x1ee4;" horiz-adv-x="985" 
d="M115 1380h219v-909q0 -295 158 -295q76 0 116.5 67.5t40.5 227.5v909h219v-872q0 -263 -98 -393.5t-281 -130.5q-189 0 -281.5 128t-92.5 386v882zM492 -389h-3q-44 0 -77 33.5t-33 79.5q0 47 33.5 79.5t79.5 32.5t78 -32.5t32 -79.5q0 -46 -32.5 -79.5t-77.5 -33.5z" />
    </font>
</defs>
</svg>
